<?xml version="1.0" encoding="UTF-8" standalone="no"?>
<!DOCTYPE svg PUBLIC "-//W3C//DTD SVG 1.1//EN"
 "http://www.w3.org/Graphics/SVG/1.1/DTD/svg11.dtd">
<!-- Generated by graphviz version 2.36.0 (20140111.2315)
 -->
<!-- Title: %3 Pages: 1 -->
<svg width="274pt" height="166pt"
 viewBox="0.00 0.00 273.57 166.00" xmlns="http://www.w3.org/2000/svg" xmlns:xlink="http://www.w3.org/1999/xlink">
<g id="graph0" class="graph" transform="scale(1 1) rotate(0) translate(4 162)">
<title>%3</title>
<polygon fill="white" stroke="none" points="-4,4 -4,-162 269.574,-162 269.574,4 -4,4"/>
<!-- 0 -->
<g id="node1" class="node"><title>0</title>
<polygon fill="lightgrey" stroke="black" points="33.6482,-158 13.1482,-158 13.1482,-140 33.6482,-140 33.6482,-158"/>
<text text-anchor="middle" x="23.3982" y="-146.8" font-family="Times,serif" font-size="9.00">0</text>
</g>
<!-- 6 -->
<g id="node7" class="node"><title>6</title>
<ellipse fill="lightblue" stroke="lightblue" cx="121.398" cy="-15" rx="14.2796" ry="14.7"/>
<text text-anchor="middle" x="121.398" y="-12.8" font-family="Times,serif" font-size="9.00">6</text>
</g>
<!-- 0&#45;&gt;6 -->
<g id="edge30" class="edge"><title>0&#45;&gt;6</title>
<path fill="none" stroke="green" stroke-width="0.173954" d="M17.8722,-139.565C8.3079,-123.797 -8.90743,-89.3444 6.39822,-66 26.4206,-35.4616 69.5751,-23.4763 96.953,-18.8419"/>
<polygon fill="green" stroke="green" stroke-width="0.173954" points="97.5541,-22.2911 106.931,-17.3587 96.5248,-15.3672 97.5541,-22.2911"/>
</g>
<!-- 9 -->
<g id="node8" class="node"><title>9</title>
<ellipse fill="none" stroke="black" cx="49.3982" cy="-85" rx="14.2796" ry="14.7"/>
<text text-anchor="middle" x="49.3982" y="-82.8" font-family="Times,serif" font-size="9.00">9</text>
</g>
<!-- 0&#45;&gt;9 -->
<g id="edge33" class="edge"><title>0&#45;&gt;9</title>
<path fill="none" stroke="green" stroke-width="0.279466" d="M26.7973,-139.895C30.1275,-131.953 35.357,-119.483 39.9472,-108.537"/>
<polygon fill="green" stroke="green" stroke-width="0.279466" points="43.2705,-109.663 43.9101,-99.087 36.8151,-106.955 43.2705,-109.663"/>
</g>
<!-- 7 -->
<g id="node9" class="node"><title>7</title>
<ellipse fill="none" stroke="black" cx="97.3982" cy="-85" rx="14.2796" ry="14.7"/>
<text text-anchor="middle" x="97.3982" y="-82.8" font-family="Times,serif" font-size="9.00">7</text>
</g>
<!-- 0&#45;&gt;7 -->
<g id="edge7" class="edge"><title>0&#45;&gt;7</title>
<path fill="none" stroke="green" stroke-width="0.294718" d="M33.0724,-139.895C44.6002,-130.236 64.1239,-113.879 78.6453,-101.712"/>
<polygon fill="green" stroke="green" stroke-width="0.294718" points="81.1016,-104.22 86.519,-95.115 76.606,-98.8544 81.1016,-104.22"/>
</g>
<!-- 8 -->
<g id="node10" class="node"><title>8</title>
<ellipse fill="none" stroke="black" cx="145.398" cy="-85" rx="14.2796" ry="14.7"/>
<text text-anchor="middle" x="145.398" y="-82.8" font-family="Times,serif" font-size="9.00">8</text>
</g>
<!-- 0&#45;&gt;8 -->
<g id="edge23" class="edge"><title>0&#45;&gt;8</title>
<path fill="none" stroke="red" stroke-width="0.32295" d="M33.9684,-143.521C55.6916,-134.263 104.636,-113.128 120.398,-104 122.134,-102.995 123.897,-101.898 125.643,-100.758"/>
<polygon fill="red" stroke="red" stroke-width="0.32295" points="127.816,-103.51 134.018,-94.9201 123.813,-97.7674 127.816,-103.51"/>
</g>
<!-- 10 -->
<g id="node11" class="node"><title>10</title>
<ellipse fill="none" stroke="black" cx="196.398" cy="-85" rx="18.0791" ry="18.2703"/>
<text text-anchor="middle" x="196.398" y="-82.8" font-family="Times,serif" font-size="9.00">10</text>
</g>
<!-- 0&#45;&gt;10 -->
<g id="edge9" class="edge"><title>0&#45;&gt;10</title>
<path fill="none" stroke="green" stroke-width="0.477217" d="M33.7632,-143.37C36.5418,-142.203 39.5623,-140.998 42.3982,-140 97.3359,-120.665 115.334,-128.004 168.398,-104 169.991,-103.28 171.598,-102.478 173.194,-101.625"/>
<polygon fill="green" stroke="green" stroke-width="0.477217" points="175.225,-104.489 182.036,-96.3734 171.651,-98.4708 175.225,-104.489"/>
</g>
<!-- 1 -->
<g id="node2" class="node"><title>1</title>
<polygon fill="lightgrey" stroke="black" points="72.6482,-158 52.1482,-158 52.1482,-140 72.6482,-140 72.6482,-158"/>
<text text-anchor="middle" x="62.3982" y="-146.8" font-family="Times,serif" font-size="9.00">1</text>
</g>
<!-- 1&#45;&gt;6 -->
<g id="edge8" class="edge"><title>1&#45;&gt;6</title>
<path fill="none" stroke="red" stroke-width="0.122197" d="M51.7928,-141.821C40.3508,-134.47 22.7802,-121.023 15.3982,-104 8.67891,-88.5053 6.35532,-80.264 15.3982,-66 33.2246,-37.8812 71.5669,-25.281 96.9167,-19.8488"/>
<polygon fill="red" stroke="red" stroke-width="0.122197" points="97.7266,-23.2574 106.888,-17.9353 96.4072,-16.3828 97.7266,-23.2574"/>
</g>
<!-- 1&#45;&gt;9 -->
<g id="edge22" class="edge"><title>1&#45;&gt;9</title>
<path fill="none" stroke="red" stroke-width="0.189324" d="M60.6987,-139.895C59.0882,-132.214 56.5894,-120.296 54.3506,-109.619"/>
<polygon fill="red" stroke="red" stroke-width="0.189324" points="57.7188,-108.627 52.2411,-99.5583 50.8678,-110.064 57.7188,-108.627"/>
</g>
<!-- 1&#45;&gt;7 -->
<g id="edge32" class="edge"><title>1&#45;&gt;7</title>
<path fill="none" stroke="red" stroke-width="0.397108" d="M66.9739,-139.895C71.6642,-131.586 79.1531,-118.32 85.527,-107.029"/>
<polygon fill="red" stroke="red" stroke-width="0.397108" points="88.6648,-108.59 90.5329,-98.1614 82.569,-105.149 88.6648,-108.59"/>
</g>
<!-- 1&#45;&gt;8 -->
<g id="edge31" class="edge"><title>1&#45;&gt;8</title>
<path fill="none" stroke="green" stroke-width="0.204282" d="M72.9102,-140.148C86.1602,-130.25 109.202,-113.038 125.753,-100.675"/>
<polygon fill="green" stroke="green" stroke-width="0.204282" points="128.261,-103.17 134.178,-94.3817 124.071,-97.5623 128.261,-103.17"/>
</g>
<!-- 1&#45;&gt;10 -->
<g id="edge16" class="edge"><title>1&#45;&gt;10</title>
<path fill="none" stroke="red" stroke-width="0.475975" d="M72.8465,-143.587C75.6244,-142.418 78.6238,-141.158 81.3982,-140 120.015,-123.881 131.316,-123.392 168.398,-104 169.912,-103.208 171.45,-102.359 172.985,-101.477"/>
<polygon fill="red" stroke="red" stroke-width="0.475975" points="174.874,-104.425 181.581,-96.2239 171.223,-98.4522 174.874,-104.425"/>
</g>
<!-- 2 -->
<g id="node3" class="node"><title>2</title>
<polygon fill="lightgrey" stroke="black" points="111.648,-158 91.1482,-158 91.1482,-140 111.648,-140 111.648,-158"/>
<text text-anchor="middle" x="101.398" y="-146.8" font-family="Times,serif" font-size="9.00">2</text>
</g>
<!-- 2&#45;&gt;6 -->
<g id="edge19" class="edge"><title>2&#45;&gt;6</title>
<path fill="none" stroke="red" stroke-width="0.282561" d="M90.894,-143.502C71.8035,-135.09 32.7088,-116.68 25.3982,-104 16.9625,-89.3687 16.6382,-80.4394 25.3982,-66 40.9507,-40.3642 74.411,-27.2609 97.4135,-21.0267"/>
<polygon fill="red" stroke="red" stroke-width="0.282561" points="98.2742,-24.4193 107.144,-18.6253 96.597,-17.6232 98.2742,-24.4193"/>
</g>
<!-- 2&#45;&gt;9 -->
<g id="edge13" class="edge"><title>2&#45;&gt;9</title>
<path fill="none" stroke="green" stroke-width="0.198837" d="M94.6001,-139.895C87.1568,-131.02 74.9695,-116.489 65.1244,-104.75"/>
<polygon fill="green" stroke="green" stroke-width="0.198837" points="67.5786,-102.23 58.4708,-96.8173 62.2153,-106.728 67.5786,-102.23"/>
</g>
<!-- 2&#45;&gt;7 -->
<g id="edge25" class="edge"><title>2&#45;&gt;7</title>
<path fill="none" stroke="green" stroke-width="0.520216" d="M100.875,-139.895C100.386,-132.312 99.6306,-120.601 98.9486,-110.03"/>
<polygon fill="green" stroke="green" stroke-width="0.520216" points="102.44,-109.789 98.3037,-100.035 95.4549,-110.239 102.44,-109.789"/>
</g>
<!-- 2&#45;&gt;8 -->
<g id="edge5" class="edge"><title>2&#45;&gt;8</title>
<path fill="none" stroke="green" stroke-width="1.00644" d="M107.15,-139.895C113.239,-131.315 123.079,-117.45 131.253,-105.932"/>
<polygon fill="green" stroke="green" stroke-width="1.00644" points="134.157,-107.888 137.09,-97.7073 128.448,-103.837 134.157,-107.888"/>
</g>
<!-- 2&#45;&gt;10 -->
<g id="edge20" class="edge"><title>2&#45;&gt;10</title>
<path fill="none" stroke="red" stroke-width="0.558614" d="M111.928,-141.128C126.591,-131.559 153.553,-113.962 173.08,-101.218"/>
<polygon fill="red" stroke="red" stroke-width="0.558614" points="174.997,-104.147 181.458,-95.7504 171.171,-98.2848 174.997,-104.147"/>
</g>
<!-- 3 -->
<g id="node4" class="node"><title>3</title>
<polygon fill="lightgrey" stroke="black" points="150.648,-158 130.148,-158 130.148,-140 150.648,-140 150.648,-158"/>
<text text-anchor="middle" x="140.398" y="-146.8" font-family="Times,serif" font-size="9.00">3</text>
</g>
<!-- 3&#45;&gt;6 -->
<g id="edge15" class="edge"><title>3&#45;&gt;6</title>
<path fill="none" stroke="red" stroke-width="0.409788" d="M150.932,-143.163C172.339,-133.228 219.257,-110.882 223.398,-104 232.106,-89.5288 232.334,-80.3315 223.398,-66 206.492,-38.8851 170.128,-26.0641 145.708,-20.305"/>
<polygon fill="red" stroke="red" stroke-width="0.409788" points="146.263,-16.8447 135.753,-18.1888 144.807,-23.6917 146.263,-16.8447"/>
</g>
<!-- 3&#45;&gt;9 -->
<g id="edge21" class="edge"><title>3&#45;&gt;9</title>
<path fill="none" stroke="red" stroke-width="0.209319" d="M129.818,-141.34C116.497,-132.89 92.9854,-117.757 73.3982,-104 71.9331,-102.971 70.4287,-101.894 68.922,-100.8"/>
<polygon fill="red" stroke="red" stroke-width="0.209319" points="70.6417,-97.7177 60.5248,-94.5713 66.4714,-103.34 70.6417,-97.7177"/>
</g>
<!-- 3&#45;&gt;7 -->
<g id="edge10" class="edge"><title>3&#45;&gt;7</title>
<path fill="none" stroke="green" stroke-width="0.857553" d="M134.777,-139.895C128.827,-131.315 119.21,-117.45 111.222,-105.932"/>
<polygon fill="green" stroke="green" stroke-width="0.857553" points="114.093,-103.93 105.518,-97.7073 108.341,-107.919 114.093,-103.93"/>
</g>
<!-- 3&#45;&gt;8 -->
<g id="edge29" class="edge"><title>3&#45;&gt;8</title>
<path fill="none" stroke="red" stroke-width="0.150917" d="M141.052,-139.895C141.663,-132.312 142.608,-120.601 143.46,-110.03"/>
<polygon fill="red" stroke="red" stroke-width="0.150917" points="146.951,-110.284 144.266,-100.035 139.974,-109.721 146.951,-110.284"/>
</g>
<!-- 3&#45;&gt;10 -->
<g id="edge14" class="edge"><title>3&#45;&gt;10</title>
<path fill="none" stroke="red" stroke-width="0.402653" d="M147.719,-139.895C155.331,-131.467 167.55,-117.939 177.841,-106.545"/>
<polygon fill="red" stroke="red" stroke-width="0.402653" points="180.472,-108.854 184.578,-99.087 175.277,-104.162 180.472,-108.854"/>
</g>
<!-- 4 -->
<g id="node5" class="node"><title>4</title>
<polygon fill="lightgrey" stroke="black" points="189.648,-158 169.148,-158 169.148,-140 189.648,-140 189.648,-158"/>
<text text-anchor="middle" x="179.398" y="-146.8" font-family="Times,serif" font-size="9.00">4</text>
</g>
<!-- 4&#45;&gt;6 -->
<g id="edge27" class="edge"><title>4&#45;&gt;6</title>
<path fill="none" stroke="green" stroke-width="0.329077" d="M189.767,-142.227C205.912,-132.995 235.795,-114.847 241.398,-104 249.149,-88.9948 250.766,-80.0524 241.398,-66 220.195,-34.1954 174.525,-22.589 146.042,-18.3758"/>
<polygon fill="green" stroke="green" stroke-width="0.329077" points="146.417,-14.8954 136.054,-17.0964 145.528,-21.8387 146.417,-14.8954"/>
</g>
<!-- 4&#45;&gt;9 -->
<g id="edge12" class="edge"><title>4&#45;&gt;9</title>
<path fill="none" stroke="green" stroke-width="0.362436" d="M169.147,-143.915C144.295,-133.986 82.2246,-109.036 73.3982,-104 71.8432,-103.113 70.273,-102.139 68.7198,-101.119"/>
<polygon fill="green" stroke="green" stroke-width="0.362436" points="70.3989,-98.0158 60.2333,-95.0307 66.3187,-103.704 70.3989,-98.0158"/>
</g>
<!-- 4&#45;&gt;7 -->
<g id="edge2" class="edge"><title>4&#45;&gt;7</title>
<path fill="none" stroke="red" stroke-width="0.273924" d="M169.013,-140.148C155.995,-130.305 133.411,-113.229 117.08,-100.881"/>
<polygon fill="red" stroke="red" stroke-width="0.273924" points="118.838,-97.8225 108.75,-94.5832 114.616,-103.406 118.838,-97.8225"/>
</g>
<!-- 4&#45;&gt;8 -->
<g id="edge3" class="edge"><title>4&#45;&gt;8</title>
<path fill="none" stroke="red" stroke-width="0.495031" d="M174.953,-139.895C170.453,-131.689 163.301,-118.647 157.16,-107.448"/>
<polygon fill="red" stroke="red" stroke-width="0.495031" points="160.197,-105.707 152.32,-98.6214 154.059,-109.072 160.197,-105.707"/>
</g>
<!-- 4&#45;&gt;10 -->
<g id="edge18" class="edge"><title>4&#45;&gt;10</title>
<path fill="none" stroke="red" stroke-width="0.106781" d="M181.621,-139.895C183.518,-132.976 186.357,-122.62 189.042,-112.829"/>
<polygon fill="red" stroke="red" stroke-width="0.106781" points="192.468,-113.568 191.737,-102.998 185.718,-111.717 192.468,-113.568"/>
</g>
<!-- 5 -->
<g id="node6" class="node"><title>5</title>
<polygon fill="lightgrey" stroke="black" points="228.648,-158 208.148,-158 208.148,-140 228.648,-140 228.648,-158"/>
<text text-anchor="middle" x="218.398" y="-146.8" font-family="Times,serif" font-size="9.00">5</text>
</g>
<!-- 5&#45;&gt;6 -->
<g id="edge4" class="edge"><title>5&#45;&gt;6</title>
<path fill="none" stroke="red" stroke-width="0.805339" d="M228.789,-140.636C238.793,-132.846 253.278,-119.545 259.398,-104 265.585,-88.2851 269.095,-79.8275 259.398,-66 233.745,-29.4208 178.501,-19.4932 146.231,-16.8689"/>
<polygon fill="red" stroke="red" stroke-width="0.805339" points="146.062,-13.3513 135.861,-16.2135 145.62,-20.3374 146.062,-13.3513"/>
</g>
<!-- 5&#45;&gt;9 -->
<g id="edge1" class="edge"><title>5&#45;&gt;9</title>
<path fill="none" stroke="green" stroke-width="0.618296" d="M207.885,-143.566C204.847,-142.347 201.511,-141.068 198.398,-140 143.713,-121.241 125.152,-129.768 73.3982,-104 71.7955,-103.202 70.1905,-102.294 68.6127,-101.319"/>
<polygon fill="green" stroke="green" stroke-width="0.618296" points="70.2726,-98.2079 60.0789,-95.32 66.2467,-103.934 70.2726,-98.2079"/>
</g>
<!-- 5&#45;&gt;7 -->
<g id="edge28" class="edge"><title>5&#45;&gt;7</title>
<path fill="none" stroke="green" stroke-width="0.30702" d="M208.143,-143.684C186.562,-134.548 137.15,-113.329 121.398,-104 119.858,-103.088 118.298,-102.096 116.753,-101.062"/>
<polygon fill="green" stroke="green" stroke-width="0.30702" points="118.438,-97.9624 108.281,-94.9495 114.342,-103.639 118.438,-97.9624"/>
</g>
<!-- 5&#45;&gt;8 -->
<g id="edge11" class="edge"><title>5&#45;&gt;8</title>
<path fill="none" stroke="green" stroke-width="0.330035" d="M208.855,-139.895C197.483,-130.236 178.223,-113.879 163.898,-101.712"/>
<polygon fill="green" stroke="green" stroke-width="0.330035" points="166.018,-98.9208 156.13,-95.115 161.487,-104.256 166.018,-98.9208"/>
</g>
<!-- 5&#45;&gt;10 -->
<g id="edge26" class="edge"><title>5&#45;&gt;10</title>
<path fill="none" stroke="red" stroke-width="0.897334" d="M215.522,-139.895C213.006,-132.805 209.21,-122.105 205.66,-112.103"/>
<polygon fill="red" stroke="red" stroke-width="0.897334" points="208.893,-110.747 202.25,-102.493 202.296,-113.087 208.893,-110.747"/>
</g>
<!-- 9&#45;&gt;6 -->
<g id="edge24" class="edge"><title>9&#45;&gt;6</title>
<path fill="none" stroke="red" stroke-width="0.186016" d="M59.7141,-74.2573C71.1557,-63.4513 89.8197,-45.8242 103.626,-32.7853"/>
<polygon fill="red" stroke="red" stroke-width="0.186016" points="106.235,-35.1355 111.102,-25.7247 101.428,-30.0464 106.235,-35.1355"/>
</g>
<!-- 7&#45;&gt;6 -->
<g id="edge34" class="edge"><title>7&#45;&gt;6</title>
<path fill="none" stroke="red" stroke-width="0.412033" d="M102.026,-70.8889C105.246,-61.7639 109.624,-49.3614 113.403,-38.6545"/>
<polygon fill="red" stroke="red" stroke-width="0.412033" points="116.757,-39.6656 116.785,-29.0708 110.156,-37.3358 116.757,-39.6656"/>
</g>
<!-- 8&#45;&gt;6 -->
<g id="edge17" class="edge"><title>8&#45;&gt;6</title>
<path fill="none" stroke="red" stroke-width="0.159472" d="M140.771,-70.8889C137.55,-61.7639 133.173,-49.3614 129.394,-38.6545"/>
<polygon fill="red" stroke="red" stroke-width="0.159472" points="132.64,-37.3358 126.011,-29.0708 126.039,-39.6656 132.64,-37.3358"/>
</g>
<!-- 10&#45;&gt;6 -->
<g id="edge6" class="edge"><title>10&#45;&gt;6</title>
<path fill="none" stroke="green" stroke-width="0.356765" d="M183.334,-72.1553C171.239,-61.1893 153.138,-44.777 139.623,-32.5238"/>
<polygon fill="green" stroke="green" stroke-width="0.356765" points="141.655,-29.6417 131.896,-25.5177 136.953,-34.8276 141.655,-29.6417"/>
</g>
</g>
</svg>
