<?xml version="1.0" encoding="UTF-8" standalone="no"?>
<!DOCTYPE svg PUBLIC "-//W3C//DTD SVG 1.1//EN"
 "http://www.w3.org/Graphics/SVG/1.1/DTD/svg11.dtd">
<!-- Generated by graphviz version 2.36.0 (20140111.2315)
 -->
<!-- Title: %3 Pages: 1 -->
<svg width="347pt" height="252pt"
 viewBox="0.00 0.00 347.00 252.00" xmlns="http://www.w3.org/2000/svg" xmlns:xlink="http://www.w3.org/1999/xlink">
<g id="graph0" class="graph" transform="scale(1 1) rotate(0) translate(4 248)">
<title>%3</title>
<polygon fill="white" stroke="none" points="-4,4 -4,-248 343,-248 343,4 -4,4"/>
<!-- 0 -->
<g id="node1" class="node"><title>0</title>
<polygon fill="lightgrey" stroke="black" points="20.25,-234 -0.25,-234 -0.25,-216 20.25,-216 20.25,-234"/>
<text text-anchor="middle" x="10" y="-222.8" font-family="Times,serif" font-size="9.00">0</text>
</g>
<!-- 1 -->
<g id="node2" class="node"><title>1</title>
<polygon fill="lightgrey" stroke="black" points="59.25,-234 38.75,-234 38.75,-216 59.25,-216 59.25,-234"/>
<text text-anchor="middle" x="49" y="-222.8" font-family="Times,serif" font-size="9.00">1</text>
</g>
<!-- 2 -->
<g id="node3" class="node"><title>2</title>
<polygon fill="lightgrey" stroke="black" points="98.25,-234 77.75,-234 77.75,-216 98.25,-216 98.25,-234"/>
<text text-anchor="middle" x="88" y="-222.8" font-family="Times,serif" font-size="9.00">2</text>
</g>
<!-- 3 -->
<g id="node4" class="node"><title>3</title>
<polygon fill="lightgrey" stroke="black" points="137.25,-234 116.75,-234 116.75,-216 137.25,-216 137.25,-234"/>
<text text-anchor="middle" x="127" y="-222.8" font-family="Times,serif" font-size="9.00">3</text>
</g>
<!-- 4 -->
<g id="node5" class="node"><title>4</title>
<polygon fill="lightgrey" stroke="black" points="176.25,-234 155.75,-234 155.75,-216 176.25,-216 176.25,-234"/>
<text text-anchor="middle" x="166" y="-222.8" font-family="Times,serif" font-size="9.00">4</text>
</g>
<!-- 5 -->
<g id="node6" class="node"><title>5</title>
<polygon fill="lightgrey" stroke="black" points="215.25,-234 194.75,-234 194.75,-216 215.25,-216 215.25,-234"/>
<text text-anchor="middle" x="205" y="-222.8" font-family="Times,serif" font-size="9.00">5</text>
</g>
<!-- 13 -->
<g id="node11" class="node"><title>13</title>
<ellipse fill="none" stroke="black" cx="205" cy="-151" rx="18.0791" ry="18.2703"/>
<text text-anchor="middle" x="205" y="-148.8" font-family="Times,serif" font-size="9.00">13</text>
</g>
<!-- 5&#45;&gt;13 -->
<g id="edge3" class="edge"><title>5&#45;&gt;13</title>
<path fill="none" stroke="red" stroke-width="0.248758" d="M205,-215.741C205,-206.968 205,-192.619 205,-179.754"/>
<polygon fill="red" stroke="red" stroke-width="0.248758" points="208.5,-179.452 205,-169.452 201.5,-179.452 208.5,-179.452"/>
</g>
<!-- 6 -->
<g id="node7" class="node"><title>6</title>
<ellipse fill="lightblue" stroke="lightblue" cx="281" cy="-15" rx="14.2796" ry="14.7"/>
<text text-anchor="middle" x="281" y="-12.8" font-family="Times,serif" font-size="9.00">6</text>
</g>
<!-- 10 -->
<g id="node8" class="node"><title>10</title>
<ellipse fill="none" stroke="black" cx="266" cy="-225" rx="18.0791" ry="18.2703"/>
<text text-anchor="middle" x="266" y="-222.8" font-family="Times,serif" font-size="9.00">10</text>
</g>
<!-- 8 -->
<g id="node9" class="node"><title>8</title>
<ellipse fill="none" stroke="black" cx="281" cy="-151" rx="14.2796" ry="14.7"/>
<text text-anchor="middle" x="281" y="-148.8" font-family="Times,serif" font-size="9.00">8</text>
</g>
<!-- 10&#45;&gt;8 -->
<g id="edge1" class="edge"><title>10&#45;&gt;8</title>
<path fill="none" stroke="green" stroke-width="0.246685" d="M269.555,-206.937C271.509,-197.554 273.964,-185.773 276.098,-175.528"/>
<polygon fill="green" stroke="green" stroke-width="0.246685" points="279.559,-176.078 278.172,-165.574 272.706,-174.65 279.559,-176.078"/>
</g>
<!-- 7 -->
<g id="node10" class="node"><title>7</title>
<ellipse fill="none" stroke="black" cx="281" cy="-81" rx="14.2796" ry="14.7"/>
<text text-anchor="middle" x="281" y="-78.8" font-family="Times,serif" font-size="9.00">7</text>
</g>
<!-- 8&#45;&gt;7 -->
<g id="edge4" class="edge"><title>8&#45;&gt;7</title>
<path fill="none" stroke="green" stroke-width="0.3" d="M281,-135.91C281,-127.34 281,-116.163 281,-106.21"/>
<polygon fill="green" stroke="green" stroke-width="0.3" points="284.5,-106.072 281,-96.0716 277.5,-106.072 284.5,-106.072"/>
</g>
<!-- 7&#45;&gt;6 -->
<g id="edge2" class="edge"><title>7&#45;&gt;6</title>
<path fill="none" stroke="green" stroke-width="0.146814" d="M281,-66.113C281,-58.4811 281,-48.7997 281,-39.9854"/>
<polygon fill="green" stroke="green" stroke-width="0.146814" points="284.5,-39.8599 281,-29.8599 277.5,-39.86 284.5,-39.8599"/>
</g>
<!-- 12 -->
<g id="node12" class="node"><title>12</title>
<ellipse fill="none" stroke="black" cx="321" cy="-225" rx="18.0791" ry="18.2703"/>
<text text-anchor="middle" x="321" y="-222.8" font-family="Times,serif" font-size="9.00">12</text>
</g>
<!-- 12&#45;&gt;8 -->
<g id="edge5" class="edge"><title>12&#45;&gt;8</title>
<path fill="none" stroke="green" stroke-width="0.44255" d="M312.517,-208.731C306.784,-198.411 299.135,-184.643 292.809,-173.255"/>
<polygon fill="green" stroke="green" stroke-width="0.44255" points="295.792,-171.419 287.876,-164.377 289.673,-174.819 295.792,-171.419"/>
</g>
</g>
</svg>
