<?xml version="1.0" encoding="UTF-8" standalone="no"?>
<!DOCTYPE svg PUBLIC "-//W3C//DTD SVG 1.1//EN"
 "http://www.w3.org/Graphics/SVG/1.1/DTD/svg11.dtd">
<!-- Generated by graphviz version 2.36.0 (20140111.2315)
 -->
<!-- Title: %3 Pages: 1 -->
<svg width="333pt" height="326pt"
 viewBox="0.00 0.00 333.00 326.00" xmlns="http://www.w3.org/2000/svg" xmlns:xlink="http://www.w3.org/1999/xlink">
<g id="graph0" class="graph" transform="scale(1 1) rotate(0) translate(4 322)">
<title>%3</title>
<polygon fill="white" stroke="none" points="-4,4 -4,-322 329,-322 329,4 -4,4"/>
<!-- 0 -->
<g id="node1" class="node"><title>0</title>
<polygon fill="lightgrey" stroke="black" points="20.25,-308 -0.25,-308 -0.25,-290 20.25,-290 20.25,-308"/>
<text text-anchor="middle" x="10" y="-296.8" font-family="Times,serif" font-size="9.00">0</text>
</g>
<!-- 1 -->
<g id="node2" class="node"><title>1</title>
<polygon fill="lightgrey" stroke="black" points="59.25,-308 38.75,-308 38.75,-290 59.25,-290 59.25,-308"/>
<text text-anchor="middle" x="49" y="-296.8" font-family="Times,serif" font-size="9.00">1</text>
</g>
<!-- 2 -->
<g id="node3" class="node"><title>2</title>
<polygon fill="lightgrey" stroke="black" points="98.25,-308 77.75,-308 77.75,-290 98.25,-290 98.25,-308"/>
<text text-anchor="middle" x="88" y="-296.8" font-family="Times,serif" font-size="9.00">2</text>
</g>
<!-- 3 -->
<g id="node4" class="node"><title>3</title>
<polygon fill="lightgrey" stroke="black" points="137.25,-308 116.75,-308 116.75,-290 137.25,-290 137.25,-308"/>
<text text-anchor="middle" x="127" y="-296.8" font-family="Times,serif" font-size="9.00">3</text>
</g>
<!-- 4 -->
<g id="node5" class="node"><title>4</title>
<polygon fill="lightgrey" stroke="black" points="176.25,-308 155.75,-308 155.75,-290 176.25,-290 176.25,-308"/>
<text text-anchor="middle" x="166" y="-296.8" font-family="Times,serif" font-size="9.00">4</text>
</g>
<!-- 5 -->
<g id="node6" class="node"><title>5</title>
<polygon fill="lightgrey" stroke="black" points="315.25,-98 294.75,-98 294.75,-80 315.25,-80 315.25,-98"/>
<text text-anchor="middle" x="305" y="-86.8" font-family="Times,serif" font-size="9.00">5</text>
</g>
<!-- 6 -->
<g id="node7" class="node"><title>6</title>
<ellipse fill="lightblue" stroke="lightblue" cx="256" cy="-19" rx="14.2796" ry="14.7"/>
<text text-anchor="middle" x="256" y="-16.8" font-family="Times,serif" font-size="9.00">6</text>
</g>
<!-- 5&#45;&gt;6 -->
<g id="edge3" class="edge"><title>5&#45;&gt;6</title>
<path fill="none" stroke="green" stroke-width="0.471513" stroke-dasharray="1,5" d="M299.187,-79.9325C292.116,-70.1204 279.934,-53.214 270.307,-39.854"/>
<polygon fill="green" stroke="green" stroke-width="0.471513" points="273.114,-37.7638 264.429,-31.6969 267.435,-41.8561 273.114,-37.7638"/>
</g>
<!-- 13 -->
<g id="node12" class="node"><title>13</title>
<ellipse fill="none" stroke="black" cx="307" cy="-19" rx="18.0791" ry="18.2703"/>
<text text-anchor="middle" x="307" y="-16.8" font-family="Times,serif" font-size="9.00">13</text>
</g>
<!-- 5&#45;&gt;13 -->
<g id="edge5" class="edge"><title>5&#45;&gt;13</title>
<path fill="none" stroke="red" stroke-width="0.248758" d="M305.237,-79.9325C305.472,-71.9597 305.844,-59.3029 306.186,-47.6707"/>
<polygon fill="red" stroke="red" stroke-width="0.248758" points="309.691,-47.5385 306.487,-37.4399 302.694,-47.3327 309.691,-47.5385"/>
</g>
<!-- 10 -->
<g id="node8" class="node"><title>10</title>
<ellipse fill="none" stroke="black" cx="213" cy="-299" rx="18.0791" ry="18.2703"/>
<text text-anchor="middle" x="213" y="-296.8" font-family="Times,serif" font-size="9.00">10</text>
</g>
<!-- 8 -->
<g id="node9" class="node"><title>8</title>
<ellipse fill="none" stroke="black" cx="236" cy="-155" rx="14.2796" ry="14.7"/>
<text text-anchor="middle" x="236" y="-152.8" font-family="Times,serif" font-size="9.00">8</text>
</g>
<!-- 10&#45;&gt;8 -->
<g id="edge1" class="edge"><title>10&#45;&gt;8</title>
<path fill="none" stroke="green" stroke-width="0.246685" d="M209.332,-280.743C206.024,-262.027 202.575,-231.42 209,-206 211.663,-195.464 217.033,-184.737 222.288,-175.935"/>
<polygon fill="green" stroke="green" stroke-width="0.246685" points="225.405,-177.557 227.811,-167.239 219.496,-173.804 225.405,-177.557"/>
</g>
<!-- 11 -->
<g id="node10" class="node"><title>11</title>
<ellipse fill="none" stroke="black" cx="236" cy="-225" rx="18.0791" ry="18.2703"/>
<text text-anchor="middle" x="236" y="-222.8" font-family="Times,serif" font-size="9.00">11</text>
</g>
<!-- 10&#45;&gt;11 -->
<g id="edge2" class="edge"><title>10&#45;&gt;11</title>
<path fill="none" stroke="red" stroke-width="0.882067" stroke-dasharray="1,5" d="M218.334,-281.301C221.092,-272.668 224.522,-261.932 227.623,-252.224"/>
<polygon fill="red" stroke="red" stroke-width="0.882067" points="230.985,-253.199 230.694,-242.609 224.317,-251.069 230.985,-253.199"/>
</g>
<!-- 8&#45;&gt;6 -->
<g id="edge8" class="edge"><title>8&#45;&gt;6</title>
<path fill="none" stroke="green" stroke-width="0.373992" stroke-dasharray="1,5" d="M233.863,-140.259C231.777,-124.201 229.513,-96.9053 234,-74 236.166,-62.9402 240.609,-51.2874 244.939,-41.6489"/>
<polygon fill="green" stroke="green" stroke-width="0.373992" points="248.182,-42.9778 249.309,-32.4431 241.859,-39.9756 248.182,-42.9778"/>
</g>
<!-- 7 -->
<g id="node11" class="node"><title>7</title>
<ellipse fill="none" stroke="black" cx="258" cy="-89" rx="14.2796" ry="14.7"/>
<text text-anchor="middle" x="258" y="-86.8" font-family="Times,serif" font-size="9.00">7</text>
</g>
<!-- 8&#45;&gt;7 -->
<g id="edge7" class="edge"><title>8&#45;&gt;7</title>
<path fill="none" stroke="green" stroke-width="0.3" d="M240.558,-140.739C243.331,-132.673 246.947,-122.154 250.167,-112.786"/>
<polygon fill="green" stroke="green" stroke-width="0.3" points="253.506,-113.839 253.447,-103.244 246.887,-111.563 253.506,-113.839"/>
</g>
<!-- 11&#45;&gt;8 -->
<g id="edge6" class="edge"><title>11&#45;&gt;8</title>
<path fill="none" stroke="red" stroke-width="0.201364" stroke-dasharray="1,5" d="M236,-206.488C236,-198.52 236,-188.957 236,-180.307"/>
<polygon fill="red" stroke="red" stroke-width="0.201364" points="239.5,-180.028 236,-170.028 232.5,-180.028 239.5,-180.028"/>
</g>
<!-- 7&#45;&gt;6 -->
<g id="edge4" class="edge"><title>7&#45;&gt;6</title>
<path fill="none" stroke="green" stroke-width="0.146814" d="M257.586,-73.9104C257.334,-65.3398 257.005,-54.1632 256.712,-44.2102"/>
<polygon fill="green" stroke="green" stroke-width="0.146814" points="260.206,-43.9643 256.414,-34.0716 253.209,-44.1702 260.206,-43.9643"/>
</g>
<!-- 12 -->
<g id="node13" class="node"><title>12</title>
<ellipse fill="none" stroke="black" cx="291" cy="-225" rx="18.0791" ry="18.2703"/>
<text text-anchor="middle" x="291" y="-222.8" font-family="Times,serif" font-size="9.00">12</text>
</g>
<!-- 12&#45;&gt;8 -->
<g id="edge9" class="edge"><title>12&#45;&gt;8</title>
<path fill="none" stroke="green" stroke-width="0.44255" d="M279.87,-210.239C271.666,-200.096 260.405,-186.173 251.347,-174.974"/>
<polygon fill="green" stroke="green" stroke-width="0.44255" points="253.946,-172.622 244.936,-167.048 248.504,-177.024 253.946,-172.622"/>
</g>
</g>
</svg>
