<?xml version="1.0" encoding="UTF-8" standalone="no"?>
<!DOCTYPE svg PUBLIC "-//W3C//DTD SVG 1.1//EN"
 "http://www.w3.org/Graphics/SVG/1.1/DTD/svg11.dtd">
<!-- Generated by graphviz version 2.36.0 (20140111.2315)
 -->
<!-- Title: %3 Pages: 1 -->
<svg width="308pt" height="290pt"
 viewBox="0.00 0.00 308.00 290.00" xmlns="http://www.w3.org/2000/svg" xmlns:xlink="http://www.w3.org/1999/xlink">
<g id="graph0" class="graph" transform="scale(1 1) rotate(0) translate(4 286)">
<title>%3</title>
<polygon fill="white" stroke="none" points="-4,4 -4,-286 304,-286 304,4 -4,4"/>
<!-- 0 -->
<g id="node1" class="node"><title>0</title>
<polygon fill="lightgrey" stroke="black" points="20.25,-282 -0.25,-282 -0.25,-264 20.25,-264 20.25,-282"/>
<text text-anchor="middle" x="10" y="-270.8" font-family="Times,serif" font-size="9.00">0</text>
</g>
<!-- 1 -->
<g id="node2" class="node"><title>1</title>
<polygon fill="lightgrey" stroke="black" points="59.25,-282 38.75,-282 38.75,-264 59.25,-264 59.25,-282"/>
<text text-anchor="middle" x="49" y="-270.8" font-family="Times,serif" font-size="9.00">1</text>
</g>
<!-- 2 -->
<g id="node3" class="node"><title>2</title>
<polygon fill="lightgrey" stroke="black" points="98.25,-282 77.75,-282 77.75,-264 98.25,-264 98.25,-282"/>
<text text-anchor="middle" x="88" y="-270.8" font-family="Times,serif" font-size="9.00">2</text>
</g>
<!-- 3 -->
<g id="node4" class="node"><title>3</title>
<polygon fill="lightgrey" stroke="black" points="137.25,-282 116.75,-282 116.75,-264 137.25,-264 137.25,-282"/>
<text text-anchor="middle" x="127" y="-270.8" font-family="Times,serif" font-size="9.00">3</text>
</g>
<!-- 4 -->
<g id="node5" class="node"><title>4</title>
<polygon fill="lightgrey" stroke="black" points="176.25,-282 155.75,-282 155.75,-264 176.25,-264 176.25,-282"/>
<text text-anchor="middle" x="166" y="-270.8" font-family="Times,serif" font-size="9.00">4</text>
</g>
<!-- 5 -->
<g id="node6" class="node"><title>5</title>
<polygon fill="lightgrey" stroke="black" points="215.25,-282 194.75,-282 194.75,-264 215.25,-264 215.25,-282"/>
<text text-anchor="middle" x="205" y="-270.8" font-family="Times,serif" font-size="9.00">5</text>
</g>
<!-- 6 -->
<g id="node7" class="node"><title>6</title>
<ellipse fill="lightblue" stroke="lightblue" cx="196" cy="-15" rx="14.2796" ry="14.7"/>
<text text-anchor="middle" x="196" y="-12.8" font-family="Times,serif" font-size="9.00">6</text>
</g>
<!-- 5&#45;&gt;6 -->
<g id="edge1" class="edge"><title>5&#45;&gt;6</title>
<path fill="none" stroke="green" stroke-width="1.58267" stroke-dasharray="1,5" d="M204.711,-263.772C203.498,-229.264 198.793,-95.4356 196.848,-40.1272"/>
<polygon fill="green" stroke="green" stroke-width="1.58267" points="200.337,-39.743 196.488,-29.8722 193.341,-39.989 200.337,-39.743"/>
</g>
<!-- 7 -->
<g id="node8" class="node"><title>7</title>
<ellipse fill="none" stroke="black" cx="226" cy="-81" rx="14.2796" ry="14.7"/>
<text text-anchor="middle" x="226" y="-78.8" font-family="Times,serif" font-size="9.00">7</text>
</g>
<!-- 5&#45;&gt;7 -->
<g id="edge3" class="edge"><title>5&#45;&gt;7</title>
<path fill="none" stroke="green" stroke-width="0.341505" stroke-dasharray="1,5" d="M205.902,-263.836C208.899,-236.719 218.601,-148.944 223.342,-106.046"/>
<polygon fill="green" stroke="green" stroke-width="0.341505" points="226.84,-106.257 224.46,-95.9326 219.883,-105.488 226.84,-106.257"/>
</g>
<!-- 8 -->
<g id="node9" class="node"><title>8</title>
<ellipse fill="none" stroke="black" cx="248" cy="-213" rx="14.2796" ry="14.7"/>
<text text-anchor="middle" x="248" y="-210.8" font-family="Times,serif" font-size="9.00">8</text>
</g>
<!-- 5&#45;&gt;8 -->
<g id="edge6" class="edge"><title>5&#45;&gt;8</title>
<path fill="none" stroke="green" stroke-width="0.823989" d="M210.979,-263.935C216.82,-256.056 225.934,-243.763 233.658,-233.346"/>
<polygon fill="green" stroke="green" stroke-width="0.823989" points="236.572,-235.292 239.716,-225.174 230.948,-231.123 236.572,-235.292"/>
</g>
<!-- 7&#45;&gt;6 -->
<g id="edge2" class="edge"><title>7&#45;&gt;6</title>
<path fill="none" stroke="green" stroke-width="0.746303" d="M220.073,-67.3557C216.128,-58.9406 210.843,-47.6651 206.23,-37.8231"/>
<polygon fill="green" stroke="green" stroke-width="0.746303" points="209.328,-36.1871 201.915,-28.6181 202.99,-39.1582 209.328,-36.1871"/>
</g>
<!-- 8&#45;&gt;7 -->
<g id="edge5" class="edge"><title>8&#45;&gt;7</title>
<path fill="none" stroke="green" stroke-width="0.406951" stroke-dasharray="1,5" d="M245.646,-198.088C241.924,-176.096 234.636,-133.028 230.058,-105.982"/>
<polygon fill="green" stroke="green" stroke-width="0.406951" points="233.457,-105.088 228.337,-95.8122 226.555,-106.256 233.457,-105.088"/>
</g>
<!-- 9 -->
<g id="node10" class="node"><title>9</title>
<ellipse fill="none" stroke="black" cx="286" cy="-147" rx="14.2796" ry="14.7"/>
<text text-anchor="middle" x="286" y="-144.8" font-family="Times,serif" font-size="9.00">9</text>
</g>
<!-- 8&#45;&gt;9 -->
<g id="edge4" class="edge"><title>8&#45;&gt;9</title>
<path fill="none" stroke="green" stroke-width="0.959296" d="M255.148,-199.962C260.349,-191.202 267.524,-179.118 273.645,-168.808"/>
<polygon fill="green" stroke="green" stroke-width="0.959296" points="276.789,-170.369 278.885,-159.984 270.77,-166.796 276.789,-170.369"/>
</g>
<!-- 9&#45;&gt;7 -->
<g id="edge7" class="edge"><title>9&#45;&gt;7</title>
<path fill="none" stroke="green" stroke-width="0.330034" d="M276.36,-135.717C267.317,-126.071 253.599,-111.439 242.764,-99.8814"/>
<polygon fill="green" stroke="green" stroke-width="0.330034" points="245.208,-97.3714 235.815,-92.4698 240.101,-102.159 245.208,-97.3714"/>
</g>
</g>
</svg>
