<?xml version="1.0" encoding="UTF-8" standalone="no"?>
<!DOCTYPE svg PUBLIC "-//W3C//DTD SVG 1.1//EN"
 "http://www.w3.org/Graphics/SVG/1.1/DTD/svg11.dtd">
<!-- Generated by graphviz version 2.36.0 (20140111.2315)
 -->
<!-- Title: %3 Pages: 1 -->
<svg width="333pt" height="244pt"
 viewBox="0.00 0.00 333.00 244.00" xmlns="http://www.w3.org/2000/svg" xmlns:xlink="http://www.w3.org/1999/xlink">
<g id="graph0" class="graph" transform="scale(1 1) rotate(0) translate(4 240)">
<title>%3</title>
<polygon fill="white" stroke="none" points="-4,4 -4,-240 329,-240 329,4 -4,4"/>
<!-- 0 -->
<g id="node1" class="node"><title>0</title>
<polygon fill="lightgrey" stroke="black" points="20.25,-226 -0.25,-226 -0.25,-208 20.25,-208 20.25,-226"/>
<text text-anchor="middle" x="10" y="-214.8" font-family="Times,serif" font-size="9.00">0</text>
</g>
<!-- 1 -->
<g id="node2" class="node"><title>1</title>
<polygon fill="lightgrey" stroke="black" points="59.25,-226 38.75,-226 38.75,-208 59.25,-208 59.25,-226"/>
<text text-anchor="middle" x="49" y="-214.8" font-family="Times,serif" font-size="9.00">1</text>
</g>
<!-- 2 -->
<g id="node3" class="node"><title>2</title>
<polygon fill="lightgrey" stroke="black" points="98.25,-226 77.75,-226 77.75,-208 98.25,-208 98.25,-226"/>
<text text-anchor="middle" x="88" y="-214.8" font-family="Times,serif" font-size="9.00">2</text>
</g>
<!-- 3 -->
<g id="node4" class="node"><title>3</title>
<polygon fill="lightgrey" stroke="black" points="137.25,-226 116.75,-226 116.75,-208 137.25,-208 137.25,-226"/>
<text text-anchor="middle" x="127" y="-214.8" font-family="Times,serif" font-size="9.00">3</text>
</g>
<!-- 4 -->
<g id="node5" class="node"><title>4</title>
<polygon fill="lightgrey" stroke="black" points="176.25,-226 155.75,-226 155.75,-208 176.25,-208 176.25,-226"/>
<text text-anchor="middle" x="166" y="-214.8" font-family="Times,serif" font-size="9.00">4</text>
</g>
<!-- 5 -->
<g id="node6" class="node"><title>5</title>
<polygon fill="lightgrey" stroke="black" points="215.25,-226 194.75,-226 194.75,-208 215.25,-208 215.25,-226"/>
<text text-anchor="middle" x="205" y="-214.8" font-family="Times,serif" font-size="9.00">5</text>
</g>
<!-- 6 -->
<g id="node7" class="node"><title>6</title>
<ellipse fill="lightblue" stroke="lightblue" cx="279" cy="-15" rx="14.2796" ry="14.7"/>
<text text-anchor="middle" x="279" y="-12.8" font-family="Times,serif" font-size="9.00">6</text>
</g>
<!-- 10 -->
<g id="node8" class="node"><title>10</title>
<ellipse fill="none" stroke="black" cx="252" cy="-217" rx="18.0791" ry="18.2703"/>
<text text-anchor="middle" x="252" y="-214.8" font-family="Times,serif" font-size="9.00">10</text>
</g>
<!-- 8 -->
<g id="node9" class="node"><title>8</title>
<ellipse fill="none" stroke="black" cx="279" cy="-147" rx="14.2796" ry="14.7"/>
<text text-anchor="middle" x="279" y="-144.8" font-family="Times,serif" font-size="9.00">8</text>
</g>
<!-- 10&#45;&gt;8 -->
<g id="edge1" class="edge"><title>10&#45;&gt;8</title>
<path fill="none" stroke="green" stroke-width="0.246685" d="M258.536,-199.539C261.974,-190.879 266.243,-180.129 269.99,-170.691"/>
<polygon fill="green" stroke="green" stroke-width="0.246685" points="273.351,-171.712 273.788,-161.126 266.845,-169.129 273.351,-171.712"/>
</g>
<!-- 7 -->
<g id="node10" class="node"><title>7</title>
<ellipse fill="none" stroke="black" cx="279" cy="-81" rx="14.2796" ry="14.7"/>
<text text-anchor="middle" x="279" y="-78.8" font-family="Times,serif" font-size="9.00">7</text>
</g>
<!-- 8&#45;&gt;7 -->
<g id="edge3" class="edge"><title>8&#45;&gt;7</title>
<path fill="none" stroke="green" stroke-width="0.3" d="M279,-132.113C279,-124.481 279,-114.8 279,-105.985"/>
<polygon fill="green" stroke="green" stroke-width="0.3" points="282.5,-105.86 279,-95.8599 275.5,-105.86 282.5,-105.86"/>
</g>
<!-- 7&#45;&gt;6 -->
<g id="edge2" class="edge"><title>7&#45;&gt;6</title>
<path fill="none" stroke="green" stroke-width="0.146814" d="M279,-66.113C279,-58.4811 279,-48.7997 279,-39.9854"/>
<polygon fill="green" stroke="green" stroke-width="0.146814" points="282.5,-39.8599 279,-29.8599 275.5,-39.86 282.5,-39.8599"/>
</g>
<!-- 12 -->
<g id="node11" class="node"><title>12</title>
<ellipse fill="none" stroke="black" cx="307" cy="-217" rx="18.0791" ry="18.2703"/>
<text text-anchor="middle" x="307" y="-214.8" font-family="Times,serif" font-size="9.00">12</text>
</g>
<!-- 12&#45;&gt;8 -->
<g id="edge4" class="edge"><title>12&#45;&gt;8</title>
<path fill="none" stroke="green" stroke-width="0.44255" d="M300.222,-199.539C296.618,-190.787 292.136,-179.901 288.22,-170.391"/>
<polygon fill="green" stroke="green" stroke-width="0.44255" points="291.449,-169.04 284.405,-161.126 284.976,-171.706 291.449,-169.04"/>
</g>
</g>
</svg>
