<?xml version="1.0" encoding="UTF-8" standalone="no"?>
<!DOCTYPE svg PUBLIC "-//W3C//DTD SVG 1.1//EN"
 "http://www.w3.org/Graphics/SVG/1.1/DTD/svg11.dtd">
<!-- Generated by graphviz version 2.36.0 (20140111.2315)
 -->
<!-- Title: %3 Pages: 1 -->
<svg width="461pt" height="240pt"
 viewBox="0.00 0.00 460.76 240.00" xmlns="http://www.w3.org/2000/svg" xmlns:xlink="http://www.w3.org/1999/xlink">
<g id="graph0" class="graph" transform="scale(1 1) rotate(0) translate(4 236)">
<title>%3</title>
<polygon fill="white" stroke="none" points="-4,4 -4,-236 456.763,-236 456.763,4 -4,4"/>
<!-- 0 -->
<g id="node1" class="node"><title>0</title>
<polygon fill="lightgrey" stroke="black" points="20.25,-168 -0.25,-168 -0.25,-150 20.25,-150 20.25,-168"/>
<text text-anchor="middle" x="10" y="-156.8" font-family="Times,serif" font-size="9.00">0</text>
</g>
<!-- 8 -->
<g id="node9" class="node"><title>8</title>
<ellipse fill="none" stroke="black" cx="100" cy="-85" rx="14.2796" ry="14.7"/>
<text text-anchor="middle" x="100" y="-82.8" font-family="Times,serif" font-size="9.00">8</text>
</g>
<!-- 0&#45;&gt;8 -->
<g id="edge15" class="edge"><title>0&#45;&gt;8</title>
<path fill="none" stroke="green" stroke-width="0.675014" d="M20.3241,-149.741C35.0721,-137.942 62.4284,-116.057 80.9216,-101.263"/>
<polygon fill="green" stroke="green" stroke-width="0.675014" points="83.3335,-103.815 88.9558,-94.8354 78.9606,-98.3493 83.3335,-103.815"/>
</g>
<!-- 1 -->
<g id="node2" class="node"><title>1</title>
<polygon fill="lightgrey" stroke="black" points="186.25,-232 165.75,-232 165.75,-214 186.25,-214 186.25,-232"/>
<text text-anchor="middle" x="176" y="-220.8" font-family="Times,serif" font-size="9.00">1</text>
</g>
<!-- 6 -->
<g id="node7" class="node"><title>6</title>
<ellipse fill="lightblue" stroke="lightblue" cx="235" cy="-15" rx="14.2796" ry="14.7"/>
<text text-anchor="middle" x="235" y="-12.8" font-family="Times,serif" font-size="9.00">6</text>
</g>
<!-- 1&#45;&gt;6 -->
<g id="edge6" class="edge"><title>1&#45;&gt;6</title>
<path fill="none" stroke="red" stroke-width="0.920978" d="M186.552,-221.548C211.98,-219.915 277.388,-212.41 316,-178 342.884,-154.041 341.502,-139.222 349,-104 352.516,-87.4812 358.238,-80.1386 349,-66 329.173,-35.653 286.387,-23.6083 259.24,-18.9102"/>
<polygon fill="red" stroke="red" stroke-width="0.920978" points="259.76,-15.449 249.346,-17.402 258.705,-22.3691 259.76,-15.449"/>
</g>
<!-- 7 -->
<g id="node8" class="node"><title>7</title>
<ellipse fill="none" stroke="black" cx="278" cy="-85" rx="14.2796" ry="14.7"/>
<text text-anchor="middle" x="278" y="-82.8" font-family="Times,serif" font-size="9.00">7</text>
</g>
<!-- 1&#45;&gt;7 -->
<g id="edge24" class="edge"><title>1&#45;&gt;7</title>
<path fill="none" stroke="green" stroke-width="0.390641" d="M186.553,-216.837C200.085,-209.75 223.526,-195.831 238,-178 254.562,-157.597 265.496,-129.286 271.683,-109.476"/>
<polygon fill="green" stroke="green" stroke-width="0.390641" points="275.09,-110.296 274.564,-99.7143 268.377,-108.315 275.09,-110.296"/>
</g>
<!-- 1&#45;&gt;8 -->
<g id="edge23" class="edge"><title>1&#45;&gt;8</title>
<path fill="none" stroke="green" stroke-width="0.820213" d="M165.665,-221.4C143.272,-219.477 90.4815,-211.435 68,-178 52.6163,-155.121 69.8046,-124.071 84.3177,-104.535"/>
<polygon fill="green" stroke="green" stroke-width="0.820213" points="87.2501,-106.468 90.671,-96.4407 81.7436,-102.146 87.2501,-106.468"/>
</g>
<!-- 12 -->
<g id="node13" class="node"><title>12</title>
<ellipse fill="none" stroke="black" cx="95" cy="-159" rx="18.0791" ry="18.2703"/>
<text text-anchor="middle" x="95" y="-156.8" font-family="Times,serif" font-size="9.00">12</text>
</g>
<!-- 1&#45;&gt;12 -->
<g id="edge20" class="edge"><title>1&#45;&gt;12</title>
<path fill="none" stroke="green" stroke-width="0.27046" d="M165.741,-214.148C153.673,-204.91 133.28,-189.301 117.482,-177.208"/>
<polygon fill="green" stroke="green" stroke-width="0.27046" points="119.328,-174.214 109.26,-170.915 115.073,-179.772 119.328,-174.214"/>
</g>
<!-- 2 -->
<g id="node3" class="node"><title>2</title>
<polygon fill="lightgrey" stroke="black" points="307.25,-168 286.75,-168 286.75,-150 307.25,-150 307.25,-168"/>
<text text-anchor="middle" x="297" y="-156.8" font-family="Times,serif" font-size="9.00">2</text>
</g>
<!-- 2&#45;&gt;7 -->
<g id="edge17" class="edge"><title>2&#45;&gt;7</title>
<path fill="none" stroke="green" stroke-width="0.591565" d="M294.82,-149.741C292.242,-139.968 287.837,-123.276 284.182,-109.425"/>
<polygon fill="green" stroke="green" stroke-width="0.591565" points="287.511,-108.324 281.575,-99.5479 280.743,-110.11 287.511,-108.324"/>
</g>
<!-- 10 -->
<g id="node10" class="node"><title>10</title>
<ellipse fill="none" stroke="black" cx="189" cy="-85" rx="18.0791" ry="18.2703"/>
<text text-anchor="middle" x="189" y="-82.8" font-family="Times,serif" font-size="9.00">10</text>
</g>
<!-- 2&#45;&gt;10 -->
<g id="edge14" class="edge"><title>2&#45;&gt;10</title>
<path fill="none" stroke="red" stroke-width="0.538969" d="M286.645,-151.096C269.679,-139.786 235.546,-117.031 212.478,-101.652"/>
<polygon fill="red" stroke="red" stroke-width="0.538969" points="214.204,-98.5965 203.942,-95.9617 210.322,-104.421 214.204,-98.5965"/>
</g>
<!-- 9 -->
<g id="node12" class="node"><title>9</title>
<ellipse fill="none" stroke="black" cx="326" cy="-85" rx="14.2796" ry="14.7"/>
<text text-anchor="middle" x="326" y="-82.8" font-family="Times,serif" font-size="9.00">9</text>
</g>
<!-- 2&#45;&gt;9 -->
<g id="edge10" class="edge"><title>2&#45;&gt;9</title>
<path fill="none" stroke="red" stroke-width="0.459237" d="M300.327,-149.741C304.349,-139.754 311.283,-122.539 316.931,-108.516"/>
<polygon fill="red" stroke="red" stroke-width="0.459237" points="320.267,-109.601 320.757,-99.0178 313.774,-106.986 320.267,-109.601"/>
</g>
<!-- 3 -->
<g id="node4" class="node"><title>3</title>
<polygon fill="lightgrey" stroke="black" points="388.25,-232 367.75,-232 367.75,-214 388.25,-214 388.25,-232"/>
<text text-anchor="middle" x="378" y="-220.8" font-family="Times,serif" font-size="9.00">3</text>
</g>
<!-- 3&#45;&gt;6 -->
<g id="edge11" class="edge"><title>3&#45;&gt;6</title>
<path fill="none" stroke="green" stroke-width="1.01472" d="M388.321,-218.956C404.284,-213.624 434.431,-200.922 447,-178 455.12,-163.191 453.814,-155.453 447,-140 413.336,-63.6476 307.251,-31.5668 259.143,-20.6898"/>
<polygon fill="green" stroke="green" stroke-width="1.01472" points="259.79,-17.2492 249.279,-18.5758 258.323,-24.0937 259.79,-17.2492"/>
</g>
<!-- 3&#45;&gt;7 -->
<g id="edge7" class="edge"><title>3&#45;&gt;7</title>
<path fill="none" stroke="red" stroke-width="0.452952" d="M372.044,-213.9C356.583,-192.873 314.824,-136.081 292.515,-105.74"/>
<polygon fill="red" stroke="red" stroke-width="0.452952" points="295.264,-103.571 286.521,-97.5879 289.625,-107.718 295.264,-103.571"/>
</g>
<!-- 3&#45;&gt;8 -->
<g id="edge22" class="edge"><title>3&#45;&gt;8</title>
<path fill="none" stroke="red" stroke-width="0.104028" d="M367.375,-222.6C333.78,-223.969 228.06,-224.166 160,-178 134.933,-160.997 117.873,-129.674 108.535,-108.348"/>
<polygon fill="red" stroke="red" stroke-width="0.104028" points="111.747,-106.956 104.678,-99.0645 105.283,-109.642 111.747,-106.956"/>
</g>
<!-- 11 -->
<g id="node11" class="node"><title>11</title>
<ellipse fill="none" stroke="black" cx="420" cy="-159" rx="18.0791" ry="18.2703"/>
<text text-anchor="middle" x="420" y="-156.8" font-family="Times,serif" font-size="9.00">11</text>
</g>
<!-- 3&#45;&gt;11 -->
<g id="edge5" class="edge"><title>3&#45;&gt;11</title>
<path fill="none" stroke="red" stroke-width="0.873057" d="M383.491,-213.895C388.825,-206.021 397.174,-193.695 404.543,-182.817"/>
<polygon fill="red" stroke="red" stroke-width="0.873057" points="407.455,-184.759 410.166,-174.517 401.66,-180.833 407.455,-184.759"/>
</g>
<!-- 4 -->
<g id="node5" class="node"><title>4</title>
<polygon fill="lightgrey" stroke="black" points="229.25,-168 208.75,-168 208.75,-150 229.25,-150 229.25,-168"/>
<text text-anchor="middle" x="219" y="-156.8" font-family="Times,serif" font-size="9.00">4</text>
</g>
<!-- 4&#45;&gt;6 -->
<g id="edge19" class="edge"><title>4&#45;&gt;6</title>
<path fill="none" stroke="red" stroke-width="0.414949" d="M219.906,-149.959C222.258,-129.085 228.63,-72.5368 232.299,-39.9728"/>
<polygon fill="red" stroke="red" stroke-width="0.414949" points="235.788,-40.264 233.43,-29.935 228.832,-39.4802 235.788,-40.264"/>
</g>
<!-- 4&#45;&gt;7 -->
<g id="edge1" class="edge"><title>4&#45;&gt;7</title>
<path fill="none" stroke="red" stroke-width="1.05333" d="M225.768,-149.741C234.675,-138.872 250.595,-119.443 262.526,-104.883"/>
<polygon fill="red" stroke="red" stroke-width="1.05333" points="265.376,-106.928 269.007,-96.9744 259.962,-102.491 265.376,-106.928"/>
</g>
<!-- 4&#45;&gt;8 -->
<g id="edge2" class="edge"><title>4&#45;&gt;8</title>
<path fill="none" stroke="green" stroke-width="0.250862" d="M210.804,-149.831C207.321,-146.574 203.118,-142.915 199,-140 174.146,-122.403 142.945,-106.254 122.287,-96.2901"/>
<polygon fill="green" stroke="green" stroke-width="0.250862" points="123.601,-93.0398 113.066,-91.9163 120.601,-99.3643 123.601,-93.0398"/>
</g>
<!-- 4&#45;&gt;9 -->
<g id="edge9" class="edge"><title>4&#45;&gt;9</title>
<path fill="none" stroke="green" stroke-width="0.115424" d="M229.448,-151.318C245.121,-141.249 275.592,-121.502 301,-104 302.652,-102.862 304.356,-101.672 306.062,-100.468"/>
<polygon fill="green" stroke="green" stroke-width="0.115424" points="308.272,-103.19 314.37,-94.5262 304.2,-97.4963 308.272,-103.19"/>
</g>
<!-- 5 -->
<g id="node6" class="node"><title>5</title>
<polygon fill="lightgrey" stroke="black" points="190.25,-168 169.75,-168 169.75,-150 190.25,-150 190.25,-168"/>
<text text-anchor="middle" x="180" y="-156.8" font-family="Times,serif" font-size="9.00">5</text>
</g>
<!-- 5&#45;&gt;6 -->
<g id="edge3" class="edge"><title>5&#45;&gt;6</title>
<path fill="none" stroke="red" stroke-width="0.102261" d="M175.046,-149.858C165.579,-133.156 147.125,-94.2184 162,-66 172.479,-46.1209 194.82,-32.634 212.044,-24.7252"/>
<polygon fill="red" stroke="red" stroke-width="0.102261" points="213.64,-27.8495 221.465,-20.7071 210.894,-21.4107 213.64,-27.8495"/>
</g>
<!-- 5&#45;&gt;7 -->
<g id="edge21" class="edge"><title>5&#45;&gt;7</title>
<path fill="none" stroke="red" stroke-width="0.29497" d="M187.879,-149.998C191.203,-146.767 195.181,-143.082 199,-140 217.805,-124.825 240.744,-109.461 257.049,-99.0226"/>
<polygon fill="red" stroke="red" stroke-width="0.29497" points="259.222,-101.789 265.8,-93.4842 255.479,-95.8741 259.222,-101.789"/>
</g>
<!-- 5&#45;&gt;8 -->
<g id="edge8" class="edge"><title>5&#45;&gt;8</title>
<path fill="none" stroke="green" stroke-width="0.438268" d="M170.823,-149.741C158.101,-138.291 134.825,-117.343 118.437,-102.593"/>
<polygon fill="green" stroke="green" stroke-width="0.438268" points="120.362,-99.6167 110.587,-95.5285 115.679,-104.82 120.362,-99.6167"/>
</g>
<!-- 5&#45;&gt;10 -->
<g id="edge18" class="edge"><title>5&#45;&gt;10</title>
<path fill="none" stroke="green" stroke-width="1.1" d="M181.032,-149.741C182.129,-140.968 183.923,-126.619 185.531,-113.754"/>
<polygon fill="green" stroke="green" stroke-width="1.1" points="189.051,-113.809 186.818,-103.452 182.105,-112.941 189.051,-113.809"/>
</g>
<!-- 8&#45;&gt;6 -->
<g id="edge12" class="edge"><title>8&#45;&gt;6</title>
<path fill="none" stroke="red" stroke-width="1.04926" d="M111.951,-76.1529C117.114,-72.8756 123.274,-69.1143 129,-66 157.239,-50.6419 190.992,-35.1978 212.7,-25.6226"/>
<polygon fill="red" stroke="red" stroke-width="1.04926" points="214.278,-28.7526 222.037,-21.5386 211.473,-22.3392 214.278,-28.7526"/>
</g>
<!-- 10&#45;&gt;6 -->
<g id="edge4" class="edge"><title>10&#45;&gt;6</title>
<path fill="none" stroke="green" stroke-width="0.344086" d="M198.981,-69.245C205.587,-59.4797 214.33,-46.5562 221.547,-35.887"/>
<polygon fill="green" stroke="green" stroke-width="0.344086" points="224.467,-37.8177 227.171,-27.5738 218.669,-33.8955 224.467,-37.8177"/>
</g>
<!-- 11&#45;&gt;9 -->
<g id="edge13" class="edge"><title>11&#45;&gt;9</title>
<path fill="none" stroke="red" stroke-width="0.165003" d="M405.723,-147.065C389.569,-134.691 363.176,-114.475 345.22,-100.722"/>
<polygon fill="red" stroke="red" stroke-width="0.165003" points="347.232,-97.8543 337.165,-94.5521 342.976,-103.411 347.232,-97.8543"/>
</g>
<!-- 9&#45;&gt;6 -->
<g id="edge16" class="edge"><title>9&#45;&gt;6</title>
<path fill="none" stroke="red" stroke-width="0.234852" d="M314.475,-75.3878C299.432,-64.147 272.879,-44.3049 254.634,-30.6715"/>
<polygon fill="red" stroke="red" stroke-width="0.234852" points="256.537,-27.7246 246.432,-24.5423 252.347,-33.332 256.537,-27.7246"/>
</g>
<!-- 12&#45;&gt;8 -->
<g id="edge25" class="edge"><title>12&#45;&gt;8</title>
<path fill="none" stroke="green" stroke-width="0.220916" d="M96.2104,-140.571C96.8471,-131.402 97.6375,-120.019 98.3315,-110.026"/>
<polygon fill="green" stroke="green" stroke-width="0.220916" points="101.834,-110.117 99.0348,-99.8983 94.8504,-109.632 101.834,-110.117"/>
</g>
</g>
</svg>
