<?xml version="1.0" encoding="UTF-8" standalone="no"?>
<!DOCTYPE svg PUBLIC "-//W3C//DTD SVG 1.1//EN"
 "http://www.w3.org/Graphics/SVG/1.1/DTD/svg11.dtd">
<!-- Generated by graphviz version 2.36.0 (20140111.2315)
 -->
<!-- Title: %3 Pages: 1 -->
<svg width="227pt" height="290pt"
 viewBox="0.00 0.00 227.00 290.00" xmlns="http://www.w3.org/2000/svg" xmlns:xlink="http://www.w3.org/1999/xlink">
<g id="graph0" class="graph" transform="scale(1 1) rotate(0) translate(4 286)">
<title>%3</title>
<polygon fill="white" stroke="none" points="-4,4 -4,-286 223,-286 223,4 -4,4"/>
<!-- 0 -->
<g id="node1" class="node"><title>0</title>
<polygon fill="lightgrey" stroke="black" points="20.25,-282 -0.25,-282 -0.25,-264 20.25,-264 20.25,-282"/>
<text text-anchor="middle" x="10" y="-270.8" font-family="Times,serif" font-size="9.00">0</text>
</g>
<!-- 1 -->
<g id="node2" class="node"><title>1</title>
<polygon fill="lightgrey" stroke="black" points="59.25,-282 38.75,-282 38.75,-264 59.25,-264 59.25,-282"/>
<text text-anchor="middle" x="49" y="-270.8" font-family="Times,serif" font-size="9.00">1</text>
</g>
<!-- 2 -->
<g id="node3" class="node"><title>2</title>
<polygon fill="lightgrey" stroke="black" points="98.25,-282 77.75,-282 77.75,-264 98.25,-264 98.25,-282"/>
<text text-anchor="middle" x="88" y="-270.8" font-family="Times,serif" font-size="9.00">2</text>
</g>
<!-- 3 -->
<g id="node4" class="node"><title>3</title>
<polygon fill="lightgrey" stroke="black" points="137.25,-282 116.75,-282 116.75,-264 137.25,-264 137.25,-282"/>
<text text-anchor="middle" x="127" y="-270.8" font-family="Times,serif" font-size="9.00">3</text>
</g>
<!-- 4 -->
<g id="node5" class="node"><title>4</title>
<polygon fill="lightgrey" stroke="black" points="176.25,-282 155.75,-282 155.75,-264 176.25,-264 176.25,-282"/>
<text text-anchor="middle" x="166" y="-270.8" font-family="Times,serif" font-size="9.00">4</text>
</g>
<!-- 5 -->
<g id="node6" class="node"><title>5</title>
<polygon fill="lightgrey" stroke="black" points="215.25,-282 194.75,-282 194.75,-264 215.25,-264 215.25,-282"/>
<text text-anchor="middle" x="205" y="-270.8" font-family="Times,serif" font-size="9.00">5</text>
</g>
<!-- 8 -->
<g id="node9" class="node"><title>8</title>
<ellipse fill="none" stroke="black" cx="205" cy="-213" rx="14.2796" ry="14.7"/>
<text text-anchor="middle" x="205" y="-210.8" font-family="Times,serif" font-size="9.00">8</text>
</g>
<!-- 5&#45;&gt;8 -->
<g id="edge3" class="edge"><title>5&#45;&gt;8</title>
<path fill="none" stroke="green" stroke-width="0.823989" d="M205,-263.935C205,-257.313 205,-247.572 205,-238.448"/>
<polygon fill="green" stroke="green" stroke-width="0.823989" points="208.5,-238.244 205,-228.244 201.5,-238.244 208.5,-238.244"/>
</g>
<!-- 6 -->
<g id="node7" class="node"><title>6</title>
<ellipse fill="lightblue" stroke="lightblue" cx="205" cy="-15" rx="14.2796" ry="14.7"/>
<text text-anchor="middle" x="205" y="-12.8" font-family="Times,serif" font-size="9.00">6</text>
</g>
<!-- 7 -->
<g id="node8" class="node"><title>7</title>
<ellipse fill="none" stroke="black" cx="205" cy="-81" rx="14.2796" ry="14.7"/>
<text text-anchor="middle" x="205" y="-78.8" font-family="Times,serif" font-size="9.00">7</text>
</g>
<!-- 7&#45;&gt;6 -->
<g id="edge1" class="edge"><title>7&#45;&gt;6</title>
<path fill="none" stroke="green" stroke-width="0.746303" d="M205,-66.113C205,-58.4811 205,-48.7997 205,-39.9854"/>
<polygon fill="green" stroke="green" stroke-width="0.746303" points="208.5,-39.8599 205,-29.8599 201.5,-39.86 208.5,-39.8599"/>
</g>
<!-- 9 -->
<g id="node10" class="node"><title>9</title>
<ellipse fill="none" stroke="black" cx="205" cy="-147" rx="14.2796" ry="14.7"/>
<text text-anchor="middle" x="205" y="-144.8" font-family="Times,serif" font-size="9.00">9</text>
</g>
<!-- 8&#45;&gt;9 -->
<g id="edge2" class="edge"><title>8&#45;&gt;9</title>
<path fill="none" stroke="green" stroke-width="0.959296" d="M205,-198.113C205,-190.481 205,-180.8 205,-171.985"/>
<polygon fill="green" stroke="green" stroke-width="0.959296" points="208.5,-171.86 205,-161.86 201.5,-171.86 208.5,-171.86"/>
</g>
<!-- 9&#45;&gt;7 -->
<g id="edge4" class="edge"><title>9&#45;&gt;7</title>
<path fill="none" stroke="green" stroke-width="0.330034" d="M205,-132.113C205,-124.481 205,-114.8 205,-105.985"/>
<polygon fill="green" stroke="green" stroke-width="0.330034" points="208.5,-105.86 205,-95.8599 201.5,-105.86 208.5,-105.86"/>
</g>
</g>
</svg>
