<?xml version="1.0" encoding="UTF-8" standalone="no"?>
<!DOCTYPE svg PUBLIC "-//W3C//DTD SVG 1.1//EN"
 "http://www.w3.org/Graphics/SVG/1.1/DTD/svg11.dtd">
<!-- Generated by graphviz version 2.36.0 (20140111.2315)
 -->
<!-- Title: %3 Pages: 1 -->
<svg width="227pt" height="158pt"
 viewBox="0.00 0.00 226.65 158.00" xmlns="http://www.w3.org/2000/svg" xmlns:xlink="http://www.w3.org/1999/xlink">
<g id="graph0" class="graph" transform="scale(1 1) rotate(0) translate(4 154)">
<title>%3</title>
<polygon fill="white" stroke="none" points="-4,4 -4,-154 222.645,-154 222.645,4 -4,4"/>
<!-- 0 -->
<g id="node1" class="node"><title>0</title>
<polygon fill="lightgrey" stroke="black" points="20.25,-150 -0.25,-150 -0.25,-132 20.25,-132 20.25,-150"/>
<text text-anchor="middle" x="10" y="-138.8" font-family="Times,serif" font-size="9.00">0</text>
</g>
<!-- 6 -->
<g id="node7" class="node"><title>6</title>
<ellipse fill="lightblue" stroke="lightblue" cx="108" cy="-15" rx="14.2796" ry="14.7"/>
<text text-anchor="middle" x="108" y="-12.8" font-family="Times,serif" font-size="9.00">6</text>
</g>
<!-- 0&#45;&gt;6 -->
<g id="edge24" class="edge"><title>0&#45;&gt;6</title>
<path fill="none" stroke="green" stroke-width="0.353728" d="M8.90152,-131.85C7.38104,-117.286 6.20987,-86.4095 20,-66 35.1483,-43.5804 63.9119,-30.0414 84.4309,-22.8112"/>
<polygon fill="green" stroke="green" stroke-width="0.353728" points="85.6034,-26.1102 94.0194,-19.6744 83.4268,-19.4572 85.6034,-26.1102"/>
</g>
<!-- 9 -->
<g id="node8" class="node"><title>9</title>
<ellipse fill="none" stroke="black" cx="60" cy="-81" rx="14.2796" ry="14.7"/>
<text text-anchor="middle" x="60" y="-78.8" font-family="Times,serif" font-size="9.00">9</text>
</g>
<!-- 0&#45;&gt;9 -->
<g id="edge27" class="edge"><title>0&#45;&gt;9</title>
<path fill="none" stroke="red" stroke-width="0.158353" d="M16.9523,-131.935C23.9658,-123.8 35.0372,-110.957 44.1955,-100.333"/>
<polygon fill="red" stroke="red" stroke-width="0.158353" points="46.8487,-102.616 50.7272,-92.7565 41.5468,-98.0453 46.8487,-102.616"/>
</g>
<!-- 7 -->
<g id="node9" class="node"><title>7</title>
<ellipse fill="none" stroke="black" cx="108" cy="-81" rx="14.2796" ry="14.7"/>
<text text-anchor="middle" x="108" y="-78.8" font-family="Times,serif" font-size="9.00">7</text>
</g>
<!-- 0&#45;&gt;7 -->
<g id="edge6" class="edge"><title>0&#45;&gt;7</title>
<path fill="none" stroke="red" stroke-width="0.690367" d="M20.4877,-133.793C36.331,-124.416 66.6853,-106.452 87.1411,-94.3451"/>
<polygon fill="red" stroke="red" stroke-width="0.690367" points="88.9324,-97.352 95.7555,-89.2467 85.3671,-91.328 88.9324,-97.352"/>
</g>
<!-- 8 -->
<g id="node10" class="node"><title>8</title>
<ellipse fill="none" stroke="black" cx="156" cy="-81" rx="14.2796" ry="14.7"/>
<text text-anchor="middle" x="156" y="-78.8" font-family="Times,serif" font-size="9.00">8</text>
</g>
<!-- 0&#45;&gt;8 -->
<g id="edge18" class="edge"><title>0&#45;&gt;8</title>
<path fill="none" stroke="red" stroke-width="0.168355" d="M20.408,-135.487C23.1863,-134.318 26.1958,-133.084 29,-132 73.8397,-114.665 87.2005,-115.817 131,-96 132.36,-95.3848 133.744,-94.7216 135.128,-94.0299"/>
<polygon fill="red" stroke="red" stroke-width="0.168355" points="136.853,-97.0766 144.009,-89.2634 133.543,-90.9089 136.853,-97.0766"/>
</g>
<!-- 1 -->
<g id="node2" class="node"><title>1</title>
<polygon fill="lightgrey" stroke="black" points="59.25,-150 38.75,-150 38.75,-132 59.25,-132 59.25,-150"/>
<text text-anchor="middle" x="49" y="-138.8" font-family="Times,serif" font-size="9.00">1</text>
</g>
<!-- 1&#45;&gt;6 -->
<g id="edge7" class="edge"><title>1&#45;&gt;6</title>
<path fill="none" stroke="red" stroke-width="0.502107" d="M42.7659,-131.758C32.8597,-117.575 15.8292,-87.9592 28,-66 39.9797,-44.3856 65.6282,-30.8809 84.6715,-23.4347"/>
<polygon fill="red" stroke="red" stroke-width="0.502107" points="85.9681,-26.6877 94.1814,-19.9951 83.5872,-20.105 85.9681,-26.6877"/>
</g>
<!-- 1&#45;&gt;9 -->
<g id="edge17" class="edge"><title>1&#45;&gt;9</title>
<path fill="none" stroke="green" stroke-width="0.313187" d="M50.5295,-131.935C51.8162,-125.151 53.7238,-115.093 55.4904,-105.778"/>
<polygon fill="green" stroke="green" stroke-width="0.313187" points="58.9597,-106.268 57.3844,-95.7912 52.0823,-104.964 58.9597,-106.268"/>
</g>
<!-- 1&#45;&gt;7 -->
<g id="edge26" class="edge"><title>1&#45;&gt;7</title>
<path fill="none" stroke="green" stroke-width="0.213041" d="M57.2037,-131.935C65.7646,-123.519 79.4492,-110.067 90.4587,-99.244"/>
<polygon fill="green" stroke="green" stroke-width="0.213041" points="93.2134,-101.444 97.8911,-91.9376 88.3062,-96.452 93.2134,-101.444"/>
</g>
<!-- 1&#45;&gt;8 -->
<g id="edge25" class="edge"><title>1&#45;&gt;8</title>
<path fill="none" stroke="green" stroke-width="0.258807" d="M59.3879,-134.503C74.9842,-126.232 105.358,-110.058 131,-96 132.153,-95.3678 133.335,-94.7168 134.527,-94.0578"/>
<polygon fill="green" stroke="green" stroke-width="0.258807" points="136.531,-96.9478 143.563,-89.0229 133.123,-90.833 136.531,-96.9478"/>
</g>
<!-- 2 -->
<g id="node3" class="node"><title>2</title>
<polygon fill="lightgrey" stroke="black" points="98.25,-150 77.75,-150 77.75,-132 98.25,-132 98.25,-150"/>
<text text-anchor="middle" x="88" y="-138.8" font-family="Times,serif" font-size="9.00">2</text>
</g>
<!-- 2&#45;&gt;6 -->
<g id="edge15" class="edge"><title>2&#45;&gt;6</title>
<path fill="none" stroke="red" stroke-width="0.11658" d="M77.6425,-134.857C65.09,-127.972 44.5583,-114.453 36,-96 30.39,-83.9043 29.8204,-77.8149 36,-66 46.3182,-46.2725 68.3551,-32.7639 85.3484,-24.8087"/>
<polygon fill="red" stroke="red" stroke-width="0.11658" points="86.8726,-27.9625 94.6442,-20.7615 84.0783,-21.5444 86.8726,-27.9625"/>
</g>
<!-- 2&#45;&gt;9 -->
<g id="edge11" class="edge"><title>2&#45;&gt;9</title>
<path fill="none" stroke="green" stroke-width="0.149789" d="M84.1067,-131.935C80.6356,-124.745 75.3895,-113.878 70.6767,-104.116"/>
<polygon fill="green" stroke="green" stroke-width="0.149789" points="73.7266,-102.383 66.2271,-94.8991 67.4228,-105.426 73.7266,-102.383"/>
</g>
<!-- 2&#45;&gt;7 -->
<g id="edge20" class="edge"><title>2&#45;&gt;7</title>
<path fill="none" stroke="green" stroke-width="0.324686" d="M90.7809,-131.935C93.2026,-124.912 96.8338,-114.382 100.138,-104.799"/>
<polygon fill="green" stroke="green" stroke-width="0.324686" points="103.448,-105.937 103.399,-95.3428 96.8303,-103.656 103.448,-105.937"/>
</g>
<!-- 2&#45;&gt;8 -->
<g id="edge5" class="edge"><title>2&#45;&gt;8</title>
<path fill="none" stroke="green" stroke-width="0.429068" d="M97.4551,-131.935C107.753,-123.152 124.483,-108.882 137.428,-97.8411"/>
<polygon fill="green" stroke="green" stroke-width="0.429068" points="139.944,-100.295 145.281,-91.1423 135.402,-94.9689 139.944,-100.295"/>
</g>
<!-- 3 -->
<g id="node4" class="node"><title>3</title>
<polygon fill="lightgrey" stroke="black" points="137.25,-150 116.75,-150 116.75,-132 137.25,-132 137.25,-150"/>
<text text-anchor="middle" x="127" y="-138.8" font-family="Times,serif" font-size="9.00">3</text>
</g>
<!-- 3&#45;&gt;6 -->
<g id="edge13" class="edge"><title>3&#45;&gt;6</title>
<path fill="none" stroke="green" stroke-width="0.146342" d="M137.357,-134.857C149.91,-127.972 170.442,-114.453 179,-96 184.61,-83.9043 185.141,-77.8351 179,-66 168.901,-46.5353 147.357,-33.0482 130.634,-25.0296"/>
<polygon fill="green" stroke="green" stroke-width="0.146342" points="132.027,-21.8182 121.468,-20.9365 129.172,-28.2099 132.027,-21.8182"/>
</g>
<!-- 3&#45;&gt;9 -->
<g id="edge16" class="edge"><title>3&#45;&gt;9</title>
<path fill="none" stroke="green" stroke-width="0.146426" d="M117.684,-131.935C107.537,-123.152 91.0531,-108.882 78.2992,-97.8411"/>
<polygon fill="green" stroke="green" stroke-width="0.146426" points="80.4123,-95.0411 70.5609,-91.1423 75.8308,-100.334 80.4123,-95.0411"/>
</g>
<!-- 3&#45;&gt;7 -->
<g id="edge8" class="edge"><title>3&#45;&gt;7</title>
<path fill="none" stroke="green" stroke-width="0.29417" d="M124.358,-131.935C122.082,-124.986 118.68,-114.603 115.568,-105.102"/>
<polygon fill="green" stroke="green" stroke-width="0.29417" points="118.81,-103.756 112.371,-95.3428 112.158,-105.935 118.81,-103.756"/>
</g>
<!-- 3&#45;&gt;8 -->
<g id="edge23" class="edge"><title>3&#45;&gt;8</title>
<path fill="none" stroke="red" stroke-width="0.420598" d="M131.032,-131.935C134.712,-124.576 140.318,-113.365 145.286,-103.429"/>
<polygon fill="red" stroke="red" stroke-width="0.420598" points="148.428,-104.97 149.77,-94.4603 142.167,-101.839 148.428,-104.97"/>
</g>
<!-- 4 -->
<g id="node5" class="node"><title>4</title>
<polygon fill="lightgrey" stroke="black" points="176.25,-150 155.75,-150 155.75,-132 176.25,-132 176.25,-150"/>
<text text-anchor="middle" x="166" y="-138.8" font-family="Times,serif" font-size="9.00">4</text>
</g>
<!-- 4&#45;&gt;6 -->
<g id="edge21" class="edge"><title>4&#45;&gt;6</title>
<path fill="none" stroke="red" stroke-width="0.573815" d="M174,-131.878C186.785,-117.875 209.109,-88.5253 196,-66 182.315,-42.4844 152.991,-29.1235 131.953,-22.2362"/>
<polygon fill="red" stroke="red" stroke-width="0.573815" points="132.699,-18.8058 122.114,-19.2819 130.685,-25.5101 132.699,-18.8058"/>
</g>
<!-- 4&#45;&gt;9 -->
<g id="edge10" class="edge"><title>4&#45;&gt;9</title>
<path fill="none" stroke="red" stroke-width="0.205646" d="M155.58,-134.561C139.943,-126.364 109.517,-110.283 84,-96 83.0319,-95.4581 82.044,-94.9006 81.0477,-94.3346"/>
<polygon fill="red" stroke="red" stroke-width="0.205646" points="82.5719,-91.1733 72.1612,-89.2066 79.0732,-97.2362 82.5719,-91.1733"/>
</g>
<!-- 4&#45;&gt;7 -->
<g id="edge2" class="edge"><title>4&#45;&gt;7</title>
<path fill="none" stroke="red" stroke-width="0.229016" d="M157.935,-131.935C149.519,-123.519 136.067,-110.067 125.244,-99.244"/>
<polygon fill="red" stroke="red" stroke-width="0.229016" points="127.484,-96.5338 117.938,-91.9376 122.534,-101.484 127.484,-96.5338"/>
</g>
<!-- 4&#45;&gt;8 -->
<g id="edge3" class="edge"><title>4&#45;&gt;8</title>
<path fill="none" stroke="red" stroke-width="0.243534" d="M164.61,-131.935C163.44,-125.151 161.706,-115.093 160.1,-105.778"/>
<polygon fill="red" stroke="red" stroke-width="0.243534" points="163.526,-105.051 158.378,-95.7912 156.628,-106.24 163.526,-105.051"/>
</g>
<!-- 5 -->
<g id="node6" class="node"><title>5</title>
<polygon fill="lightgrey" stroke="black" points="215.25,-150 194.75,-150 194.75,-132 215.25,-132 215.25,-150"/>
<text text-anchor="middle" x="205" y="-138.8" font-family="Times,serif" font-size="9.00">5</text>
</g>
<!-- 5&#45;&gt;6 -->
<g id="edge4" class="edge"><title>5&#45;&gt;6</title>
<path fill="none" stroke="red" stroke-width="0.22774" d="M208.758,-131.919C214.874,-117.465 225.052,-86.7563 212,-66 194.629,-38.3736 157.256,-25.6606 132.37,-20.0676"/>
<polygon fill="red" stroke="red" stroke-width="0.22774" points="132.741,-16.5722 122.247,-18.0271 131.358,-23.4342 132.741,-16.5722"/>
</g>
<!-- 5&#45;&gt;9 -->
<g id="edge1" class="edge"><title>5&#45;&gt;9</title>
<path fill="none" stroke="red" stroke-width="0.187111" d="M194.442,-135.69C191.404,-134.473 188.078,-133.164 185,-132 140.424,-115.148 127.212,-116.093 84,-96 82.994,-95.5322 81.975,-95.0355 80.9535,-94.5188"/>
<polygon fill="red" stroke="red" stroke-width="0.187111" points="82.4221,-91.3319 71.9745,-89.5715 79.044,-97.4629 82.4221,-91.3319"/>
</g>
<!-- 5&#45;&gt;7 -->
<g id="edge22" class="edge"><title>5&#45;&gt;7</title>
<path fill="none" stroke="green" stroke-width="0.233371" d="M194.619,-133.793C179.008,-124.459 149.163,-106.613 128.92,-94.509"/>
<polygon fill="green" stroke="green" stroke-width="0.233371" points="130.498,-91.3748 120.12,-89.2467 126.906,-97.3827 130.498,-91.3748"/>
</g>
<!-- 5&#45;&gt;8 -->
<g id="edge9" class="edge"><title>5&#45;&gt;8</title>
<path fill="none" stroke="red" stroke-width="0.262136" d="M198.187,-131.935C191.381,-123.879 180.676,-111.208 171.753,-100.646"/>
<polygon fill="red" stroke="red" stroke-width="0.262136" points="174.215,-98.1366 165.087,-92.7565 168.867,-102.654 174.215,-98.1366"/>
</g>
<!-- 9&#45;&gt;6 -->
<g id="edge19" class="edge"><title>9&#45;&gt;6</title>
<path fill="none" stroke="red" stroke-width="0.157584" d="M68.361,-68.8521C75.2279,-59.6961 85.1203,-46.5063 93.3046,-35.5939"/>
<polygon fill="red" stroke="red" stroke-width="0.157584" points="96.2116,-37.5512 99.4116,-27.4511 90.6116,-33.3512 96.2116,-37.5512"/>
</g>
<!-- 7&#45;&gt;6 -->
<g id="edge12" class="edge"><title>7&#45;&gt;6</title>
<path fill="none" stroke="red" stroke-width="0.110139" d="M108,-66.113C108,-58.4811 108,-48.7997 108,-39.9854"/>
<polygon fill="red" stroke="red" stroke-width="0.110139" points="111.5,-39.8599 108,-29.8599 104.5,-39.86 111.5,-39.8599"/>
</g>
<!-- 8&#45;&gt;6 -->
<g id="edge14" class="edge"><title>8&#45;&gt;6</title>
<path fill="none" stroke="green" stroke-width="0.276886" d="M147.639,-68.8521C140.772,-59.6961 130.88,-46.5063 122.695,-35.5939"/>
<polygon fill="green" stroke="green" stroke-width="0.276886" points="125.388,-33.3512 116.588,-27.4511 119.788,-37.5512 125.388,-33.3512"/>
</g>
</g>
</svg>
