<?xml version="1.0" encoding="UTF-8" standalone="no"?>
<!DOCTYPE svg PUBLIC "-//W3C//DTD SVG 1.1//EN"
 "http://www.w3.org/Graphics/SVG/1.1/DTD/svg11.dtd">
<!-- Generated by graphviz version 2.36.0 (20140111.2315)
 -->
<!-- Title: %3 Pages: 1 -->
<svg width="651pt" height="314pt"
 viewBox="0.00 0.00 651.23 314.00" xmlns="http://www.w3.org/2000/svg" xmlns:xlink="http://www.w3.org/1999/xlink">
<g id="graph0" class="graph" transform="scale(1 1) rotate(0) translate(4 310)">
<title>%3</title>
<polygon fill="white" stroke="none" points="-4,4 -4,-310 647.226,-310 647.226,4 -4,4"/>
<!-- 0 -->
<g id="node1" class="node"><title>0</title>
<polygon fill="lightgrey" stroke="black" points="239.808,-168 219.308,-168 219.308,-150 239.808,-150 239.808,-168"/>
<text text-anchor="middle" x="229.558" y="-156.8" font-family="Times,serif" font-size="9.00">0</text>
</g>
<!-- 8 -->
<g id="node9" class="node"><title>8</title>
<ellipse fill="lightblue" stroke="lightblue" cx="269.558" cy="-15" rx="14.2796" ry="14.7"/>
<text text-anchor="middle" x="269.558" y="-12.8" font-family="Times,serif" font-size="9.00">8</text>
</g>
<!-- 0&#45;&gt;8 -->
<g id="edge28" class="edge"><title>0&#45;&gt;8</title>
<path fill="none" stroke="red" stroke-width="0.251737" stroke-dasharray="1,5" d="M231.823,-149.959C237.733,-128.979 253.793,-71.9647 262.944,-39.4812"/>
<polygon fill="red" stroke="red" stroke-width="0.251737" points="266.415,-40.0675 265.757,-29.493 259.677,-38.1694 266.415,-40.0675"/>
</g>
<!-- 9 -->
<g id="node10" class="node"><title>9</title>
<ellipse fill="none" stroke="black" cx="188.558" cy="-85" rx="14.2796" ry="14.7"/>
<text text-anchor="middle" x="188.558" y="-82.8" font-family="Times,serif" font-size="9.00">9</text>
</g>
<!-- 0&#45;&gt;9 -->
<g id="edge41" class="edge"><title>0&#45;&gt;9</title>
<path fill="none" stroke="red" stroke-width="0.568787" stroke-dasharray="1,5" d="M224.855,-149.741C218.954,-139.378 208.622,-121.234 200.487,-106.947"/>
<polygon fill="red" stroke="red" stroke-width="0.568787" points="203.516,-105.195 195.526,-98.2368 197.433,-108.659 203.516,-105.195"/>
</g>
<!-- 11 -->
<g id="node11" class="node"><title>11</title>
<ellipse fill="none" stroke="black" cx="330.558" cy="-85" rx="18.0791" ry="18.2703"/>
<text text-anchor="middle" x="330.558" y="-82.8" font-family="Times,serif" font-size="9.00">11</text>
</g>
<!-- 0&#45;&gt;11 -->
<g id="edge19" class="edge"><title>0&#45;&gt;11</title>
<path fill="none" stroke="red" stroke-width="0.386647" d="M237.411,-149.965C240.73,-146.729 244.713,-143.049 248.558,-140 267.154,-125.257 289.775,-110.579 306.544,-100.255"/>
<polygon fill="red" stroke="red" stroke-width="0.386647" points="308.469,-103.181 315.195,-94.9953 304.832,-97.1999 308.469,-103.181"/>
</g>
<!-- 10 -->
<g id="node13" class="node"><title>10</title>
<ellipse fill="none" stroke="black" cx="514.558" cy="-85" rx="18.0791" ry="18.2703"/>
<text text-anchor="middle" x="514.558" y="-82.8" font-family="Times,serif" font-size="9.00">10</text>
</g>
<!-- 0&#45;&gt;10 -->
<g id="edge8" class="edge"><title>0&#45;&gt;10</title>
<path fill="none" stroke="green" stroke-width="0.833834" d="M236.169,-149.871C239.511,-146.295 243.854,-142.377 248.558,-140 329.562,-99.0764 361.064,-124.132 449.558,-104 462.059,-101.156 475.756,-97.4525 487.339,-94.1446"/>
<polygon fill="green" stroke="green" stroke-width="0.833834" points="488.662,-97.4052 497.289,-91.2541 486.709,-90.6831 488.662,-97.4052"/>
</g>
<!-- 1 -->
<g id="node2" class="node"><title>1</title>
<polygon fill="lightgrey" stroke="black" points="35.8082,-306 15.3082,-306 15.3082,-288 35.8082,-288 35.8082,-306"/>
<text text-anchor="middle" x="25.5582" y="-294.8" font-family="Times,serif" font-size="9.00">1</text>
</g>
<!-- 1&#45;&gt;8 -->
<g id="edge38" class="edge"><title>1&#45;&gt;8</title>
<path fill="none" stroke="red" stroke-width="1.04725" d="M22.5549,-287.819C10.97,-254.676 -27.1778,-129.151 34.5582,-66 63.747,-36.1421 191.011,-22.4047 245.096,-17.835"/>
<polygon fill="red" stroke="red" stroke-width="1.04725" points="245.492,-21.3145 255.177,-17.0188 244.927,-14.3373 245.492,-21.3145"/>
</g>
<!-- 1&#45;&gt;9 -->
<g id="edge26" class="edge"><title>1&#45;&gt;9</title>
<path fill="none" stroke="red" stroke-width="0.908812" stroke-dasharray="1,5" d="M23.6755,-287.798C18.4134,-262.651 6.14851,-185.58 41.5582,-140 71.0803,-101.999 130.047,-90.7318 163.632,-87.3968"/>
<polygon fill="red" stroke="red" stroke-width="0.908812" points="164.291,-90.8543 173.969,-86.5428 163.715,-83.8781 164.291,-90.8543"/>
</g>
<!-- 1&#45;&gt;11 -->
<g id="edge10" class="edge"><title>1&#45;&gt;11</title>
<path fill="none" stroke="red" stroke-width="0.860912" d="M35.8504,-295.278C78.2278,-291.714 240.511,-272.146 315.558,-178 329.923,-159.979 332.948,-133.539 332.804,-113.622"/>
<polygon fill="red" stroke="red" stroke-width="0.860912" points="336.301,-113.48 332.467,-103.603 329.305,-113.715 336.301,-113.48"/>
</g>
<!-- 12 -->
<g id="node16" class="node"><title>12</title>
<ellipse fill="none" stroke="black" cx="67.5582" cy="-233" rx="18.0791" ry="18.2703"/>
<text text-anchor="middle" x="67.5582" y="-230.8" font-family="Times,serif" font-size="9.00">12</text>
</g>
<!-- 1&#45;&gt;12 -->
<g id="edge34" class="edge"><title>1&#45;&gt;12</title>
<path fill="none" stroke="red" stroke-width="1.04826" stroke-dasharray="1,5" d="M31.0489,-287.895C36.3827,-280.021 44.7323,-267.695 52.1012,-256.817"/>
<polygon fill="red" stroke="red" stroke-width="1.04826" points="55.0135,-258.759 57.7243,-248.517 49.218,-254.833 55.0135,-258.759"/>
</g>
<!-- 2 -->
<g id="node3" class="node"><title>2</title>
<polygon fill="lightgrey" stroke="black" points="278.808,-168 258.308,-168 258.308,-150 278.808,-150 278.808,-168"/>
<text text-anchor="middle" x="268.558" y="-156.8" font-family="Times,serif" font-size="9.00">2</text>
</g>
<!-- 2&#45;&gt;8 -->
<g id="edge4" class="edge"><title>2&#45;&gt;8</title>
<path fill="none" stroke="red" stroke-width="0.579126" stroke-dasharray="1,5" d="M268.615,-149.959C268.762,-129.085 269.16,-72.5368 269.389,-39.9728"/>
<polygon fill="red" stroke="red" stroke-width="0.579126" points="272.889,-39.9594 269.46,-29.935 265.89,-39.9101 272.889,-39.9594"/>
</g>
<!-- 2&#45;&gt;9 -->
<g id="edge15" class="edge"><title>2&#45;&gt;9</title>
<path fill="none" stroke="green" stroke-width="0.157591" d="M259.381,-149.741C246.659,-138.291 223.383,-117.343 206.995,-102.593"/>
<polygon fill="green" stroke="green" stroke-width="0.157591" points="208.92,-99.6167 199.145,-95.5285 204.237,-104.82 208.92,-99.6167"/>
</g>
<!-- 2&#45;&gt;11 -->
<g id="edge36" class="edge"><title>2&#45;&gt;11</title>
<path fill="none" stroke="red" stroke-width="0.835272" d="M275.67,-149.741C284.498,-139.489 299.883,-121.623 312.122,-107.409"/>
<polygon fill="red" stroke="red" stroke-width="0.835272" points="315.019,-109.409 318.892,-99.5479 309.714,-104.842 315.019,-109.409"/>
</g>
<!-- 2&#45;&gt;10 -->
<g id="edge24" class="edge"><title>2&#45;&gt;10</title>
<path fill="none" stroke="red" stroke-width="0.461628" d="M278.815,-154.998C314.364,-144.593 433.066,-109.851 487.213,-94.0034"/>
<polygon fill="red" stroke="red" stroke-width="0.461628" points="488.524,-97.2667 497.138,-91.0985 486.558,-90.5485 488.524,-97.2667"/>
</g>
<!-- 3 -->
<g id="node4" class="node"><title>3</title>
<polygon fill="lightgrey" stroke="black" points="201.808,-306 181.308,-306 181.308,-288 201.808,-288 201.808,-306"/>
<text text-anchor="middle" x="191.558" y="-294.8" font-family="Times,serif" font-size="9.00">3</text>
</g>
<!-- 3&#45;&gt;8 -->
<g id="edge37" class="edge"><title>3&#45;&gt;8</title>
<path fill="none" stroke="green" stroke-width="1.1" d="M181.07,-296.543C153.183,-297.353 76.8616,-295.323 40.5582,-252 8.50529,-213.75 23.2926,-189.037 32.5582,-140 39.1166,-105.29 34.9222,-89.2019 61.5582,-66 89.026,-42.0734 196.528,-25.4569 245.282,-18.9964"/>
<polygon fill="green" stroke="green" stroke-width="1.1" points="245.806,-22.4579 255.275,-17.706 244.91,-15.5155 245.806,-22.4579"/>
</g>
<!-- 3&#45;&gt;9 -->
<g id="edge25" class="edge"><title>3&#45;&gt;9</title>
<path fill="none" stroke="green" stroke-width="0.269167" d="M191.008,-287.882C189.506,-264.768 185.51,-196.624 186.558,-140 186.738,-130.292 187.099,-119.607 187.466,-110.322"/>
<polygon fill="green" stroke="green" stroke-width="0.269167" points="190.968,-110.345 187.888,-100.208 183.974,-110.053 190.968,-110.345"/>
</g>
<!-- 3&#45;&gt;11 -->
<g id="edge6" class="edge"><title>3&#45;&gt;11</title>
<path fill="none" stroke="red" stroke-width="0.153514" d="M202.092,-292.53C233.238,-281.623 324.881,-244.733 359.558,-178 371.224,-155.55 359.022,-127.557 347.059,-108.382"/>
<polygon fill="red" stroke="red" stroke-width="0.153514" points="349.936,-106.388 341.489,-99.9922 344.104,-110.259 349.936,-106.388"/>
</g>
<!-- 3&#45;&gt;10 -->
<g id="edge16" class="edge"><title>3&#45;&gt;10</title>
<path fill="none" stroke="green" stroke-width="0.407315" d="M202.045,-295.549C263.105,-292.836 571.214,-277.926 603.558,-252 643.354,-220.101 655.832,-183.098 628.558,-140 609.845,-110.43 570.079,-96.7357 542.831,-90.6189"/>
<polygon fill="green" stroke="green" stroke-width="0.407315" points="543.218,-87.1259 532.721,-88.5641 541.824,-93.9857 543.218,-87.1259"/>
</g>
<!-- 3&#45;&gt;12 -->
<g id="edge32" class="edge"><title>3&#45;&gt;12</title>
<path fill="none" stroke="red" stroke-width="1.1" stroke-dasharray="1,5" d="M181.095,-291.908C163.017,-284.696 124.951,-268.878 94.5582,-252 93.2653,-251.282 91.9537,-250.522 90.6408,-249.736"/>
<polygon fill="red" stroke="red" stroke-width="1.1" points="92.4616,-246.746 82.1422,-244.346 88.7126,-252.658 92.4616,-246.746"/>
</g>
<!-- 4 -->
<g id="node5" class="node"><title>4</title>
<polygon fill="lightgrey" stroke="black" points="594.808,-242 574.308,-242 574.308,-224 594.808,-224 594.808,-242"/>
<text text-anchor="middle" x="584.558" y="-230.8" font-family="Times,serif" font-size="9.00">4</text>
</g>
<!-- 4&#45;&gt;8 -->
<g id="edge3" class="edge"><title>4&#45;&gt;8</title>
<path fill="none" stroke="red" stroke-width="0.755372" stroke-dasharray="1,5" d="M594.554,-223.683C605.326,-214.004 621.828,-196.913 628.558,-178 634.22,-162.088 635.644,-155.33 628.558,-140 607.259,-93.9224 587.413,-87.7735 541.558,-66 457.082,-25.8881 343.702,-17.8697 294.298,-16.3287"/>
<polygon fill="red" stroke="red" stroke-width="0.755372" points="294.31,-12.8281 284.227,-16.0792 294.137,-19.8259 294.31,-12.8281"/>
</g>
<!-- 4&#45;&gt;9 -->
<g id="edge14" class="edge"><title>4&#45;&gt;9</title>
<path fill="none" stroke="red" stroke-width="1.09004" d="M574.06,-232.027C519.074,-231.951 264.694,-228.821 209.558,-178 190.991,-160.886 187.169,-131.03 187.067,-109.979"/>
<polygon fill="red" stroke="red" stroke-width="1.09004" points="190.569,-109.964 187.295,-99.8875 183.57,-109.806 190.569,-109.964"/>
</g>
<!-- 4&#45;&gt;11 -->
<g id="edge30" class="edge"><title>4&#45;&gt;11</title>
<path fill="none" stroke="red" stroke-width="0.162176" d="M574.21,-229.515C549.716,-223.344 486.783,-205.788 440.558,-178 418.699,-164.86 417.048,-156.451 397.558,-140 382.762,-127.51 365.774,-113.826 352.606,-103.358"/>
<polygon fill="red" stroke="red" stroke-width="0.162176" points="354.578,-100.454 344.566,-96.9879 350.231,-105.941 354.578,-100.454"/>
</g>
<!-- 4&#45;&gt;10 -->
<g id="edge21" class="edge"><title>4&#45;&gt;10</title>
<path fill="none" stroke="green" stroke-width="0.145926" d="M591.037,-223.843C603.481,-207.113 628.091,-168.127 611.558,-140 596.669,-114.67 565.117,-100.359 542.026,-92.9257"/>
<polygon fill="green" stroke="green" stroke-width="0.145926" points="542.995,-89.5625 532.412,-90.064 540.998,-96.2716 542.995,-89.5625"/>
</g>
<!-- 13 -->
<g id="node15" class="node"><title>13</title>
<ellipse fill="none" stroke="black" cx="584.558" cy="-159" rx="18.0791" ry="18.2703"/>
<text text-anchor="middle" x="584.558" y="-156.8" font-family="Times,serif" font-size="9.00">13</text>
</g>
<!-- 4&#45;&gt;13 -->
<g id="edge18" class="edge"><title>4&#45;&gt;13</title>
<path fill="none" stroke="red" stroke-width="0.63939" d="M584.558,-223.741C584.558,-214.968 584.558,-200.619 584.558,-187.754"/>
<polygon fill="red" stroke="red" stroke-width="0.63939" points="588.058,-187.452 584.558,-177.452 581.058,-187.452 588.058,-187.452"/>
</g>
<!-- 5 -->
<g id="node6" class="node"><title>5</title>
<polygon fill="lightgrey" stroke="black" points="124.808,-242 104.308,-242 104.308,-224 124.808,-224 124.808,-242"/>
<text text-anchor="middle" x="114.558" y="-230.8" font-family="Times,serif" font-size="9.00">5</text>
</g>
<!-- 5&#45;&gt;8 -->
<g id="edge11" class="edge"><title>5&#45;&gt;8</title>
<path fill="none" stroke="green" stroke-width="0.371493" d="M105.823,-223.668C102.4,-220.529 98.382,-216.997 94.5582,-214 72.1456,-196.435 54.8858,-203.164 41.5582,-178 33.6535,-163.075 35.0427,-155.582 41.5582,-140 76.0437,-57.5284 194.007,-28.4115 245.354,-19.4831"/>
<polygon fill="green" stroke="green" stroke-width="0.371493" points="245.938,-22.9341 255.246,-17.8723 244.813,-16.0251 245.938,-22.9341"/>
</g>
<!-- 5&#45;&gt;9 -->
<g id="edge1" class="edge"><title>5&#45;&gt;9</title>
<path fill="none" stroke="red" stroke-width="0.139261" d="M115.334,-223.884C117.205,-207.23 123.017,-168.376 138.558,-140 146.481,-125.534 159.128,-111.926 169.72,-101.989"/>
<polygon fill="red" stroke="red" stroke-width="0.139261" points="172.221,-104.447 177.306,-95.1524 167.535,-99.2466 172.221,-104.447"/>
</g>
<!-- 5&#45;&gt;11 -->
<g id="edge22" class="edge"><title>5&#45;&gt;11</title>
<path fill="none" stroke="red" stroke-width="0.643822" d="M124.225,-223.698C128.651,-220.263 134.117,-216.504 139.558,-214 201.054,-185.699 235.18,-220.886 287.558,-178 307.513,-161.661 318.704,-133.954 324.63,-113.207"/>
<polygon fill="red" stroke="red" stroke-width="0.643822" points="328.057,-113.935 327.2,-103.375 321.284,-112.165 328.057,-113.935"/>
</g>
<!-- 15 -->
<g id="node12" class="node"><title>15</title>
<ellipse fill="none" stroke="black" cx="68.5582" cy="-159" rx="18.0791" ry="18.2703"/>
<text text-anchor="middle" x="68.5582" y="-156.8" font-family="Times,serif" font-size="9.00">15</text>
</g>
<!-- 5&#45;&gt;15 -->
<g id="edge39" class="edge"><title>5&#45;&gt;15</title>
<path fill="none" stroke="green" stroke-width="0.493739" d="M109.281,-223.741C103.048,-213.984 92.4076,-197.329 83.5664,-183.491"/>
<polygon fill="green" stroke="green" stroke-width="0.493739" points="86.4141,-181.447 78.0807,-174.905 80.5152,-185.216 86.4141,-181.447"/>
</g>
<!-- 5&#45;&gt;10 -->
<g id="edge27" class="edge"><title>5&#45;&gt;10</title>
<path fill="none" stroke="green" stroke-width="1.1" d="M124.986,-231.413C185.684,-227.891 491.702,-208.684 518.558,-178 534.141,-160.196 530.37,-132.23 524.414,-111.801"/>
<polygon fill="green" stroke="green" stroke-width="1.1" points="527.707,-110.61 521.291,-102.178 521.049,-112.77 527.707,-110.61"/>
</g>
<!-- 6 -->
<g id="node7" class="node"><title>6</title>
<polygon fill="lightgrey" stroke="black" points="470.808,-168 450.308,-168 450.308,-150 470.808,-150 470.808,-168"/>
<text text-anchor="middle" x="460.558" y="-156.8" font-family="Times,serif" font-size="9.00">6</text>
</g>
<!-- 6&#45;&gt;8 -->
<g id="edge33" class="edge"><title>6&#45;&gt;8</title>
<path fill="none" stroke="green" stroke-width="0.598853" stroke-dasharray="1,5" d="M450.179,-149.865C437.137,-139.534 414.204,-121.002 395.558,-104 377.909,-87.9071 376.557,-80.4745 357.558,-66 336.587,-50.0231 309.971,-35.5994 291.529,-26.396"/>
<polygon fill="green" stroke="green" stroke-width="0.598853" points="292.98,-23.2093 282.459,-21.961 289.905,-29.4978 292.98,-23.2093"/>
</g>
<!-- 6&#45;&gt;9 -->
<g id="edge2" class="edge"><title>6&#45;&gt;9</title>
<path fill="none" stroke="green" stroke-width="0.765445" d="M450.228,-155.265C410.754,-144.816 268.831,-107.249 212.167,-92.2494"/>
<polygon fill="green" stroke="green" stroke-width="0.765445" points="212.886,-88.8194 202.324,-89.6438 211.095,-95.5863 212.886,-88.8194"/>
</g>
<!-- 6&#45;&gt;11 -->
<g id="edge23" class="edge"><title>6&#45;&gt;11</title>
<path fill="none" stroke="green" stroke-width="1.1" d="M450.117,-149.891C445.732,-146.644 440.509,-142.975 435.558,-140 404.551,-121.367 394.557,-120.874 362.558,-104 360.106,-102.707 357.562,-101.333 355.03,-99.944"/>
<polygon fill="green" stroke="green" stroke-width="1.1" points="356.529,-96.7722 346.09,-94.9598 353.12,-102.886 356.529,-96.7722"/>
</g>
<!-- 6&#45;&gt;10 -->
<g id="edge17" class="edge"><title>6&#45;&gt;10</title>
<path fill="none" stroke="green" stroke-width="0.268886" d="M466.753,-149.741C474.278,-139.707 487.273,-122.38 497.817,-108.322"/>
<polygon fill="green" stroke="green" stroke-width="0.268886" points="500.794,-110.185 503.994,-100.085 495.194,-105.985 500.794,-110.185"/>
</g>
<!-- 14 -->
<g id="node14" class="node"><title>14</title>
<ellipse fill="none" stroke="black" cx="422.558" cy="-85" rx="18.0791" ry="18.2703"/>
<text text-anchor="middle" x="422.558" y="-82.8" font-family="Times,serif" font-size="9.00">14</text>
</g>
<!-- 6&#45;&gt;14 -->
<g id="edge12" class="edge"><title>6&#45;&gt;14</title>
<path fill="none" stroke="red" stroke-width="0.315816" stroke-dasharray="1,5" d="M456.199,-149.741C451.162,-140.197 442.642,-124.053 435.437,-110.401"/>
<polygon fill="red" stroke="red" stroke-width="0.315816" points="438.48,-108.67 430.717,-101.46 432.29,-111.937 438.48,-108.67"/>
</g>
<!-- 7 -->
<g id="node8" class="node"><title>7</title>
<polygon fill="lightgrey" stroke="black" points="509.808,-168 489.308,-168 489.308,-150 509.808,-150 509.808,-168"/>
<text text-anchor="middle" x="499.558" y="-156.8" font-family="Times,serif" font-size="9.00">7</text>
</g>
<!-- 7&#45;&gt;8 -->
<g id="edge42" class="edge"><title>7&#45;&gt;8</title>
<path fill="none" stroke="green" stroke-width="0.459455" d="M497.512,-149.968C492.524,-132.054 478.012,-88.6332 449.558,-66 403.354,-29.2472 331.849,-19.481 294.385,-16.9056"/>
<polygon fill="green" stroke="green" stroke-width="0.459455" points="294.525,-13.408 284.342,-16.3341 294.127,-20.3967 294.525,-13.408"/>
</g>
<!-- 7&#45;&gt;11 -->
<g id="edge9" class="edge"><title>7&#45;&gt;11</title>
<path fill="none" stroke="red" stroke-width="1.04279" stroke-dasharray="1,5" d="M491.952,-149.876C488.434,-146.473 484.045,-142.691 479.558,-140 458.475,-127.355 394.224,-106.051 357.343,-94.3385"/>
<polygon fill="red" stroke="red" stroke-width="1.04279" points="358.315,-90.9752 347.726,-91.3045 356.209,-97.6509 358.315,-90.9752"/>
</g>
<!-- 7&#45;&gt;10 -->
<g id="edge20" class="edge"><title>7&#45;&gt;10</title>
<path fill="none" stroke="green" stroke-width="0.347161" stroke-dasharray="1,5" d="M501.279,-149.741C503.137,-140.822 506.196,-126.14 508.91,-113.113"/>
<polygon fill="green" stroke="green" stroke-width="0.347161" points="512.369,-113.667 510.983,-103.163 505.517,-112.239 512.369,-113.667"/>
</g>
<!-- 9&#45;&gt;8 -->
<g id="edge5" class="edge"><title>9&#45;&gt;8</title>
<path fill="none" stroke="green" stroke-width="0.45297" d="M199.482,-74.8292C212.599,-63.8176 234.816,-45.1661 250.72,-31.8151"/>
<polygon fill="green" stroke="green" stroke-width="0.45297" points="253.399,-34.1358 258.807,-25.0255 248.898,-28.7746 253.399,-34.1358"/>
</g>
<!-- 11&#45;&gt;8 -->
<g id="edge35" class="edge"><title>11&#45;&gt;8</title>
<path fill="none" stroke="green" stroke-width="0.413774" d="M318.797,-70.8889C309.436,-60.4541 296.231,-45.7335 285.852,-34.1634"/>
<polygon fill="green" stroke="green" stroke-width="0.413774" points="288.172,-31.5084 278.889,-26.4018 282.961,-36.1828 288.172,-31.5084"/>
</g>
<!-- 15&#45;&gt;8 -->
<g id="edge7" class="edge"><title>15&#45;&gt;8</title>
<path fill="none" stroke="green" stroke-width="0.600242" stroke-dasharray="1,5" d="M80.1598,-144.409C97.1677,-125.102 130.554,-89.4771 164.558,-66 190.807,-47.8773 224.645,-33.0807 246.71,-24.4067"/>
<polygon fill="green" stroke="green" stroke-width="0.600242" points="248.146,-27.6048 256.231,-20.7574 245.64,-21.0685 248.146,-27.6048"/>
</g>
<!-- 15&#45;&gt;9 -->
<g id="edge40" class="edge"><title>15&#45;&gt;9</title>
<path fill="none" stroke="red" stroke-width="0.266827" d="M83.7563,-148.881C105.025,-136.12 143.742,-112.889 167.696,-98.5173"/>
<polygon fill="red" stroke="red" stroke-width="0.266827" points="169.605,-101.454 176.379,-93.3073 166.004,-95.4511 169.605,-101.454"/>
</g>
<!-- 10&#45;&gt;8 -->
<g id="edge13" class="edge"><title>10&#45;&gt;8</title>
<path fill="none" stroke="green" stroke-width="0.435558" d="M499.365,-74.2983C494.185,-71.3078 488.26,-68.2212 482.558,-66 416.744,-40.3609 334.158,-25.5881 293.891,-19.4232"/>
<polygon fill="green" stroke="green" stroke-width="0.435558" points="294.334,-15.9506 283.928,-17.9428 293.305,-22.8746 294.334,-15.9506"/>
</g>
<!-- 14&#45;&gt;8 -->
<g id="edge43" class="edge"><title>14&#45;&gt;8</title>
<path fill="none" stroke="red" stroke-width="0.261717" stroke-dasharray="1,5" d="M407.134,-74.8281C401.939,-71.8729 396.063,-68.6733 390.558,-66 357.103,-49.7519 316.983,-33.8478 292.385,-24.4857"/>
<polygon fill="red" stroke="red" stroke-width="0.261717" points="293.45,-21.1467 282.858,-20.892 290.979,-27.6962 293.45,-21.1467"/>
</g>
<!-- 13&#45;&gt;10 -->
<g id="edge29" class="edge"><title>13&#45;&gt;10</title>
<path fill="none" stroke="green" stroke-width="0.143976" d="M572.044,-145.128C561.492,-134.275 546.213,-118.559 534.058,-106.057"/>
<polygon fill="green" stroke="green" stroke-width="0.143976" points="536.445,-103.491 526.964,-98.7607 531.426,-108.37 536.445,-103.491"/>
</g>
<!-- 12&#45;&gt;15 -->
<g id="edge31" class="edge"><title>12&#45;&gt;15</title>
<path fill="none" stroke="red" stroke-width="0.3282" stroke-dasharray="1,5" d="M67.8002,-214.571C67.9124,-206.494 68.0484,-196.7 68.1741,-187.651"/>
<polygon fill="red" stroke="red" stroke-width="0.3282" points="71.6755,-187.566 68.3149,-177.518 64.6762,-187.469 71.6755,-187.566"/>
</g>
</g>
</svg>
