<?xml version="1.0" encoding="UTF-8" standalone="no"?>
<!DOCTYPE svg PUBLIC "-//W3C//DTD SVG 1.1//EN"
 "http://www.w3.org/Graphics/SVG/1.1/DTD/svg11.dtd">
<!-- Generated by graphviz version 2.36.0 (20140111.2315)
 -->
<!-- Title: %3 Pages: 1 -->
<svg width="600pt" height="240pt"
 viewBox="0.00 0.00 600.00 240.00" xmlns="http://www.w3.org/2000/svg" xmlns:xlink="http://www.w3.org/1999/xlink">
<g id="graph0" class="graph" transform="scale(1 1) rotate(0) translate(4 236)">
<title>%3</title>
<polygon fill="white" stroke="none" points="-4,4 -4,-236 596,-236 596,4 -4,4"/>
<!-- 0 -->
<g id="node1" class="node"><title>0</title>
<polygon fill="lightgrey" stroke="black" points="136.25,-168 115.75,-168 115.75,-150 136.25,-150 136.25,-168"/>
<text text-anchor="middle" x="126" y="-156.8" font-family="Times,serif" font-size="9.00">0</text>
</g>
<!-- 11 -->
<g id="node11" class="node"><title>11</title>
<ellipse fill="none" stroke="black" cx="133" cy="-85" rx="18.0791" ry="18.2703"/>
<text text-anchor="middle" x="133" y="-82.8" font-family="Times,serif" font-size="9.00">11</text>
</g>
<!-- 0&#45;&gt;11 -->
<g id="edge14" class="edge"><title>0&#45;&gt;11</title>
<path fill="none" stroke="red" stroke-width="0.386647" d="M126.803,-149.741C127.656,-140.968 129.051,-126.619 130.302,-113.754"/>
<polygon fill="red" stroke="red" stroke-width="0.386647" points="133.819,-113.744 131.303,-103.452 126.852,-113.067 133.819,-113.744"/>
</g>
<!-- 10 -->
<g id="node12" class="node"><title>10</title>
<ellipse fill="none" stroke="black" cx="243" cy="-85" rx="18.0791" ry="18.2703"/>
<text text-anchor="middle" x="243" y="-82.8" font-family="Times,serif" font-size="9.00">10</text>
</g>
<!-- 0&#45;&gt;10 -->
<g id="edge5" class="edge"><title>0&#45;&gt;10</title>
<path fill="none" stroke="green" stroke-width="0.833834" d="M133.735,-149.811C137.037,-146.551 141.038,-142.895 145,-140 168.05,-123.159 196.929,-107.858 217.351,-97.8796"/>
<polygon fill="green" stroke="green" stroke-width="0.833834" points="219.132,-100.907 226.633,-93.4249 216.103,-94.5959 219.132,-100.907"/>
</g>
<!-- 1 -->
<g id="node2" class="node"><title>1</title>
<polygon fill="lightgrey" stroke="black" points="20.25,-168 -0.25,-168 -0.25,-150 20.25,-150 20.25,-168"/>
<text text-anchor="middle" x="10" y="-156.8" font-family="Times,serif" font-size="9.00">1</text>
</g>
<!-- 8 -->
<g id="node9" class="node"><title>8</title>
<ellipse fill="lightblue" stroke="lightblue" cx="243" cy="-15" rx="14.2796" ry="14.7"/>
<text text-anchor="middle" x="243" y="-12.8" font-family="Times,serif" font-size="9.00">8</text>
</g>
<!-- 1&#45;&gt;8 -->
<g id="edge26" class="edge"><title>1&#45;&gt;8</title>
<path fill="none" stroke="red" stroke-width="1.04725" d="M16.3591,-149.96C30.6265,-132.407 67.0066,-90.2861 106,-66 142.399,-43.3298 190.599,-28.7716 219.054,-21.5143"/>
<polygon fill="red" stroke="red" stroke-width="1.04725" points="220.052,-24.8735 228.928,-19.0887 218.381,-18.0757 220.052,-24.8735"/>
</g>
<!-- 1&#45;&gt;11 -->
<g id="edge6" class="edge"><title>1&#45;&gt;11</title>
<path fill="none" stroke="red" stroke-width="0.860912" d="M20.5107,-150.003C24.9057,-146.773 30.1179,-143.087 35,-140 59.1283,-124.744 87.8483,-109.209 107.938,-98.7425"/>
<polygon fill="red" stroke="red" stroke-width="0.860912" points="109.771,-101.735 117.048,-94.035 106.558,-95.516 109.771,-101.735"/>
</g>
<!-- 2 -->
<g id="node3" class="node"><title>2</title>
<polygon fill="lightgrey" stroke="black" points="346.25,-168 325.75,-168 325.75,-150 346.25,-150 346.25,-168"/>
<text text-anchor="middle" x="336" y="-156.8" font-family="Times,serif" font-size="9.00">2</text>
</g>
<!-- 9 -->
<g id="node10" class="node"><title>9</title>
<ellipse fill="none" stroke="black" cx="336" cy="-85" rx="14.2796" ry="14.7"/>
<text text-anchor="middle" x="336" y="-82.8" font-family="Times,serif" font-size="9.00">9</text>
</g>
<!-- 2&#45;&gt;9 -->
<g id="edge10" class="edge"><title>2&#45;&gt;9</title>
<path fill="none" stroke="green" stroke-width="0.157591" d="M336,-149.741C336,-140.181 336,-123.999 336,-110.332"/>
<polygon fill="green" stroke="green" stroke-width="0.157591" points="339.5,-110.085 336,-100.085 332.5,-110.085 339.5,-110.085"/>
</g>
<!-- 2&#45;&gt;11 -->
<g id="edge24" class="edge"><title>2&#45;&gt;11</title>
<path fill="none" stroke="red" stroke-width="0.835272" d="M328.469,-149.745C324.965,-146.318 320.566,-142.554 316,-140 289.1,-124.958 204.617,-103.252 160.476,-92.5177"/>
<polygon fill="red" stroke="red" stroke-width="0.835272" points="161.23,-89.0992 150.688,-90.1566 159.588,-95.904 161.23,-89.0992"/>
</g>
<!-- 2&#45;&gt;10 -->
<g id="edge18" class="edge"><title>2&#45;&gt;10</title>
<path fill="none" stroke="red" stroke-width="0.461628" d="M327.2,-149.749C323.769,-146.62 319.763,-143.073 316,-140 299.721,-126.705 280.598,-112.611 266.008,-102.157"/>
<polygon fill="red" stroke="red" stroke-width="0.461628" points="267.754,-99.1027 257.576,-96.1573 263.695,-104.806 267.754,-99.1027"/>
</g>
<!-- 3 -->
<g id="node4" class="node"><title>3</title>
<polygon fill="lightgrey" stroke="black" points="175.25,-168 154.75,-168 154.75,-150 175.25,-150 175.25,-168"/>
<text text-anchor="middle" x="165" y="-156.8" font-family="Times,serif" font-size="9.00">3</text>
</g>
<!-- 3&#45;&gt;8 -->
<g id="edge25" class="edge"><title>3&#45;&gt;8</title>
<path fill="none" stroke="green" stroke-width="1.1" d="M169.417,-149.959C181.216,-128.478 213.767,-69.2186 231.358,-37.1948"/>
<polygon fill="green" stroke="green" stroke-width="1.1" points="234.55,-38.6527 236.297,-28.2028 228.415,-35.2825 234.55,-38.6527"/>
</g>
<!-- 3&#45;&gt;9 -->
<g id="edge19" class="edge"><title>3&#45;&gt;9</title>
<path fill="none" stroke="green" stroke-width="0.269167" d="M172.153,-149.846C175.482,-146.437 179.661,-142.659 184,-140 206.057,-126.48 275.451,-104.348 312.364,-93.0768"/>
<polygon fill="green" stroke="green" stroke-width="0.269167" points="313.714,-96.325 322.269,-90.0752 311.684,-89.6258 313.714,-96.325"/>
</g>
<!-- 3&#45;&gt;11 -->
<g id="edge4" class="edge"><title>3&#45;&gt;11</title>
<path fill="none" stroke="red" stroke-width="0.153514" d="M161.329,-149.741C157.181,-140.408 150.228,-124.763 144.248,-111.309"/>
<polygon fill="red" stroke="red" stroke-width="0.153514" points="147.38,-109.738 140.12,-102.021 140.984,-112.581 147.38,-109.738"/>
</g>
<!-- 3&#45;&gt;10 -->
<g id="edge11" class="edge"><title>3&#45;&gt;10</title>
<path fill="none" stroke="green" stroke-width="0.407315" d="M173.483,-149.904C176.757,-146.795 180.542,-143.22 184,-140 196.593,-128.274 210.819,-115.247 222.147,-104.926"/>
<polygon fill="green" stroke="green" stroke-width="0.407315" points="224.777,-107.265 229.818,-97.9463 220.066,-102.087 224.777,-107.265"/>
</g>
<!-- 4 -->
<g id="node5" class="node"><title>4</title>
<polygon fill="lightgrey" stroke="black" points="276.25,-232 255.75,-232 255.75,-214 276.25,-214 276.25,-232"/>
<text text-anchor="middle" x="266" y="-220.8" font-family="Times,serif" font-size="9.00">4</text>
</g>
<!-- 4&#45;&gt;9 -->
<g id="edge9" class="edge"><title>4&#45;&gt;9</title>
<path fill="none" stroke="red" stroke-width="1.09004" d="M276.328,-220.452C295.775,-216.917 337.447,-206.259 355,-178 368.472,-156.311 358.362,-126.744 348.473,-107.045"/>
<polygon fill="red" stroke="red" stroke-width="1.09004" points="351.42,-105.135 343.595,-97.9915 345.257,-108.455 351.42,-105.135"/>
</g>
<!-- 4&#45;&gt;11 -->
<g id="edge22" class="edge"><title>4&#45;&gt;11</title>
<path fill="none" stroke="red" stroke-width="0.162176" d="M255.546,-221.277C218.759,-218.497 96.2522,-207.15 73,-178 62.4683,-164.797 66.1289,-155.428 73,-140 80.3897,-123.407 95.6764,-109.774 108.97,-100.357"/>
<polygon fill="red" stroke="red" stroke-width="0.162176" points="110.939,-103.251 117.314,-94.7891 107.053,-97.4284 110.939,-103.251"/>
</g>
<!-- 4&#45;&gt;10 -->
<g id="edge15" class="edge"><title>4&#45;&gt;10</title>
<path fill="none" stroke="green" stroke-width="0.145926" d="M264.63,-213.9C261.346,-194.48 252.902,-144.551 247.588,-113.13"/>
<polygon fill="green" stroke="green" stroke-width="0.145926" points="251.037,-112.531 245.918,-103.255 244.135,-113.698 251.037,-112.531"/>
</g>
<!-- 13 -->
<g id="node13" class="node"><title>13</title>
<ellipse fill="none" stroke="black" cx="289" cy="-159" rx="18.0791" ry="18.2703"/>
<text text-anchor="middle" x="289" y="-156.8" font-family="Times,serif" font-size="9.00">13</text>
</g>
<!-- 4&#45;&gt;13 -->
<g id="edge13" class="edge"><title>4&#45;&gt;13</title>
<path fill="none" stroke="red" stroke-width="0.63939" d="M269.007,-213.895C271.637,-206.805 275.606,-196.105 279.317,-186.103"/>
<polygon fill="red" stroke="red" stroke-width="0.63939" points="282.685,-187.086 282.882,-176.493 276.122,-184.651 282.685,-187.086"/>
</g>
<!-- 5 -->
<g id="node6" class="node"><title>5</title>
<polygon fill="lightgrey" stroke="black" points="469.25,-232 448.75,-232 448.75,-214 469.25,-214 469.25,-232"/>
<text text-anchor="middle" x="459" y="-220.8" font-family="Times,serif" font-size="9.00">5</text>
</g>
<!-- 5&#45;&gt;8 -->
<g id="edge7" class="edge"><title>5&#45;&gt;8</title>
<path fill="none" stroke="green" stroke-width="0.371493" d="M469.494,-215.041C479.985,-207.387 495.47,-194.024 502,-178 508.373,-162.36 510.779,-154.428 502,-140 450.239,-54.9341 321.58,-27.124 267.53,-19.009"/>
<polygon fill="green" stroke="green" stroke-width="0.371493" points="267.859,-15.521 257.47,-17.5999 266.888,-22.4534 267.859,-15.521"/>
</g>
<!-- 5&#45;&gt;9 -->
<g id="edge1" class="edge"><title>5&#45;&gt;9</title>
<path fill="none" stroke="red" stroke-width="0.139261" d="M466.321,-213.602C479.086,-197.897 502.547,-163.544 486,-140 457.565,-99.5426 395.759,-89.2542 361.012,-86.7302"/>
<polygon fill="red" stroke="red" stroke-width="0.139261" points="360.938,-83.2207 350.757,-86.1552 360.546,-90.2097 360.938,-83.2207"/>
</g>
<!-- 5&#45;&gt;11 -->
<g id="edge16" class="edge"><title>5&#45;&gt;11</title>
<path fill="none" stroke="red" stroke-width="0.643822" d="M448.463,-221.501C392.251,-218.736 129.353,-204.444 106,-178 88.8194,-158.545 102.584,-128.659 115.972,-108.266"/>
<polygon fill="red" stroke="red" stroke-width="0.643822" points="118.953,-110.109 121.788,-99.901 113.206,-106.113 118.953,-110.109"/>
</g>
<!-- 5&#45;&gt;10 -->
<g id="edge20" class="edge"><title>5&#45;&gt;10</title>
<path fill="none" stroke="green" stroke-width="1.1" d="M450.042,-213.818C432.634,-198.18 392.634,-163.514 355,-140 326.968,-122.485 292.399,-106.603 269.143,-96.667"/>
<polygon fill="green" stroke="green" stroke-width="1.1" points="270.495,-93.4389 259.92,-92.7853 267.78,-99.8907 270.495,-93.4389"/>
</g>
<!-- 15 -->
<g id="node14" class="node"><title>15</title>
<ellipse fill="none" stroke="black" cx="459" cy="-159" rx="18.0791" ry="18.2703"/>
<text text-anchor="middle" x="459" y="-156.8" font-family="Times,serif" font-size="9.00">15</text>
</g>
<!-- 5&#45;&gt;15 -->
<g id="edge27" class="edge"><title>5&#45;&gt;15</title>
<path fill="none" stroke="green" stroke-width="0.493739" d="M459,-213.895C459,-207.145 459,-197.124 459,-187.548"/>
<polygon fill="green" stroke="green" stroke-width="0.493739" points="462.5,-187.508 459,-177.508 455.5,-187.508 462.5,-187.508"/>
</g>
<!-- 6 -->
<g id="node7" class="node"><title>6</title>
<polygon fill="lightgrey" stroke="black" points="214.25,-168 193.75,-168 193.75,-150 214.25,-150 214.25,-168"/>
<text text-anchor="middle" x="204" y="-156.8" font-family="Times,serif" font-size="9.00">6</text>
</g>
<!-- 6&#45;&gt;9 -->
<g id="edge2" class="edge"><title>6&#45;&gt;9</title>
<path fill="none" stroke="green" stroke-width="0.765445" d="M214.358,-152.35C235.872,-140.615 285.782,-113.391 314.54,-97.7053"/>
<polygon fill="green" stroke="green" stroke-width="0.765445" points="316.308,-100.728 323.411,-92.867 312.956,-94.5829 316.308,-100.728"/>
</g>
<!-- 6&#45;&gt;11 -->
<g id="edge17" class="edge"><title>6&#45;&gt;11</title>
<path fill="none" stroke="green" stroke-width="1.1" d="M195.855,-149.741C185.468,-139.207 167.151,-120.632 152.961,-106.242"/>
<polygon fill="green" stroke="green" stroke-width="1.1" points="155.092,-103.418 145.578,-98.7555 150.108,-108.333 155.092,-103.418"/>
</g>
<!-- 6&#45;&gt;10 -->
<g id="edge12" class="edge"><title>6&#45;&gt;10</title>
<path fill="none" stroke="green" stroke-width="0.268886" d="M208.474,-149.741C213.643,-140.197 222.388,-124.053 229.783,-110.401"/>
<polygon fill="green" stroke="green" stroke-width="0.268886" points="232.941,-111.92 234.626,-101.46 226.786,-108.586 232.941,-111.92"/>
</g>
<!-- 7 -->
<g id="node8" class="node"><title>7</title>
<polygon fill="lightgrey" stroke="black" points="592.25,-94 571.75,-94 571.75,-76 592.25,-76 592.25,-94"/>
<text text-anchor="middle" x="582" y="-82.8" font-family="Times,serif" font-size="9.00">7</text>
</g>
<!-- 7&#45;&gt;8 -->
<g id="edge29" class="edge"><title>7&#45;&gt;8</title>
<path fill="none" stroke="green" stroke-width="0.459455" d="M572.894,-75.8593C568.407,-72.2817 562.736,-68.3642 557,-66 455.301,-24.0813 321.671,-17.1263 267.441,-16.1023"/>
<polygon fill="green" stroke="green" stroke-width="0.459455" points="267.447,-12.6022 257.4,-15.9657 267.352,-19.6015 267.447,-12.6022"/>
</g>
<!-- 9&#45;&gt;8 -->
<g id="edge3" class="edge"><title>9&#45;&gt;8</title>
<path fill="none" stroke="green" stroke-width="0.45297" d="M324.596,-75.6619C309.187,-64.3952 281.486,-44.1403 262.679,-30.3889"/>
<polygon fill="green" stroke="green" stroke-width="0.45297" points="264.635,-27.4834 254.497,-24.4063 260.503,-33.134 264.635,-27.4834"/>
</g>
<!-- 11&#45;&gt;8 -->
<g id="edge23" class="edge"><title>11&#45;&gt;8</title>
<path fill="none" stroke="green" stroke-width="0.413774" d="M148.295,-74.5449C167.527,-62.6558 200.629,-42.1929 222.163,-28.8811"/>
<polygon fill="green" stroke="green" stroke-width="0.413774" points="224.215,-31.7274 230.88,-23.4921 220.534,-25.7733 224.215,-31.7274"/>
</g>
<!-- 10&#45;&gt;8 -->
<g id="edge8" class="edge"><title>10&#45;&gt;8</title>
<path fill="none" stroke="green" stroke-width="0.435558" d="M243,-66.4883C243,-58.5197 243,-48.9566 243,-40.3069"/>
<polygon fill="green" stroke="green" stroke-width="0.435558" points="246.5,-40.0278 243,-30.0278 239.5,-40.0278 246.5,-40.0278"/>
</g>
<!-- 13&#45;&gt;10 -->
<g id="edge21" class="edge"><title>13&#45;&gt;10</title>
<path fill="none" stroke="green" stroke-width="0.143976" d="M279.469,-143.082C273.301,-133.428 265.138,-120.651 258.099,-109.633"/>
<polygon fill="green" stroke="green" stroke-width="0.143976" points="260.852,-107.442 252.519,-100.899 254.954,-111.211 260.852,-107.442"/>
</g>
<!-- 15&#45;&gt;9 -->
<g id="edge28" class="edge"><title>15&#45;&gt;9</title>
<path fill="none" stroke="red" stroke-width="0.266827" d="M443.671,-149.027C421.839,-136.247 381.716,-112.761 357.094,-98.3475"/>
<polygon fill="red" stroke="red" stroke-width="0.266827" points="358.585,-95.165 348.187,-93.1337 355.049,-101.206 358.585,-95.165"/>
</g>
</g>
</svg>
