<?xml version="1.0" encoding="UTF-8" standalone="no"?>
<!DOCTYPE svg PUBLIC "-//W3C//DTD SVG 1.1//EN"
 "http://www.w3.org/Graphics/SVG/1.1/DTD/svg11.dtd">
<!-- Generated by graphviz version 2.36.0 (20140111.2315)
 -->
<!-- Title: %3 Pages: 1 -->
<svg width="302pt" height="240pt"
 viewBox="0.00 0.00 302.00 240.00" xmlns="http://www.w3.org/2000/svg" xmlns:xlink="http://www.w3.org/1999/xlink">
<g id="graph0" class="graph" transform="scale(1 1) rotate(0) translate(4 236)">
<title>%3</title>
<polygon fill="white" stroke="none" points="-4,4 -4,-236 298,-236 298,4 -4,4"/>
<!-- 0 -->
<g id="node1" class="node"><title>0</title>
<polygon fill="lightgrey" stroke="black" points="59.25,-232 38.75,-232 38.75,-214 59.25,-214 59.25,-232"/>
<text text-anchor="middle" x="49" y="-220.8" font-family="Times,serif" font-size="9.00">0</text>
</g>
<!-- 8 -->
<g id="node9" class="node"><title>8</title>
<ellipse fill="lightblue" stroke="lightblue" cx="147" cy="-15" rx="14.2796" ry="14.7"/>
<text text-anchor="middle" x="147" y="-12.8" font-family="Times,serif" font-size="9.00">8</text>
</g>
<!-- 0&#45;&gt;8 -->
<g id="edge25" class="edge"><title>0&#45;&gt;8</title>
<path fill="none" stroke="green" stroke-width="0.479559" stroke-dasharray="1,5" d="M47.4685,-213.738C43.3564,-189.058 34.3534,-114.588 65,-66 78.4215,-44.7211 104.507,-31.1564 123.666,-23.6044"/>
<polygon fill="green" stroke="green" stroke-width="0.479559" points="125.027,-26.8334 133.211,-20.1053 122.618,-20.261 125.027,-26.8334"/>
</g>
<!-- 9 -->
<g id="node10" class="node"><title>9</title>
<ellipse fill="none" stroke="black" cx="94" cy="-159" rx="14.2796" ry="14.7"/>
<text text-anchor="middle" x="94" y="-156.8" font-family="Times,serif" font-size="9.00">9</text>
</g>
<!-- 0&#45;&gt;9 -->
<g id="edge33" class="edge"><title>0&#45;&gt;9</title>
<path fill="none" stroke="green" stroke-width="0.447739" d="M54.883,-213.895C61.1858,-205.211 71.4194,-191.111 79.8386,-179.511"/>
<polygon fill="green" stroke="green" stroke-width="0.447739" points="82.7866,-181.408 85.828,-171.259 77.1215,-177.296 82.7866,-181.408"/>
</g>
<!-- 11 -->
<g id="node11" class="node"><title>11</title>
<ellipse fill="none" stroke="black" cx="145" cy="-159" rx="18.0791" ry="18.2703"/>
<text text-anchor="middle" x="145" y="-156.8" font-family="Times,serif" font-size="9.00">11</text>
</g>
<!-- 0&#45;&gt;11 -->
<g id="edge16" class="edge"><title>0&#45;&gt;11</title>
<path fill="none" stroke="red" stroke-width="0.217657" d="M59.2737,-215.365C74.0386,-205.829 101.669,-187.985 121.576,-175.128"/>
<polygon fill="red" stroke="red" stroke-width="0.217657" points="123.604,-177.985 130.105,-169.619 119.806,-172.105 123.604,-177.985"/>
</g>
<!-- 10 -->
<g id="node12" class="node"><title>10</title>
<ellipse fill="none" stroke="black" cx="200" cy="-159" rx="18.0791" ry="18.2703"/>
<text text-anchor="middle" x="200" y="-156.8" font-family="Times,serif" font-size="9.00">10</text>
</g>
<!-- 0&#45;&gt;10 -->
<g id="edge7" class="edge"><title>0&#45;&gt;10</title>
<path fill="none" stroke="red" stroke-width="0.926927" d="M59.4035,-217.475C62.1819,-216.307 65.1926,-215.076 68,-214 113.675,-196.5 128.005,-199.376 172,-178 173.572,-177.236 175.164,-176.401 176.749,-175.523"/>
<polygon fill="red" stroke="red" stroke-width="0.926927" points="178.804,-178.371 185.561,-170.21 175.19,-172.376 178.804,-178.371"/>
</g>
<!-- 1 -->
<g id="node2" class="node"><title>1</title>
<polygon fill="lightgrey" stroke="black" points="20.25,-232 -0.25,-232 -0.25,-214 20.25,-214 20.25,-232"/>
<text text-anchor="middle" x="10" y="-220.8" font-family="Times,serif" font-size="9.00">1</text>
</g>
<!-- 1&#45;&gt;8 -->
<g id="edge32" class="edge"><title>1&#45;&gt;8</title>
<path fill="none" stroke="red" stroke-width="0.743206" d="M9.58623,-213.856C8.74957,-188.873 9.45613,-112.225 46,-66 65.3614,-41.5092 99.8249,-28.1236 123.043,-21.5141"/>
<polygon fill="red" stroke="red" stroke-width="0.743206" points="124.045,-24.8696 132.824,-18.9386 122.263,-18.1003 124.045,-24.8696"/>
</g>
<!-- 1&#45;&gt;9 -->
<g id="edge24" class="edge"><title>1&#45;&gt;9</title>
<path fill="none" stroke="red" stroke-width="0.16166" d="M20.3,-214.398C33.7304,-204.485 57.4997,-186.941 74.4122,-174.458"/>
<polygon fill="red" stroke="red" stroke-width="0.16166" points="76.5729,-177.213 82.5402,-168.458 72.4159,-171.581 76.5729,-177.213"/>
</g>
<!-- 1&#45;&gt;11 -->
<g id="edge9" class="edge"><title>1&#45;&gt;11</title>
<path fill="none" stroke="red" stroke-width="0.62156" d="M20.4451,-217.58C23.2231,-216.41 26.2233,-215.153 29,-214 68.029,-197.801 79.5146,-197.507 117,-178 118.515,-177.211 120.054,-176.365 121.591,-175.484"/>
<polygon fill="red" stroke="red" stroke-width="0.62156" points="123.477,-178.433 130.189,-170.236 119.83,-172.459 123.477,-178.433"/>
</g>
<!-- 1&#45;&gt;10 -->
<g id="edge18" class="edge"><title>1&#45;&gt;10</title>
<path fill="none" stroke="red" stroke-width="0.2019" d="M20.344,-217.309C23.1228,-216.142 26.1486,-214.953 29,-214 91.1583,-193.224 111.867,-204.063 172,-178 173.604,-177.305 175.22,-176.523 176.822,-175.684"/>
<polygon fill="red" stroke="red" stroke-width="0.2019" points="178.838,-178.558 185.68,-170.469 175.287,-172.526 178.838,-178.558"/>
</g>
<!-- 2 -->
<g id="node3" class="node"><title>2</title>
<polygon fill="lightgrey" stroke="black" points="98.25,-232 77.75,-232 77.75,-214 98.25,-214 98.25,-232"/>
<text text-anchor="middle" x="88" y="-220.8" font-family="Times,serif" font-size="9.00">2</text>
</g>
<!-- 2&#45;&gt;8 -->
<g id="edge4" class="edge"><title>2&#45;&gt;8</title>
<path fill="none" stroke="red" stroke-width="0.574429" stroke-dasharray="1,5" d="M83.545,-213.866C79.1026,-205.254 72.5797,-191.119 70,-178 60.2983,-128.662 59.7795,-108.906 86,-66 95.7467,-50.0511 112.442,-36.8949 125.905,-28.0877"/>
<polygon fill="red" stroke="red" stroke-width="0.574429" points="127.931,-30.9497 134.584,-22.7042 124.241,-25.0012 127.931,-30.9497"/>
</g>
<!-- 2&#45;&gt;9 -->
<g id="edge13" class="edge"><title>2&#45;&gt;9</title>
<path fill="none" stroke="red" stroke-width="0.723278" d="M88.7844,-213.895C89.5182,-206.312 90.6515,-194.601 91.6745,-184.03"/>
<polygon fill="red" stroke="red" stroke-width="0.723278" points="95.1622,-184.326 92.6418,-174.035 88.1947,-183.651 95.1622,-184.326"/>
</g>
<!-- 2&#45;&gt;11 -->
<g id="edge30" class="edge"><title>2&#45;&gt;11</title>
<path fill="none" stroke="red" stroke-width="0.486076" d="M95.4518,-213.895C103.2,-205.467 115.637,-191.939 126.112,-180.545"/>
<polygon fill="red" stroke="red" stroke-width="0.486076" points="128.777,-182.818 132.968,-173.087 123.624,-178.08 128.777,-182.818"/>
</g>
<!-- 2&#45;&gt;10 -->
<g id="edge22" class="edge"><title>2&#45;&gt;10</title>
<path fill="none" stroke="red" stroke-width="0.301822" d="M98.5067,-216.873C114.571,-208.95 146.102,-193.067 172,-178 173.477,-177.141 174.986,-176.24 176.5,-175.319"/>
<polygon fill="red" stroke="red" stroke-width="0.301822" points="178.427,-178.242 185.04,-169.964 174.708,-172.311 178.427,-178.242"/>
</g>
<!-- 3 -->
<g id="node4" class="node"><title>3</title>
<polygon fill="lightgrey" stroke="black" points="254.25,-232 233.75,-232 233.75,-214 254.25,-214 254.25,-232"/>
<text text-anchor="middle" x="244" y="-220.8" font-family="Times,serif" font-size="9.00">3</text>
</g>
<!-- 3&#45;&gt;8 -->
<g id="edge31" class="edge"><title>3&#45;&gt;8</title>
<path fill="none" stroke="green" stroke-width="0.90037" d="M244.918,-213.885C247.286,-188.986 251.154,-112.552 216,-66 203.495,-49.4398 183.977,-36.0156 168.886,-27.2628"/>
<polygon fill="green" stroke="green" stroke-width="0.90037" points="170.172,-23.9745 159.727,-22.1995 166.786,-30.1007 170.172,-23.9745"/>
</g>
<!-- 3&#45;&gt;9 -->
<g id="edge23" class="edge"><title>3&#45;&gt;9</title>
<path fill="none" stroke="red" stroke-width="0.475221" d="M233.453,-217.66C230.415,-216.442 227.087,-215.141 224,-214 177.33,-196.755 162.006,-201.216 118,-178 116.416,-177.165 114.826,-176.229 113.258,-175.235"/>
<polygon fill="red" stroke="red" stroke-width="0.475221" points="114.925,-172.127 104.743,-169.199 110.877,-177.838 114.925,-172.127"/>
</g>
<!-- 3&#45;&gt;11 -->
<g id="edge6" class="edge"><title>3&#45;&gt;11</title>
<path fill="none" stroke="green" stroke-width="0.471367" d="M233.38,-215.494C219.469,-206.955 194.337,-191.469 173,-178 171.555,-177.088 170.071,-176.147 168.575,-175.195"/>
<polygon fill="green" stroke="green" stroke-width="0.471367" points="170.393,-172.203 160.083,-169.761 166.62,-178.099 170.393,-172.203"/>
</g>
<!-- 3&#45;&gt;10 -->
<g id="edge14" class="edge"><title>3&#45;&gt;10</title>
<path fill="none" stroke="red" stroke-width="1.07481" d="M238.248,-213.895C232.66,-206.021 223.913,-193.695 216.193,-182.817"/>
<polygon fill="red" stroke="red" stroke-width="1.07481" points="218.944,-180.646 210.302,-174.517 213.235,-184.697 218.944,-180.646"/>
</g>
<!-- 4 -->
<g id="node5" class="node"><title>4</title>
<polygon fill="lightgrey" stroke="black" points="215.25,-232 194.75,-232 194.75,-214 215.25,-214 215.25,-232"/>
<text text-anchor="middle" x="205" y="-220.8" font-family="Times,serif" font-size="9.00">4</text>
</g>
<!-- 4&#45;&gt;8 -->
<g id="edge3" class="edge"><title>4&#45;&gt;8</title>
<path fill="none" stroke="red" stroke-width="0.195075" stroke-dasharray="1,5" d="M210.636,-213.689C216.052,-205.162 223.86,-191.299 227,-178 230.88,-161.563 231.056,-156.395 227,-140 216.425,-97.2516 183.984,-56.0054 163.808,-33.5169"/>
<polygon fill="red" stroke="red" stroke-width="0.195075" points="166.34,-31.1001 156.993,-26.1123 161.19,-35.8405 166.34,-31.1001"/>
</g>
<!-- 4&#45;&gt;9 -->
<g id="edge12" class="edge"><title>4&#45;&gt;9</title>
<path fill="none" stroke="green" stroke-width="0.940799" d="M194.503,-217.416C177.825,-209.975 144.455,-194.434 118,-178 116.479,-177.055 114.934,-176.04 113.399,-174.989"/>
<polygon fill="green" stroke="green" stroke-width="0.940799" points="115.093,-171.894 104.946,-168.844 110.976,-177.556 115.093,-171.894"/>
</g>
<!-- 4&#45;&gt;11 -->
<g id="edge26" class="edge"><title>4&#45;&gt;11</title>
<path fill="none" stroke="green" stroke-width="0.408407" d="M197.156,-213.895C189,-205.467 175.909,-191.939 164.882,-180.545"/>
<polygon fill="green" stroke="green" stroke-width="0.408407" points="167.134,-177.839 157.665,-173.087 162.104,-182.707 167.134,-177.839"/>
</g>
<!-- 4&#45;&gt;10 -->
<g id="edge19" class="edge"><title>4&#45;&gt;10</title>
<path fill="none" stroke="green" stroke-width="0.149133" stroke-dasharray="1,5" d="M204.346,-213.895C203.802,-207.145 202.994,-197.124 202.222,-187.548"/>
<polygon fill="green" stroke="green" stroke-width="0.149133" points="205.705,-187.194 201.412,-177.508 198.727,-187.757 205.705,-187.194"/>
</g>
<!-- 5 -->
<g id="node6" class="node"><title>5</title>
<polygon fill="lightgrey" stroke="black" points="293.25,-232 272.75,-232 272.75,-214 293.25,-214 293.25,-232"/>
<text text-anchor="middle" x="283" y="-220.8" font-family="Times,serif" font-size="9.00">5</text>
</g>
<!-- 5&#45;&gt;8 -->
<g id="edge10" class="edge"><title>5&#45;&gt;8</title>
<path fill="none" stroke="red" stroke-width="0.137815" d="M282.917,-213.886C282.254,-188.989 277.135,-112.563 240,-66 222.221,-43.7075 191.713,-30.0459 170.508,-22.7568"/>
<polygon fill="red" stroke="red" stroke-width="0.137815" points="171.534,-19.4102 160.943,-19.6806 169.391,-26.0741 171.534,-19.4102"/>
</g>
<!-- 5&#45;&gt;9 -->
<g id="edge1" class="edge"><title>5&#45;&gt;9</title>
<path fill="none" stroke="red" stroke-width="0.412957" stroke-dasharray="1,5" d="M272.512,-217.491C269.474,-216.271 266.132,-215.01 263,-214 199.803,-193.622 177.979,-206.489 118,-178 116.383,-177.232 114.767,-176.345 113.182,-175.386"/>
<polygon fill="red" stroke="red" stroke-width="0.412957" points="114.836,-172.273 104.634,-169.417 110.828,-178.012 114.836,-172.273"/>
</g>
<!-- 5&#45;&gt;11 -->
<g id="edge20" class="edge"><title>5&#45;&gt;11</title>
<path fill="none" stroke="red" stroke-width="0.182754" d="M272.485,-217.798C245.034,-206.827 173.296,-178.152 173,-178 171.481,-177.217 169.94,-176.375 168.402,-175.498"/>
<polygon fill="red" stroke="red" stroke-width="0.182754" points="170.16,-172.471 159.799,-170.258 166.519,-178.45 170.16,-172.471"/>
</g>
<!-- 5&#45;&gt;10 -->
<g id="edge28" class="edge"><title>5&#45;&gt;10</title>
<path fill="none" stroke="red" stroke-width="0.626195" d="M272.488,-214.148C260.048,-204.855 238.976,-189.115 222.748,-176.993"/>
<polygon fill="red" stroke="red" stroke-width="0.626195" points="224.423,-173.875 214.317,-170.695 220.234,-179.483 224.423,-173.875"/>
</g>
<!-- 6 -->
<g id="node7" class="node"><title>6</title>
<polygon fill="lightgrey" stroke="black" points="176.25,-232 155.75,-232 155.75,-214 176.25,-214 176.25,-232"/>
<text text-anchor="middle" x="166" y="-220.8" font-family="Times,serif" font-size="9.00">6</text>
</g>
<!-- 6&#45;&gt;9 -->
<g id="edge2" class="edge"><title>6&#45;&gt;9</title>
<path fill="none" stroke="green" stroke-width="0.258656" stroke-dasharray="1,5" d="M156.587,-213.895C145.371,-204.236 126.375,-187.879 112.246,-175.712"/>
<polygon fill="green" stroke="green" stroke-width="0.258656" points="114.447,-172.988 104.585,-169.115 109.879,-178.292 114.447,-172.988"/>
</g>
<!-- 6&#45;&gt;11 -->
<g id="edge21" class="edge"><title>6&#45;&gt;11</title>
<path fill="none" stroke="red" stroke-width="0.182353" d="M163.255,-213.895C160.87,-206.854 157.279,-196.253 153.912,-186.311"/>
<polygon fill="red" stroke="red" stroke-width="0.182353" points="157.195,-185.094 150.672,-176.745 150.565,-187.339 157.195,-185.094"/>
</g>
<!-- 6&#45;&gt;10 -->
<g id="edge15" class="edge"><title>6&#45;&gt;10</title>
<path fill="none" stroke="green" stroke-width="0.787055" d="M170.445,-213.895C174.566,-206.38 180.911,-194.81 186.667,-184.314"/>
<polygon fill="green" stroke="green" stroke-width="0.787055" points="189.763,-185.946 191.503,-175.495 183.625,-182.58 189.763,-185.946"/>
</g>
<!-- 7 -->
<g id="node8" class="node"><title>7</title>
<polygon fill="lightgrey" stroke="black" points="137.25,-232 116.75,-232 116.75,-214 137.25,-214 137.25,-232"/>
<text text-anchor="middle" x="127" y="-220.8" font-family="Times,serif" font-size="9.00">7</text>
</g>
<!-- 7&#45;&gt;9 -->
<g id="edge27" class="edge"><title>7&#45;&gt;9</title>
<path fill="none" stroke="green" stroke-width="0.281237" stroke-dasharray="1,5" d="M122.686,-213.895C118.362,-205.771 111.515,-192.907 105.595,-181.785"/>
<polygon fill="green" stroke="green" stroke-width="0.281237" points="108.506,-179.804 100.718,-172.621 102.327,-183.093 108.506,-179.804"/>
</g>
<!-- 7&#45;&gt;11 -->
<g id="edge8" class="edge"><title>7&#45;&gt;11</title>
<path fill="none" stroke="red" stroke-width="1.1" d="M129.353,-213.895C131.376,-206.927 134.411,-196.474 137.271,-186.622"/>
<polygon fill="red" stroke="red" stroke-width="1.1" points="140.712,-187.324 140.139,-176.745 133.989,-185.373 140.712,-187.324"/>
</g>
<!-- 7&#45;&gt;10 -->
<g id="edge17" class="edge"><title>7&#45;&gt;10</title>
<path fill="none" stroke="red" stroke-width="0.884289" d="M136.543,-213.895C147.205,-204.84 164.799,-189.897 178.76,-178.04"/>
<polygon fill="red" stroke="red" stroke-width="0.884289" points="181.124,-180.624 186.48,-171.482 176.593,-175.288 181.124,-180.624"/>
</g>
<!-- 9&#45;&gt;8 -->
<g id="edge5" class="edge"><title>9&#45;&gt;8</title>
<path fill="none" stroke="red" stroke-width="0.447034" stroke-dasharray="1,5" d="M91.4188,-144.223C88.5911,-125.613 85.8146,-91.8062 97,-66 103.302,-51.4594 115.963,-38.8691 126.967,-29.9597"/>
<polygon fill="red" stroke="red" stroke-width="0.447034" points="129.095,-32.7387 134.926,-23.8928 124.851,-27.1716 129.095,-32.7387"/>
</g>
<!-- 12 -->
<g id="node13" class="node"><title>12</title>
<ellipse fill="none" stroke="black" cx="124" cy="-85" rx="18.0791" ry="18.2703"/>
<text text-anchor="middle" x="124" y="-82.8" font-family="Times,serif" font-size="9.00">12</text>
</g>
<!-- 9&#45;&gt;12 -->
<g id="edge34" class="edge"><title>9&#45;&gt;12</title>
<path fill="none" stroke="green" stroke-width="0.536768" d="M99.3634,-145.128C103.222,-135.868 108.555,-123.067 113.274,-111.743"/>
<polygon fill="green" stroke="green" stroke-width="0.536768" points="116.593,-112.876 117.209,-102.299 110.132,-110.183 116.593,-112.876"/>
</g>
<!-- 11&#45;&gt;8 -->
<g id="edge29" class="edge"><title>11&#45;&gt;8</title>
<path fill="none" stroke="green" stroke-width="0.622557" d="M147.437,-140.531C148.785,-129.978 150.322,-116.244 151,-104 151.934,-87.137 151.674,-82.8754 151,-66 150.662,-57.5298 150.002,-48.2717 149.315,-40.0496"/>
<polygon fill="green" stroke="green" stroke-width="0.622557" points="152.793,-39.6414 148.42,-29.991 145.82,-40.2619 152.793,-39.6414"/>
</g>
<!-- 10&#45;&gt;8 -->
<g id="edge11" class="edge"><title>10&#45;&gt;8</title>
<path fill="none" stroke="green" stroke-width="0.209423" d="M193.903,-141.363C187.134,-122.923 175.86,-92.3093 166,-66 162.627,-57.0001 158.876,-47.1047 155.603,-38.5089"/>
<polygon fill="green" stroke="green" stroke-width="0.209423" points="158.867,-37.2434 152.033,-29.1468 152.326,-39.7376 158.867,-37.2434"/>
</g>
<!-- 12&#45;&gt;8 -->
<g id="edge35" class="edge"><title>12&#45;&gt;8</title>
<path fill="none" stroke="red" stroke-width="0.50455" d="M129.685,-67.191C132.546,-58.7327 136.059,-48.3481 139.171,-39.1479"/>
<polygon fill="red" stroke="red" stroke-width="0.50455" points="142.569,-40.0238 142.458,-29.4295 135.938,-37.7809 142.569,-40.0238"/>
</g>
</g>
</svg>
