<?xml version="1.0" encoding="UTF-8" standalone="no"?>
<!DOCTYPE svg PUBLIC "-//W3C//DTD SVG 1.1//EN"
 "http://www.w3.org/Graphics/SVG/1.1/DTD/svg11.dtd">
<!-- Generated by graphviz version 2.36.0 (20140111.2315)
 -->
<!-- Title: %3 Pages: 1 -->
<svg width="482pt" height="240pt"
 viewBox="0.00 0.00 482.47 240.00" xmlns="http://www.w3.org/2000/svg" xmlns:xlink="http://www.w3.org/1999/xlink">
<g id="graph0" class="graph" transform="scale(1 1) rotate(0) translate(4 236)">
<title>%3</title>
<polygon fill="white" stroke="none" points="-4,4 -4,-236 478.472,-236 478.472,4 -4,4"/>
<!-- 0 -->
<g id="node1" class="node"><title>0</title>
<polygon fill="lightgrey" stroke="black" points="135.172,-168 114.672,-168 114.672,-150 135.172,-150 135.172,-168"/>
<text text-anchor="middle" x="124.922" y="-156.8" font-family="Times,serif" font-size="9.00">0</text>
</g>
<!-- 6 -->
<g id="node7" class="node"><title>6</title>
<ellipse fill="lightblue" stroke="lightblue" cx="248.922" cy="-15" rx="14.2796" ry="14.7"/>
<text text-anchor="middle" x="248.922" y="-12.8" font-family="Times,serif" font-size="9.00">6</text>
</g>
<!-- 0&#45;&gt;6 -->
<g id="edge28" class="edge"><title>0&#45;&gt;6</title>
<path fill="none" stroke="green" stroke-width="0.957168" stroke-dasharray="1,5" d="M130.055,-149.949C140.768,-133.414 166.695,-94.768 192.922,-66 204.258,-53.5661 218.401,-40.9578 229.638,-31.5128"/>
<polygon fill="green" stroke="green" stroke-width="0.957168" points="232.088,-34.0287 237.57,-24.9621 227.631,-28.6314 232.088,-34.0287"/>
</g>
<!-- 9 -->
<g id="node8" class="node"><title>9</title>
<ellipse fill="none" stroke="black" cx="248.922" cy="-85" rx="14.2796" ry="14.7"/>
<text text-anchor="middle" x="248.922" y="-82.8" font-family="Times,serif" font-size="9.00">9</text>
</g>
<!-- 0&#45;&gt;9 -->
<g id="edge31" class="edge"><title>0&#45;&gt;9</title>
<path fill="none" stroke="red" stroke-width="0.577392" stroke-dasharray="1,5" d="M132.616,-149.754C135.912,-146.485 139.919,-142.838 143.922,-140 170.46,-121.186 204.446,-104.947 226.447,-95.3198"/>
<polygon fill="red" stroke="red" stroke-width="0.577392" points="227.832,-98.5343 235.643,-91.3763 225.073,-92.1009 227.832,-98.5343"/>
</g>
<!-- 7 -->
<g id="node9" class="node"><title>7</title>
<ellipse fill="none" stroke="black" cx="334.922" cy="-85" rx="14.2796" ry="14.7"/>
<text text-anchor="middle" x="334.922" y="-82.8" font-family="Times,serif" font-size="9.00">7</text>
</g>
<!-- 0&#45;&gt;7 -->
<g id="edge7" class="edge"><title>0&#45;&gt;7</title>
<path fill="none" stroke="red" stroke-width="1.1" stroke-dasharray="1,5" d="M131.993,-149.706C135.306,-146.272 139.496,-142.512 143.922,-140 195.316,-110.828 215.066,-120.118 271.922,-104 284.826,-100.342 299.207,-96.2354 310.968,-92.8692"/>
<polygon fill="red" stroke="red" stroke-width="1.1" points="312.265,-96.1385 320.914,-90.0201 310.337,-89.4092 312.265,-96.1385"/>
</g>
<!-- 8 -->
<g id="node10" class="node"><title>8</title>
<ellipse fill="none" stroke="black" cx="124.922" cy="-85" rx="14.2796" ry="14.7"/>
<text text-anchor="middle" x="124.922" y="-82.8" font-family="Times,serif" font-size="9.00">8</text>
</g>
<!-- 0&#45;&gt;8 -->
<g id="edge20" class="edge"><title>0&#45;&gt;8</title>
<path fill="none" stroke="green" stroke-width="0.675014" d="M124.922,-149.741C124.922,-140.181 124.922,-123.999 124.922,-110.332"/>
<polygon fill="green" stroke="green" stroke-width="0.675014" points="128.422,-110.085 124.922,-100.085 121.422,-110.085 128.422,-110.085"/>
</g>
<!-- 1 -->
<g id="node2" class="node"><title>1</title>
<polygon fill="lightgrey" stroke="black" points="305.172,-232 284.672,-232 284.672,-214 305.172,-214 305.172,-232"/>
<text text-anchor="middle" x="294.922" y="-220.8" font-family="Times,serif" font-size="9.00">1</text>
</g>
<!-- 1&#45;&gt;6 -->
<g id="edge8" class="edge"><title>1&#45;&gt;6</title>
<path fill="none" stroke="red" stroke-width="0.920978" d="M305.298,-221.009C339.602,-217.501 448.344,-204.43 468.922,-178 479.298,-164.674 472.058,-156.595 468.922,-140 462.364,-105.29 466.323,-89.4688 439.922,-66 392.386,-23.7435 313.415,-16.4755 273.553,-15.6754"/>
<polygon fill="red" stroke="red" stroke-width="0.920978" points="273.432,-12.1744 263.405,-15.5975 273.378,-19.1742 273.432,-12.1744"/>
</g>
<!-- 1&#45;&gt;9 -->
<g id="edge19" class="edge"><title>1&#45;&gt;9</title>
<path fill="none" stroke="green" stroke-width="0.353263" stroke-dasharray="1,5" d="M293.661,-213.668C291.239,-198.639 285.33,-166.123 275.922,-140 271.873,-128.758 266.076,-116.82 260.891,-107.035"/>
<polygon fill="green" stroke="green" stroke-width="0.353263" points="263.862,-105.173 255.997,-98.0736 257.718,-108.528 263.862,-105.173"/>
</g>
<!-- 1&#45;&gt;7 -->
<g id="edge30" class="edge"><title>1&#45;&gt;7</title>
<path fill="none" stroke="green" stroke-width="0.390641" d="M305.275,-220.621C325.218,-217.343 368.609,-207.058 386.922,-178 395.927,-163.712 393.238,-155.664 386.922,-140 383.342,-131.12 366.702,-114.612 353.196,-102.176"/>
<polygon fill="green" stroke="green" stroke-width="0.390641" points="355.489,-99.5309 345.728,-95.4124 350.791,-104.719 355.489,-99.5309"/>
</g>
<!-- 1&#45;&gt;8 -->
<g id="edge29" class="edge"><title>1&#45;&gt;8</title>
<path fill="none" stroke="green" stroke-width="0.820213" d="M284.571,-220.913C240.038,-216.134 66.3115,-196.413 50.9221,-178 40.0912,-165.041 43.2704,-155.056 50.9221,-140 61.6224,-118.945 84.8089,-104.147 102.395,-95.4312"/>
<polygon fill="green" stroke="green" stroke-width="0.820213" points="103.88,-98.6009 111.474,-91.2138 100.931,-92.2524 103.88,-98.6009"/>
</g>
<!-- 12 -->
<g id="node13" class="node"><title>12</title>
<ellipse fill="none" stroke="black" cx="77.9221" cy="-159" rx="18.0791" ry="18.2703"/>
<text text-anchor="middle" x="77.9221" y="-156.8" font-family="Times,serif" font-size="9.00">12</text>
</g>
<!-- 1&#45;&gt;12 -->
<g id="edge25" class="edge"><title>1&#45;&gt;12</title>
<path fill="none" stroke="green" stroke-width="0.27046" d="M284.63,-220.933C255.414,-217.632 169.885,-206.064 104.922,-178 103.532,-177.4 102.137,-176.727 100.752,-176.004"/>
<polygon fill="green" stroke="green" stroke-width="0.27046" points="102.322,-172.864 91.9442,-170.729 98.725,-178.87 102.322,-172.864"/>
</g>
<!-- 2 -->
<g id="node3" class="node"><title>2</title>
<polygon fill="lightgrey" stroke="black" points="460.172,-168 439.672,-168 439.672,-150 460.172,-150 460.172,-168"/>
<text text-anchor="middle" x="449.922" y="-156.8" font-family="Times,serif" font-size="9.00">2</text>
</g>
<!-- 2&#45;&gt;6 -->
<g id="edge15" class="edge"><title>2&#45;&gt;6</title>
<path fill="none" stroke="red" stroke-width="0.23282" stroke-dasharray="1,5" d="M448.991,-149.792C446.523,-131.904 438.171,-89.1553 412.922,-66 373.727,-30.0553 309.361,-19.929 274.049,-17.0912"/>
<polygon fill="red" stroke="red" stroke-width="0.23282" points="273.883,-13.5726 263.673,-16.4024 273.42,-20.5572 273.883,-13.5726"/>
</g>
<!-- 2&#45;&gt;9 -->
<g id="edge12" class="edge"><title>2&#45;&gt;9</title>
<path fill="none" stroke="red" stroke-width="0.459237" d="M439.398,-154.23C408.14,-143.033 315.322,-109.785 271.856,-94.2153"/>
<polygon fill="red" stroke="red" stroke-width="0.459237" points="273.006,-90.9093 262.411,-90.832 270.645,-97.4993 273.006,-90.9093"/>
</g>
<!-- 2&#45;&gt;7 -->
<g id="edge22" class="edge"><title>2&#45;&gt;7</title>
<path fill="none" stroke="green" stroke-width="0.591565" d="M439.418,-149.992C435.024,-146.761 429.811,-143.076 424.922,-140 396.642,-122.204 387.027,-122.071 358.922,-104 357.416,-103.032 355.882,-101.999 354.354,-100.936"/>
<polygon fill="green" stroke="green" stroke-width="0.591565" points="356.055,-97.8442 345.916,-94.768 351.924,-103.495 356.055,-97.8442"/>
</g>
<!-- 10 -->
<g id="node11" class="node"><title>10</title>
<ellipse fill="none" stroke="black" cx="385.922" cy="-85" rx="18.0791" ry="18.2703"/>
<text text-anchor="middle" x="385.922" y="-82.8" font-family="Times,serif" font-size="9.00">10</text>
</g>
<!-- 2&#45;&gt;10 -->
<g id="edge17" class="edge"><title>2&#45;&gt;10</title>
<path fill="none" stroke="red" stroke-width="0.538969" d="M442.58,-149.741C433.413,-139.428 417.396,-121.408 404.725,-107.153"/>
<polygon fill="red" stroke="red" stroke-width="0.538969" points="406.988,-104.431 397.728,-99.2819 401.756,-109.081 406.988,-104.431"/>
</g>
<!-- 3 -->
<g id="node4" class="node"><title>3</title>
<polygon fill="lightgrey" stroke="black" points="213.172,-232 192.672,-232 192.672,-214 213.172,-214 213.172,-232"/>
<text text-anchor="middle" x="202.922" y="-220.8" font-family="Times,serif" font-size="9.00">3</text>
</g>
<!-- 3&#45;&gt;6 -->
<g id="edge13" class="edge"><title>3&#45;&gt;6</title>
<path fill="none" stroke="green" stroke-width="1.01472" d="M192.565,-221.323C155.53,-218.667 30.6216,-207.61 6.92209,-178 -3.63152,-164.815 -0.453546,-155.193 6.92209,-140 47.9192,-55.5491 171.244,-27.4778 224.259,-19.1535"/>
<polygon fill="green" stroke="green" stroke-width="1.01472" points="225.061,-22.5735 234.45,-17.6638 224.048,-15.6472 225.061,-22.5735"/>
</g>
<!-- 3&#45;&gt;9 -->
<g id="edge18" class="edge"><title>3&#45;&gt;9</title>
<path fill="none" stroke="green" stroke-width="0.415978" stroke-dasharray="1,5" d="M204.184,-213.668C206.605,-198.639 212.515,-166.123 221.922,-140 225.971,-128.758 231.768,-116.82 236.953,-107.035"/>
<polygon fill="green" stroke="green" stroke-width="0.415978" points="240.126,-108.528 241.847,-98.0736 233.982,-105.173 240.126,-108.528"/>
</g>
<!-- 3&#45;&gt;7 -->
<g id="edge9" class="edge"><title>3&#45;&gt;7</title>
<path fill="none" stroke="red" stroke-width="0.452952" d="M213.606,-220.524C244.988,-215.948 335.761,-200.918 352.922,-178 368.431,-157.288 357.735,-126.819 347.4,-106.7"/>
<polygon fill="red" stroke="red" stroke-width="0.452952" points="350.359,-104.817 342.472,-97.743 344.226,-108.192 350.359,-104.817"/>
</g>
<!-- 3&#45;&gt;8 -->
<g id="edge27" class="edge"><title>3&#45;&gt;8</title>
<path fill="none" stroke="red" stroke-width="0.104028" d="M192.403,-221.162C156.534,-218.067 40.0256,-205.977 17.9221,-178 7.45223,-164.748 9.06989,-154.383 17.9221,-140 35.8631,-110.849 74.9281,-96.8649 100.562,-90.5922"/>
<polygon fill="red" stroke="red" stroke-width="0.104028" points="101.623,-93.9418 110.624,-88.3543 100.103,-87.1088 101.623,-93.9418"/>
</g>
<!-- 11 -->
<g id="node12" class="node"><title>11</title>
<ellipse fill="none" stroke="black" cx="248.922" cy="-159" rx="18.0791" ry="18.2703"/>
<text text-anchor="middle" x="248.922" y="-156.8" font-family="Times,serif" font-size="9.00">11</text>
</g>
<!-- 3&#45;&gt;11 -->
<g id="edge6" class="edge"><title>3&#45;&gt;11</title>
<path fill="none" stroke="red" stroke-width="0.873057" d="M208.936,-213.895C214.778,-206.021 223.922,-193.695 231.993,-182.817"/>
<polygon fill="red" stroke="red" stroke-width="0.873057" points="235.004,-184.633 238.152,-174.517 229.382,-180.462 235.004,-184.633"/>
</g>
<!-- 4 -->
<g id="node5" class="node"><title>4</title>
<polygon fill="lightgrey" stroke="black" points="174.172,-168 153.672,-168 153.672,-150 174.172,-150 174.172,-168"/>
<text text-anchor="middle" x="163.922" y="-156.8" font-family="Times,serif" font-size="9.00">4</text>
</g>
<!-- 4&#45;&gt;6 -->
<g id="edge24" class="edge"><title>4&#45;&gt;6</title>
<path fill="none" stroke="red" stroke-width="0.414949" d="M168.736,-149.959C181.594,-128.478 217.066,-69.2186 236.235,-37.1948"/>
<polygon fill="red" stroke="red" stroke-width="0.414949" points="239.485,-38.5807 241.618,-28.2028 233.478,-34.9854 239.485,-38.5807"/>
</g>
<!-- 4&#45;&gt;9 -->
<g id="edge11" class="edge"><title>4&#45;&gt;9</title>
<path fill="none" stroke="green" stroke-width="0.115424" d="M173.673,-149.741C187.463,-138.059 212.927,-116.49 230.382,-101.704"/>
<polygon fill="green" stroke="green" stroke-width="0.115424" points="232.853,-104.198 238.221,-95.0642 228.329,-98.857 232.853,-104.198"/>
</g>
<!-- 4&#45;&gt;7 -->
<g id="edge2" class="edge"><title>4&#45;&gt;7</title>
<path fill="none" stroke="red" stroke-width="1.05333" d="M174.361,-153.604C201.537,-142.162 274.953,-111.25 312.357,-95.501"/>
<polygon fill="red" stroke="red" stroke-width="1.05333" points="314.026,-98.5961 321.884,-91.4898 311.309,-92.1447 314.026,-98.5961"/>
</g>
<!-- 4&#45;&gt;8 -->
<g id="edge3" class="edge"><title>4&#45;&gt;8</title>
<path fill="none" stroke="green" stroke-width="0.250862" d="M159.448,-149.741C153.889,-139.477 144.194,-121.579 136.49,-107.357"/>
<polygon fill="green" stroke="green" stroke-width="0.250862" points="139.391,-105.363 131.55,-98.2368 133.236,-108.697 139.391,-105.363"/>
</g>
<!-- 5 -->
<g id="node6" class="node"><title>5</title>
<polygon fill="lightgrey" stroke="black" points="344.172,-168 323.672,-168 323.672,-150 344.172,-150 344.172,-168"/>
<text text-anchor="middle" x="333.922" y="-156.8" font-family="Times,serif" font-size="9.00">5</text>
</g>
<!-- 5&#45;&gt;6 -->
<g id="edge4" class="edge"><title>5&#45;&gt;6</title>
<path fill="none" stroke="red" stroke-width="0.102261" d="M329.109,-149.959C316.25,-128.478 280.778,-69.2186 261.609,-37.1948"/>
<polygon fill="red" stroke="red" stroke-width="0.102261" points="264.366,-34.9854 256.227,-28.2028 258.36,-38.5807 264.366,-34.9854"/>
</g>
<!-- 5&#45;&gt;9 -->
<g id="edge1" class="edge"><title>5&#45;&gt;9</title>
<path fill="none" stroke="green" stroke-width="0.344781" stroke-dasharray="1,5" d="M324.172,-149.741C310.381,-138.059 284.917,-116.49 267.462,-101.704"/>
<polygon fill="green" stroke="green" stroke-width="0.344781" points="269.516,-98.857 259.623,-95.0642 264.991,-104.198 269.516,-98.857"/>
</g>
<!-- 5&#45;&gt;7 -->
<g id="edge26" class="edge"><title>5&#45;&gt;7</title>
<path fill="none" stroke="red" stroke-width="0.29497" d="M334.037,-149.741C334.17,-140.181 334.394,-123.999 334.584,-110.332"/>
<polygon fill="red" stroke="red" stroke-width="0.29497" points="338.087,-110.133 334.726,-100.085 331.088,-110.036 338.087,-110.133"/>
</g>
<!-- 5&#45;&gt;8 -->
<g id="edge10" class="edge"><title>5&#45;&gt;8</title>
<path fill="none" stroke="green" stroke-width="0.438268" d="M323.558,-154.43C291.464,-143.373 193.175,-109.513 148.032,-93.9614"/>
<polygon fill="green" stroke="green" stroke-width="0.438268" points="149.101,-90.6279 138.507,-90.6799 146.821,-97.2462 149.101,-90.6279"/>
</g>
<!-- 5&#45;&gt;10 -->
<g id="edge23" class="edge"><title>5&#45;&gt;10</title>
<path fill="none" stroke="green" stroke-width="1.1" d="M339.887,-149.741C347.089,-139.769 359.495,-122.591 369.615,-108.579"/>
<polygon fill="green" stroke="green" stroke-width="1.1" points="372.536,-110.513 375.553,-100.357 366.861,-106.414 372.536,-110.513"/>
</g>
<!-- 9&#45;&gt;6 -->
<g id="edge21" class="edge"><title>9&#45;&gt;6</title>
<path fill="none" stroke="red" stroke-width="0.234852" d="M248.922,-69.9104C248.922,-61.3398 248.922,-50.1632 248.922,-40.2102"/>
<polygon fill="red" stroke="red" stroke-width="0.234852" points="252.422,-40.0716 248.922,-30.0716 245.422,-40.0716 252.422,-40.0716"/>
</g>
<!-- 8&#45;&gt;6 -->
<g id="edge14" class="edge"><title>8&#45;&gt;6</title>
<path fill="none" stroke="red" stroke-width="1.04926" d="M136.941,-76.2743C142.116,-73.0175 148.265,-69.2387 153.922,-66 178.69,-51.8194 207.818,-36.7135 227.228,-26.8631"/>
<polygon fill="red" stroke="red" stroke-width="1.04926" points="228.817,-29.9818 236.166,-22.3503 225.662,-23.7331 228.817,-29.9818"/>
</g>
<!-- 10&#45;&gt;6 -->
<g id="edge5" class="edge"><title>10&#45;&gt;6</title>
<path fill="none" stroke="green" stroke-width="0.344086" d="M371.046,-73.8855C366.872,-71.2 362.282,-68.3858 357.922,-66 328.938,-50.1394 294.002,-34.7289 271.631,-25.3053"/>
<polygon fill="green" stroke="green" stroke-width="0.344086" points="272.881,-22.0341 262.304,-21.4168 270.187,-28.4952 272.881,-22.0341"/>
</g>
<!-- 11&#45;&gt;9 -->
<g id="edge16" class="edge"><title>11&#45;&gt;9</title>
<path fill="none" stroke="red" stroke-width="0.165003" d="M248.922,-140.571C248.922,-131.402 248.922,-120.019 248.922,-110.026"/>
<polygon fill="red" stroke="red" stroke-width="0.165003" points="252.422,-109.898 248.922,-99.8983 245.422,-109.898 252.422,-109.898"/>
</g>
<!-- 12&#45;&gt;8 -->
<g id="edge32" class="edge"><title>12&#45;&gt;8</title>
<path fill="none" stroke="green" stroke-width="0.220916" d="M87.6605,-143.082C94.5346,-132.551 103.834,-118.305 111.423,-106.679"/>
<polygon fill="green" stroke="green" stroke-width="0.220916" points="114.528,-108.326 117.064,-98.0385 108.667,-104.499 114.528,-108.326"/>
</g>
</g>
</svg>
