<?xml version="1.0" encoding="UTF-8" standalone="no"?>
<!DOCTYPE svg PUBLIC "-//W3C//DTD SVG 1.1//EN"
 "http://www.w3.org/Graphics/SVG/1.1/DTD/svg11.dtd">
<!-- Generated by graphviz version 2.36.0 (20140111.2315)
 -->
<!-- Title: %3 Pages: 1 -->
<svg width="301pt" height="240pt"
 viewBox="0.00 0.00 301.00 240.00" xmlns="http://www.w3.org/2000/svg" xmlns:xlink="http://www.w3.org/1999/xlink">
<g id="graph0" class="graph" transform="scale(1 1) rotate(0) translate(4 236)">
<title>%3</title>
<polygon fill="white" stroke="none" points="-4,4 -4,-236 297,-236 297,4 -4,4"/>
<!-- 0 -->
<g id="node1" class="node"><title>0</title>
<polygon fill="lightgrey" stroke="black" points="215.25,-232 194.75,-232 194.75,-214 215.25,-214 215.25,-232"/>
<text text-anchor="middle" x="205" y="-220.8" font-family="Times,serif" font-size="9.00">0</text>
</g>
<!-- 11 -->
<g id="node10" class="node"><title>11</title>
<ellipse fill="none" stroke="black" cx="154" cy="-159" rx="18.0791" ry="18.2703"/>
<text text-anchor="middle" x="154" y="-156.8" font-family="Times,serif" font-size="9.00">11</text>
</g>
<!-- 0&#45;&gt;11 -->
<g id="edge11" class="edge"><title>0&#45;&gt;11</title>
<path fill="none" stroke="red" stroke-width="0.217657" d="M198.333,-213.895C191.554,-205.654 180.763,-192.536 171.525,-181.305"/>
<polygon fill="red" stroke="red" stroke-width="0.217657" points="174.209,-179.058 165.153,-173.558 168.802,-183.505 174.209,-179.058"/>
</g>
<!-- 10 -->
<g id="node11" class="node"><title>10</title>
<ellipse fill="none" stroke="black" cx="99" cy="-159" rx="18.0791" ry="18.2703"/>
<text text-anchor="middle" x="99" y="-156.8" font-family="Times,serif" font-size="9.00">10</text>
</g>
<!-- 0&#45;&gt;10 -->
<g id="edge2" class="edge"><title>0&#45;&gt;10</title>
<path fill="none" stroke="red" stroke-width="0.926927" d="M194.544,-216.352C179.473,-208.155 150.835,-192.368 127,-178 125.537,-177.118 124.038,-176.2 122.532,-175.265"/>
<polygon fill="red" stroke="red" stroke-width="0.926927" points="124.335,-172.264 114.012,-169.876 120.593,-178.18 124.335,-172.264"/>
</g>
<!-- 9 -->
<g id="node12" class="node"><title>9</title>
<ellipse fill="none" stroke="black" cx="205" cy="-159" rx="14.2796" ry="14.7"/>
<text text-anchor="middle" x="205" y="-156.8" font-family="Times,serif" font-size="9.00">9</text>
</g>
<!-- 0&#45;&gt;9 -->
<g id="edge25" class="edge"><title>0&#45;&gt;9</title>
<path fill="none" stroke="green" stroke-width="0.447739" d="M205,-213.895C205,-206.391 205,-194.845 205,-184.361"/>
<polygon fill="green" stroke="green" stroke-width="0.447739" points="208.5,-184.035 205,-174.035 201.5,-184.035 208.5,-184.035"/>
</g>
<!-- 1 -->
<g id="node2" class="node"><title>1</title>
<polygon fill="lightgrey" stroke="black" points="98.25,-232 77.75,-232 77.75,-214 98.25,-214 98.25,-232"/>
<text text-anchor="middle" x="88" y="-220.8" font-family="Times,serif" font-size="9.00">1</text>
</g>
<!-- 8 -->
<g id="node9" class="node"><title>8</title>
<ellipse fill="lightblue" stroke="lightblue" cx="124" cy="-15" rx="14.2796" ry="14.7"/>
<text text-anchor="middle" x="124" y="-12.8" font-family="Times,serif" font-size="9.00">8</text>
</g>
<!-- 1&#45;&gt;8 -->
<g id="edge24" class="edge"><title>1&#45;&gt;8</title>
<path fill="none" stroke="red" stroke-width="0.743206" d="M84.0366,-213.805C80.085,-205.143 74.2847,-190.968 72,-178 69.0697,-161.367 68.6689,-156.557 72,-140 79.6484,-101.984 99.2654,-61.0941 112.098,-37.0663"/>
<polygon fill="red" stroke="red" stroke-width="0.743206" points="115.248,-38.6012 116.967,-28.1467 109.104,-35.2472 115.248,-38.6012"/>
</g>
<!-- 1&#45;&gt;11 -->
<g id="edge4" class="edge"><title>1&#45;&gt;11</title>
<path fill="none" stroke="red" stroke-width="0.62156" d="M96.6283,-213.895C106.004,-205.088 121.308,-190.71 133.753,-179.02"/>
<polygon fill="red" stroke="red" stroke-width="0.62156" points="136.162,-181.559 141.054,-172.161 131.369,-176.457 136.162,-181.559"/>
</g>
<!-- 1&#45;&gt;10 -->
<g id="edge13" class="edge"><title>1&#45;&gt;10</title>
<path fill="none" stroke="red" stroke-width="0.2019" d="M89.4381,-213.895C90.6441,-207.097 92.4389,-196.981 94.1488,-187.343"/>
<polygon fill="red" stroke="red" stroke-width="0.2019" points="97.6383,-187.71 95.9391,-177.252 90.7459,-186.487 97.6383,-187.71"/>
</g>
<!-- 1&#45;&gt;9 -->
<g id="edge18" class="edge"><title>1&#45;&gt;9</title>
<path fill="none" stroke="red" stroke-width="0.16166" d="M98.4611,-217.372C119.459,-208.03 166.011,-187.04 181,-178 182.533,-177.075 184.087,-176.074 185.629,-175.035"/>
<polygon fill="red" stroke="red" stroke-width="0.16166" points="188.044,-177.607 194.094,-168.909 183.94,-171.936 188.044,-177.607"/>
</g>
<!-- 2 -->
<g id="node3" class="node"><title>2</title>
<polygon fill="lightgrey" stroke="black" points="176.25,-232 155.75,-232 155.75,-214 176.25,-214 176.25,-232"/>
<text text-anchor="middle" x="166" y="-220.8" font-family="Times,serif" font-size="9.00">2</text>
</g>
<!-- 2&#45;&gt;11 -->
<g id="edge22" class="edge"><title>2&#45;&gt;11</title>
<path fill="none" stroke="red" stroke-width="0.486076" d="M164.431,-213.895C163.116,-207.097 161.158,-196.981 159.292,-187.343"/>
<polygon fill="red" stroke="red" stroke-width="0.486076" points="162.676,-186.405 157.339,-177.252 155.803,-187.735 162.676,-186.405"/>
</g>
<!-- 2&#45;&gt;10 -->
<g id="edge16" class="edge"><title>2&#45;&gt;10</title>
<path fill="none" stroke="red" stroke-width="0.301822" d="M157.241,-213.895C147.724,-205.088 132.187,-190.71 119.553,-179.02"/>
<polygon fill="red" stroke="red" stroke-width="0.301822" points="121.859,-176.384 112.142,-172.161 117.105,-181.522 121.859,-176.384"/>
</g>
<!-- 2&#45;&gt;9 -->
<g id="edge8" class="edge"><title>2&#45;&gt;9</title>
<path fill="none" stroke="red" stroke-width="0.723278" d="M171.099,-213.895C176.377,-205.503 184.837,-192.054 191.985,-180.691"/>
<polygon fill="red" stroke="red" stroke-width="0.723278" points="194.988,-182.49 197.35,-172.161 189.063,-178.762 194.988,-182.49"/>
</g>
<!-- 3 -->
<g id="node4" class="node"><title>3</title>
<polygon fill="lightgrey" stroke="black" points="254.25,-232 233.75,-232 233.75,-214 254.25,-214 254.25,-232"/>
<text text-anchor="middle" x="244" y="-220.8" font-family="Times,serif" font-size="9.00">3</text>
</g>
<!-- 3&#45;&gt;8 -->
<g id="edge23" class="edge"><title>3&#45;&gt;8</title>
<path fill="none" stroke="green" stroke-width="0.90037" d="M245.4,-213.942C249.234,-189.209 257.508,-113.202 224,-66 205.974,-40.6077 171.269,-27.4047 147.868,-21.0857"/>
<polygon fill="green" stroke="green" stroke-width="0.90037" points="148.561,-17.6515 138.013,-18.6477 146.88,-24.4467 148.561,-17.6515"/>
</g>
<!-- 3&#45;&gt;11 -->
<g id="edge1" class="edge"><title>3&#45;&gt;11</title>
<path fill="none" stroke="green" stroke-width="0.471367" d="M233.676,-214.888C219.947,-205.43 195.292,-188.445 177.032,-175.866"/>
<polygon fill="green" stroke="green" stroke-width="0.471367" points="178.878,-172.888 168.657,-170.097 174.907,-178.653 178.878,-172.888"/>
</g>
<!-- 3&#45;&gt;10 -->
<g id="edge9" class="edge"><title>3&#45;&gt;10</title>
<path fill="none" stroke="red" stroke-width="1.07481" d="M233.432,-217.715C230.394,-216.499 227.071,-215.184 224,-214 181.093,-197.46 168.136,-198.553 127,-178 125.436,-177.219 123.851,-176.371 122.271,-175.483"/>
<polygon fill="red" stroke="red" stroke-width="1.07481" points="123.837,-172.339 113.471,-170.145 120.206,-178.324 123.837,-172.339"/>
</g>
<!-- 3&#45;&gt;9 -->
<g id="edge17" class="edge"><title>3&#45;&gt;9</title>
<path fill="none" stroke="red" stroke-width="0.475221" d="M238.901,-213.895C233.623,-205.503 225.163,-192.054 218.015,-180.691"/>
<polygon fill="red" stroke="red" stroke-width="0.475221" points="220.937,-178.762 212.65,-172.161 215.012,-182.49 220.937,-178.762"/>
</g>
<!-- 4 -->
<g id="node5" class="node"><title>4</title>
<polygon fill="lightgrey" stroke="black" points="293.25,-232 272.75,-232 272.75,-214 293.25,-214 293.25,-232"/>
<text text-anchor="middle" x="283" y="-220.8" font-family="Times,serif" font-size="9.00">4</text>
</g>
<!-- 4&#45;&gt;11 -->
<g id="edge19" class="edge"><title>4&#45;&gt;11</title>
<path fill="none" stroke="green" stroke-width="0.408407" d="M272.589,-217.79C250.144,-208.667 197.862,-187.16 181,-178 179.701,-177.294 178.384,-176.544 177.067,-175.765"/>
<polygon fill="green" stroke="green" stroke-width="0.408407" points="178.881,-172.772 168.555,-170.399 175.147,-178.693 178.881,-172.772"/>
</g>
<!-- 4&#45;&gt;9 -->
<g id="edge7" class="edge"><title>4&#45;&gt;9</title>
<path fill="none" stroke="green" stroke-width="0.940799" d="M272.803,-213.895C260.399,-204.035 239.213,-187.195 223.818,-174.958"/>
<polygon fill="green" stroke="green" stroke-width="0.940799" points="225.96,-172.189 215.953,-168.707 221.604,-177.669 225.96,-172.189"/>
</g>
<!-- 5 -->
<g id="node6" class="node"><title>5</title>
<polygon fill="lightgrey" stroke="black" points="20.25,-232 -0.25,-232 -0.25,-214 20.25,-214 20.25,-232"/>
<text text-anchor="middle" x="10" y="-220.8" font-family="Times,serif" font-size="9.00">5</text>
</g>
<!-- 5&#45;&gt;8 -->
<g id="edge5" class="edge"><title>5&#45;&gt;8</title>
<path fill="none" stroke="red" stroke-width="0.137815" d="M12.6088,-213.756C20.4216,-189.734 45.1984,-118.202 79,-66 86.7569,-54.0206 97.3622,-42.0846 106.329,-32.8804"/>
<polygon fill="red" stroke="red" stroke-width="0.137815" points="109.06,-35.0999 113.674,-25.5625 104.12,-30.1408 109.06,-35.0999"/>
</g>
<!-- 5&#45;&gt;11 -->
<g id="edge14" class="edge"><title>5&#45;&gt;11</title>
<path fill="none" stroke="red" stroke-width="0.182754" d="M20.4199,-217.517C23.1981,-216.348 26.2046,-215.107 29,-214 71.7559,-197.074 84.8643,-198.553 126,-178 127.564,-177.219 129.149,-176.371 130.729,-175.483"/>
<polygon fill="red" stroke="red" stroke-width="0.182754" points="132.794,-178.324 139.529,-170.145 129.163,-172.339 132.794,-178.324"/>
</g>
<!-- 5&#45;&gt;10 -->
<g id="edge20" class="edge"><title>5&#45;&gt;10</title>
<path fill="none" stroke="red" stroke-width="0.626195" d="M20.559,-214.644C34.1711,-205.162 58.215,-188.412 76.1061,-175.949"/>
<polygon fill="red" stroke="red" stroke-width="0.626195" points="78.1175,-178.813 84.3222,-170.225 74.1162,-173.069 78.1175,-178.813"/>
</g>
<!-- 6 -->
<g id="node7" class="node"><title>6</title>
<polygon fill="lightgrey" stroke="black" points="137.25,-232 116.75,-232 116.75,-214 137.25,-214 137.25,-232"/>
<text text-anchor="middle" x="127" y="-220.8" font-family="Times,serif" font-size="9.00">6</text>
</g>
<!-- 6&#45;&gt;11 -->
<g id="edge15" class="edge"><title>6&#45;&gt;11</title>
<path fill="none" stroke="red" stroke-width="0.182353" d="M130.53,-213.895C133.693,-206.631 138.506,-195.579 142.952,-185.37"/>
<polygon fill="red" stroke="red" stroke-width="0.182353" points="146.252,-186.558 147.036,-175.992 139.834,-183.763 146.252,-186.558"/>
</g>
<!-- 6&#45;&gt;10 -->
<g id="edge10" class="edge"><title>6&#45;&gt;10</title>
<path fill="none" stroke="green" stroke-width="0.787055" d="M123.339,-213.895C120.059,-206.631 115.068,-195.579 110.458,-185.37"/>
<polygon fill="green" stroke="green" stroke-width="0.787055" points="113.528,-183.665 106.222,-175.992 107.148,-186.546 113.528,-183.665"/>
</g>
<!-- 7 -->
<g id="node8" class="node"><title>7</title>
<polygon fill="lightgrey" stroke="black" points="59.25,-232 38.75,-232 38.75,-214 59.25,-214 59.25,-232"/>
<text text-anchor="middle" x="49" y="-220.8" font-family="Times,serif" font-size="9.00">7</text>
</g>
<!-- 7&#45;&gt;11 -->
<g id="edge3" class="edge"><title>7&#45;&gt;11</title>
<path fill="none" stroke="red" stroke-width="1.1" d="M59.5628,-216.193C74.4946,-207.934 102.568,-192.213 126,-178 127.461,-177.114 128.957,-176.193 130.462,-175.256"/>
<polygon fill="red" stroke="red" stroke-width="1.1" points="132.404,-178.169 138.978,-169.861 128.658,-172.256 132.404,-178.169"/>
</g>
<!-- 7&#45;&gt;10 -->
<g id="edge12" class="edge"><title>7&#45;&gt;10</title>
<path fill="none" stroke="red" stroke-width="0.884289" d="M55.5366,-213.895C62.0336,-205.838 72.2893,-193.121 81.2072,-182.063"/>
<polygon fill="red" stroke="red" stroke-width="0.884289" points="84.1285,-184.016 87.6816,-174.035 78.6795,-179.622 84.1285,-184.016"/>
</g>
<!-- 11&#45;&gt;8 -->
<g id="edge21" class="edge"><title>11&#45;&gt;8</title>
<path fill="none" stroke="green" stroke-width="0.622557" d="M150.381,-140.871C145.047,-115.624 135.055,-68.3278 129.017,-39.7453"/>
<polygon fill="green" stroke="green" stroke-width="0.622557" points="132.405,-38.8526 126.914,-29.7921 125.557,-40.2996 132.405,-38.8526"/>
</g>
<!-- 10&#45;&gt;8 -->
<g id="edge6" class="edge"><title>10&#45;&gt;8</title>
<path fill="none" stroke="green" stroke-width="0.209423" d="M102.065,-140.588C106.528,-115.24 114.827,-68.1043 119.838,-39.6394"/>
<polygon fill="green" stroke="green" stroke-width="0.209423" points="123.296,-40.1839 121.583,-29.7284 116.402,-38.9701 123.296,-40.1839"/>
</g>
<!-- 12 -->
<g id="node13" class="node"><title>12</title>
<ellipse fill="none" stroke="black" cx="197" cy="-85" rx="18.0791" ry="18.2703"/>
<text text-anchor="middle" x="197" y="-82.8" font-family="Times,serif" font-size="9.00">12</text>
</g>
<!-- 9&#45;&gt;12 -->
<g id="edge26" class="edge"><title>9&#45;&gt;12</title>
<path fill="none" stroke="green" stroke-width="0.536768" d="M203.458,-144.118C202.49,-135.414 201.21,-123.893 200.045,-113.406"/>
<polygon fill="green" stroke="green" stroke-width="0.536768" points="203.517,-112.959 198.934,-103.406 196.56,-113.732 203.517,-112.959"/>
</g>
<!-- 12&#45;&gt;8 -->
<g id="edge27" class="edge"><title>12&#45;&gt;8</title>
<path fill="none" stroke="red" stroke-width="0.50455" d="M183.949,-71.843C172.266,-60.9603 155.025,-44.9001 142.028,-32.7929"/>
<polygon fill="red" stroke="red" stroke-width="0.50455" points="144.274,-30.1019 134.571,-25.8469 139.503,-35.224 144.274,-30.1019"/>
</g>
</g>
</svg>
