<?xml version="1.0" encoding="UTF-8" standalone="no"?>
<!DOCTYPE svg PUBLIC "-//W3C//DTD SVG 1.1//EN"
 "http://www.w3.org/Graphics/SVG/1.1/DTD/svg11.dtd">
<!-- Generated by graphviz version 2.36.0 (20140111.2315)
 -->
<!-- Title: %3 Pages: 1 -->
<svg width="344pt" height="240pt"
 viewBox="0.00 0.00 343.85 240.00" xmlns="http://www.w3.org/2000/svg" xmlns:xlink="http://www.w3.org/1999/xlink">
<g id="graph0" class="graph" transform="scale(1 1) rotate(0) translate(4 236)">
<title>%3</title>
<polygon fill="white" stroke="none" points="-4,4 -4,-236 339.853,-236 339.853,4 -4,4"/>
<!-- 0 -->
<g id="node1" class="node"><title>0</title>
<polygon fill="lightgrey" stroke="black" points="113.25,-168 92.75,-168 92.75,-150 113.25,-150 113.25,-168"/>
<text text-anchor="middle" x="103" y="-156.8" font-family="Times,serif" font-size="9.00">0</text>
</g>
<!-- 8 -->
<g id="node8" class="node"><title>8</title>
<ellipse fill="none" stroke="black" cx="128" cy="-85" rx="14.2796" ry="14.7"/>
<text text-anchor="middle" x="128" y="-82.8" font-family="Times,serif" font-size="9.00">8</text>
</g>
<!-- 0&#45;&gt;8 -->
<g id="edge13" class="edge"><title>0&#45;&gt;8</title>
<path fill="none" stroke="green" stroke-width="0.675014" d="M105.868,-149.741C109.315,-139.813 115.242,-122.744 120.095,-108.767"/>
<polygon fill="green" stroke="green" stroke-width="0.675014" points="123.414,-109.877 123.388,-99.2819 116.802,-107.581 123.414,-109.877"/>
</g>
<!-- 1 -->
<g id="node2" class="node"><title>1</title>
<polygon fill="lightgrey" stroke="black" points="20.25,-232 -0.25,-232 -0.25,-214 20.25,-214 20.25,-232"/>
<text text-anchor="middle" x="10" y="-220.8" font-family="Times,serif" font-size="9.00">1</text>
</g>
<!-- 6 -->
<g id="node7" class="node"><title>6</title>
<ellipse fill="lightblue" stroke="lightblue" cx="209" cy="-15" rx="14.2796" ry="14.7"/>
<text text-anchor="middle" x="209" y="-12.8" font-family="Times,serif" font-size="9.00">6</text>
</g>
<!-- 1&#45;&gt;6 -->
<g id="edge5" class="edge"><title>1&#45;&gt;6</title>
<path fill="none" stroke="red" stroke-width="0.920978" d="M7.76183,-213.798C4.03156,-198.42 -1.93688,-164.589 10,-140 44.397,-69.1447 140.478,-34.5607 185.351,-21.8957"/>
<polygon fill="red" stroke="red" stroke-width="0.920978" points="186.355,-25.25 195.097,-19.2649 184.531,-18.4918 186.355,-25.25"/>
</g>
<!-- 1&#45;&gt;8 -->
<g id="edge19" class="edge"><title>1&#45;&gt;8</title>
<path fill="none" stroke="green" stroke-width="0.820213" d="M9.78623,-213.873C9.78303,-198.026 11.8528,-162.576 29,-140 47.8949,-115.123 81.6964,-100.279 104.482,-92.6249"/>
<polygon fill="green" stroke="green" stroke-width="0.820213" points="105.594,-95.9442 114.082,-89.6041 103.493,-89.2669 105.594,-95.9442"/>
</g>
<!-- 12 -->
<g id="node12" class="node"><title>12</title>
<ellipse fill="none" stroke="black" cx="56" cy="-159" rx="18.0791" ry="18.2703"/>
<text text-anchor="middle" x="56" y="-156.8" font-family="Times,serif" font-size="9.00">12</text>
</g>
<!-- 1&#45;&gt;12 -->
<g id="edge17" class="edge"><title>1&#45;&gt;12</title>
<path fill="none" stroke="green" stroke-width="0.27046" d="M16.0137,-213.895C21.8554,-206.021 31.0003,-193.695 39.071,-182.817"/>
<polygon fill="green" stroke="green" stroke-width="0.27046" points="42.0819,-184.633 45.2296,-174.517 36.4602,-180.462 42.0819,-184.633"/>
</g>
<!-- 2 -->
<g id="node3" class="node"><title>2</title>
<polygon fill="lightgrey" stroke="black" points="269.25,-168 248.75,-168 248.75,-150 269.25,-150 269.25,-168"/>
<text text-anchor="middle" x="259" y="-156.8" font-family="Times,serif" font-size="9.00">2</text>
</g>
<!-- 10 -->
<g id="node9" class="node"><title>10</title>
<ellipse fill="none" stroke="black" cx="255" cy="-85" rx="18.0791" ry="18.2703"/>
<text text-anchor="middle" x="255" y="-82.8" font-family="Times,serif" font-size="9.00">10</text>
</g>
<!-- 2&#45;&gt;10 -->
<g id="edge12" class="edge"><title>2&#45;&gt;10</title>
<path fill="none" stroke="red" stroke-width="0.538969" d="M258.541,-149.741C258.054,-140.968 257.257,-126.619 256.542,-113.754"/>
<polygon fill="red" stroke="red" stroke-width="0.538969" points="260.019,-113.243 255.97,-103.452 253.03,-113.631 260.019,-113.243"/>
</g>
<!-- 9 -->
<g id="node11" class="node"><title>9</title>
<ellipse fill="none" stroke="black" cx="306" cy="-85" rx="14.2796" ry="14.7"/>
<text text-anchor="middle" x="306" y="-82.8" font-family="Times,serif" font-size="9.00">9</text>
</g>
<!-- 2&#45;&gt;9 -->
<g id="edge8" class="edge"><title>2&#45;&gt;9</title>
<path fill="none" stroke="red" stroke-width="0.459237" d="M264.391,-149.741C271.235,-139.257 283.278,-120.808 292.652,-106.448"/>
<polygon fill="red" stroke="red" stroke-width="0.459237" points="295.81,-108.013 298.346,-97.7258 289.949,-104.186 295.81,-108.013"/>
</g>
<!-- 3 -->
<g id="node4" class="node"><title>3</title>
<polygon fill="lightgrey" stroke="black" points="316.25,-232 295.75,-232 295.75,-214 316.25,-214 316.25,-232"/>
<text text-anchor="middle" x="306" y="-220.8" font-family="Times,serif" font-size="9.00">3</text>
</g>
<!-- 3&#45;&gt;6 -->
<g id="edge9" class="edge"><title>3&#45;&gt;6</title>
<path fill="none" stroke="green" stroke-width="1.01472" d="M312.899,-213.9C319.531,-205.538 329.103,-191.8 333,-178 338.829,-157.355 334.123,-73.2525 329,-66 307.043,-34.917 261.95,-23.0886 233.725,-18.6352"/>
<polygon fill="green" stroke="green" stroke-width="1.01472" points="233.854,-15.12 223.47,-17.2237 232.899,-22.0546 233.854,-15.12"/>
</g>
<!-- 3&#45;&gt;8 -->
<g id="edge18" class="edge"><title>3&#45;&gt;8</title>
<path fill="none" stroke="red" stroke-width="0.104028" d="M295.681,-221.883C269.549,-221.026 200.071,-215.173 161,-178 142.156,-160.072 134.047,-130.63 130.574,-109.89"/>
<polygon fill="red" stroke="red" stroke-width="0.104028" points="134.032,-109.346 129.148,-99.9442 127.103,-110.34 134.032,-109.346"/>
</g>
<!-- 11 -->
<g id="node10" class="node"><title>11</title>
<ellipse fill="none" stroke="black" cx="306" cy="-159" rx="18.0791" ry="18.2703"/>
<text text-anchor="middle" x="306" y="-156.8" font-family="Times,serif" font-size="9.00">11</text>
</g>
<!-- 3&#45;&gt;11 -->
<g id="edge4" class="edge"><title>3&#45;&gt;11</title>
<path fill="none" stroke="red" stroke-width="0.873057" d="M306,-213.895C306,-207.145 306,-197.124 306,-187.548"/>
<polygon fill="red" stroke="red" stroke-width="0.873057" points="309.5,-187.508 306,-177.508 302.5,-187.508 309.5,-187.508"/>
</g>
<!-- 4 -->
<g id="node5" class="node"><title>4</title>
<polygon fill="lightgrey" stroke="black" points="230.25,-168 209.75,-168 209.75,-150 230.25,-150 230.25,-168"/>
<text text-anchor="middle" x="220" y="-156.8" font-family="Times,serif" font-size="9.00">4</text>
</g>
<!-- 4&#45;&gt;6 -->
<g id="edge16" class="edge"><title>4&#45;&gt;6</title>
<path fill="none" stroke="red" stroke-width="0.414949" d="M219.377,-149.959C217.76,-129.085 213.38,-72.5368 210.857,-39.9728"/>
<polygon fill="red" stroke="red" stroke-width="0.414949" points="214.341,-39.6348 210.079,-29.935 207.362,-40.1755 214.341,-39.6348"/>
</g>
<!-- 4&#45;&gt;8 -->
<g id="edge1" class="edge"><title>4&#45;&gt;8</title>
<path fill="none" stroke="green" stroke-width="0.250862" d="M211.189,-149.762C207.757,-146.635 203.753,-143.086 200,-140 182.809,-125.865 162.459,-110.742 147.786,-100.107"/>
<polygon fill="green" stroke="green" stroke-width="0.250862" points="149.624,-97.1167 139.464,-94.1133 145.533,-102.797 149.624,-97.1167"/>
</g>
<!-- 4&#45;&gt;9 -->
<g id="edge7" class="edge"><title>4&#45;&gt;9</title>
<path fill="none" stroke="green" stroke-width="0.115424" d="M228.378,-149.788C231.639,-146.664 235.442,-143.11 239,-140 254.685,-126.288 273.163,-111.491 286.737,-100.86"/>
<polygon fill="green" stroke="green" stroke-width="0.115424" points="289.129,-103.433 294.87,-94.5286 284.829,-97.9096 289.129,-103.433"/>
</g>
<!-- 5 -->
<g id="node6" class="node"><title>5</title>
<polygon fill="lightgrey" stroke="black" points="191.25,-168 170.75,-168 170.75,-150 191.25,-150 191.25,-168"/>
<text text-anchor="middle" x="181" y="-156.8" font-family="Times,serif" font-size="9.00">5</text>
</g>
<!-- 5&#45;&gt;6 -->
<g id="edge2" class="edge"><title>5&#45;&gt;6</title>
<path fill="none" stroke="red" stroke-width="0.102261" d="M182.586,-149.959C186.702,-129.085 197.852,-72.5368 204.273,-39.9728"/>
<polygon fill="red" stroke="red" stroke-width="0.102261" points="207.751,-40.4232 206.252,-29.935 200.884,-39.0689 207.751,-40.4232"/>
</g>
<!-- 5&#45;&gt;8 -->
<g id="edge6" class="edge"><title>5&#45;&gt;8</title>
<path fill="none" stroke="green" stroke-width="0.438268" d="M174.92,-149.741C167.039,-139.035 153.045,-120.023 142.384,-105.54"/>
<polygon fill="green" stroke="green" stroke-width="0.438268" points="145.008,-103.201 136.261,-97.2228 139.371,-107.351 145.008,-103.201"/>
</g>
<!-- 5&#45;&gt;10 -->
<g id="edge15" class="edge"><title>5&#45;&gt;10</title>
<path fill="none" stroke="green" stroke-width="1.1" d="M189.489,-149.741C200.48,-139.046 219.99,-120.064 234.869,-105.587"/>
<polygon fill="green" stroke="green" stroke-width="1.1" points="237.431,-107.977 242.158,-98.4952 232.55,-102.96 237.431,-107.977"/>
</g>
<!-- 8&#45;&gt;6 -->
<g id="edge10" class="edge"><title>8&#45;&gt;6</title>
<path fill="none" stroke="red" stroke-width="1.04926" d="M138.924,-74.8292C152.041,-63.8176 174.258,-45.1661 190.161,-31.8151"/>
<polygon fill="red" stroke="red" stroke-width="1.04926" points="192.841,-34.1358 198.249,-25.0255 188.34,-28.7746 192.841,-34.1358"/>
</g>
<!-- 10&#45;&gt;6 -->
<g id="edge3" class="edge"><title>10&#45;&gt;6</title>
<path fill="none" stroke="green" stroke-width="0.344086" d="M245.019,-69.245C238.413,-59.4797 229.67,-46.5562 222.453,-35.887"/>
<polygon fill="green" stroke="green" stroke-width="0.344086" points="225.331,-33.8955 216.829,-27.5738 219.533,-37.8177 225.331,-33.8955"/>
</g>
<!-- 11&#45;&gt;9 -->
<g id="edge11" class="edge"><title>11&#45;&gt;9</title>
<path fill="none" stroke="red" stroke-width="0.165003" d="M306,-140.571C306,-131.402 306,-120.019 306,-110.026"/>
<polygon fill="red" stroke="red" stroke-width="0.165003" points="309.5,-109.898 306,-99.8983 302.5,-109.898 309.5,-109.898"/>
</g>
<!-- 9&#45;&gt;6 -->
<g id="edge14" class="edge"><title>9&#45;&gt;6</title>
<path fill="none" stroke="red" stroke-width="0.234852" d="M294.841,-75.4748C290.821,-72.4452 286.233,-69.0348 282,-66 264.321,-53.3249 243.864,-39.3732 229.111,-29.4356"/>
<polygon fill="red" stroke="red" stroke-width="0.234852" points="230.992,-26.4827 220.739,-23.8141 227.09,-32.2943 230.992,-26.4827"/>
</g>
<!-- 12&#45;&gt;8 -->
<g id="edge20" class="edge"><title>12&#45;&gt;8</title>
<path fill="none" stroke="green" stroke-width="0.220916" d="M68.5414,-145.459C80.1525,-133.847 97.5302,-116.47 110.504,-103.496"/>
<polygon fill="green" stroke="green" stroke-width="0.220916" points="113.326,-105.624 117.922,-96.0776 108.376,-100.674 113.326,-105.624"/>
</g>
</g>
</svg>
