<?xml version="1.0" encoding="UTF-8" standalone="no"?>
<!DOCTYPE svg PUBLIC "-//W3C//DTD SVG 1.1//EN"
 "http://www.w3.org/Graphics/SVG/1.1/DTD/svg11.dtd">
<!-- Generated by graphviz version 2.36.0 (20140111.2315)
 -->
<!-- Title: %3 Pages: 1 -->
<svg width="327pt" height="240pt"
 viewBox="0.00 0.00 327.18 240.00" xmlns="http://www.w3.org/2000/svg" xmlns:xlink="http://www.w3.org/1999/xlink">
<g id="graph0" class="graph" transform="scale(1 1) rotate(0) translate(4 236)">
<title>%3</title>
<polygon fill="white" stroke="none" points="-4,4 -4,-236 323.177,-236 323.177,4 -4,4"/>
<!-- 0 -->
<g id="node1" class="node"><title>0</title>
<polygon fill="lightgrey" stroke="black" points="170.407,-168 149.907,-168 149.907,-150 170.407,-150 170.407,-168"/>
<text text-anchor="middle" x="160.157" y="-156.8" font-family="Times,serif" font-size="9.00">0</text>
</g>
<!-- 7 -->
<g id="node8" class="node"><title>7</title>
<ellipse fill="none" stroke="black" cx="190.157" cy="-85" rx="14.2796" ry="14.7"/>
<text text-anchor="middle" x="190.157" y="-82.8" font-family="Times,serif" font-size="9.00">7</text>
</g>
<!-- 0&#45;&gt;7 -->
<g id="edge5" class="edge"><title>0&#45;&gt;7</title>
<path fill="none" stroke="red" stroke-width="0.181137" d="M163.598,-149.741C167.759,-139.754 174.932,-122.539 180.775,-108.516"/>
<polygon fill="red" stroke="red" stroke-width="0.181137" points="184.117,-109.595 184.733,-99.0178 177.656,-106.902 184.117,-109.595"/>
</g>
<!-- 8 -->
<g id="node9" class="node"><title>8</title>
<ellipse fill="none" stroke="black" cx="94.1566" cy="-85" rx="14.2796" ry="14.7"/>
<text text-anchor="middle" x="94.1566" y="-82.8" font-family="Times,serif" font-size="9.00">8</text>
</g>
<!-- 0&#45;&gt;8 -->
<g id="edge18" class="edge"><title>0&#45;&gt;8</title>
<path fill="none" stroke="green" stroke-width="0.159707" d="M152.586,-149.741C142.415,-138.646 124.068,-118.63 110.638,-103.98"/>
<polygon fill="green" stroke="green" stroke-width="0.159707" points="113.104,-101.49 103.767,-96.4839 107.944,-106.22 113.104,-101.49"/>
</g>
<!-- 9 -->
<g id="node10" class="node"><title>9</title>
<ellipse fill="none" stroke="black" cx="142.157" cy="-85" rx="14.2796" ry="14.7"/>
<text text-anchor="middle" x="142.157" y="-82.8" font-family="Times,serif" font-size="9.00">9</text>
</g>
<!-- 0&#45;&gt;9 -->
<g id="edge26" class="edge"><title>0&#45;&gt;9</title>
<path fill="none" stroke="green" stroke-width="1.1" d="M158.092,-149.741C155.649,-139.968 151.476,-123.276 148.013,-109.425"/>
<polygon fill="green" stroke="green" stroke-width="1.1" points="151.365,-108.4 145.544,-99.5479 144.574,-110.098 151.365,-108.4"/>
</g>
<!-- 1 -->
<g id="node2" class="node"><title>1</title>
<polygon fill="lightgrey" stroke="black" points="76.4066,-168 55.9066,-168 55.9066,-150 76.4066,-150 76.4066,-168"/>
<text text-anchor="middle" x="66.1566" y="-156.8" font-family="Times,serif" font-size="9.00">1</text>
</g>
<!-- 6 -->
<g id="node7" class="node"><title>6</title>
<ellipse fill="lightblue" stroke="lightblue" cx="166.157" cy="-15" rx="14.2796" ry="14.7"/>
<text text-anchor="middle" x="166.157" y="-12.8" font-family="Times,serif" font-size="9.00">6</text>
</g>
<!-- 1&#45;&gt;6 -->
<g id="edge6" class="edge"><title>1&#45;&gt;6</title>
<path fill="none" stroke="red" stroke-width="0.876362" d="M64.0004,-149.826C59.9902,-132.726 53.2396,-92.5659 70.1566,-66 86.1898,-40.822 119.286,-27.6391 142.098,-21.2593"/>
<polygon fill="red" stroke="red" stroke-width="0.876362" points="143.23,-24.5828 152.054,-18.7194 141.499,-17.8001 143.23,-24.5828"/>
</g>
<!-- 1&#45;&gt;7 -->
<g id="edge25" class="edge"><title>1&#45;&gt;7</title>
<path fill="none" stroke="green" stroke-width="0.615848" d="M74.2505,-149.681C77.7183,-146.401 81.9371,-142.766 86.1566,-140 118.427,-118.848 131.784,-123.366 165.157,-104 166.891,-102.993 168.654,-101.895 170.4,-100.755"/>
<polygon fill="green" stroke="green" stroke-width="0.615848" points="172.573,-103.506 178.774,-94.9157 168.569,-97.7643 172.573,-103.506"/>
</g>
<!-- 1&#45;&gt;8 -->
<g id="edge24" class="edge"><title>1&#45;&gt;8</title>
<path fill="none" stroke="green" stroke-width="1.1" d="M69.3686,-149.741C73.2524,-139.754 79.9469,-122.539 85.4004,-108.516"/>
<polygon fill="green" stroke="green" stroke-width="1.1" points="88.7317,-109.606 89.0942,-99.0178 82.2076,-107.069 88.7317,-109.606"/>
</g>
<!-- 1&#45;&gt;9 -->
<g id="edge17" class="edge"><title>1&#45;&gt;9</title>
<path fill="none" stroke="red" stroke-width="1.1" d="M74.8748,-149.741C86.8276,-138.417 108.588,-117.802 124.126,-103.082"/>
<polygon fill="red" stroke="red" stroke-width="1.1" points="126.747,-105.42 131.599,-96.0018 121.932,-100.338 126.747,-105.42"/>
</g>
<!-- 2 -->
<g id="node3" class="node"><title>2</title>
<polygon fill="lightgrey" stroke="black" points="37.4066,-168 16.9066,-168 16.9066,-150 37.4066,-150 37.4066,-168"/>
<text text-anchor="middle" x="27.1566" y="-156.8" font-family="Times,serif" font-size="9.00">2</text>
</g>
<!-- 2&#45;&gt;6 -->
<g id="edge15" class="edge"><title>2&#45;&gt;6</title>
<path fill="none" stroke="red" stroke-width="0.103429" d="M27.5627,-149.795C28.8476,-132.284 34.1736,-90.8247 56.1566,-66 78.7906,-40.4402 117.104,-27.1709 142.013,-20.8953"/>
<polygon fill="red" stroke="red" stroke-width="0.103429" points="142.838,-24.2969 151.783,-18.6186 141.25,-17.4796 142.838,-24.2969"/>
</g>
<!-- 2&#45;&gt;8 -->
<g id="edge4" class="edge"><title>2&#45;&gt;8</title>
<path fill="none" stroke="red" stroke-width="0.992174" d="M34.8424,-149.741C45.167,-138.646 63.7922,-118.63 77.4251,-103.98"/>
<polygon fill="red" stroke="red" stroke-width="0.992174" points="80.1507,-106.189 84.4008,-96.4839 75.0262,-101.42 80.1507,-106.189"/>
</g>
<!-- 2&#45;&gt;9 -->
<g id="edge10" class="edge"><title>2&#45;&gt;9</title>
<path fill="none" stroke="red" stroke-width="0.563562" d="M34.8428,-149.742C38.1367,-146.472 42.1451,-142.827 46.1566,-140 75.0782,-119.621 86.9323,-122.391 117.157,-104 118.87,-102.957 120.618,-101.834 122.353,-100.676"/>
<polygon fill="red" stroke="red" stroke-width="0.563562" points="124.537,-103.419 130.71,-94.8089 120.515,-97.6903 124.537,-103.419"/>
</g>
<!-- 3 -->
<g id="node4" class="node"><title>3</title>
<polygon fill="lightgrey" stroke="black" points="209.407,-168 188.907,-168 188.907,-150 209.407,-150 209.407,-168"/>
<text text-anchor="middle" x="199.157" y="-156.8" font-family="Times,serif" font-size="9.00">3</text>
</g>
<!-- 3&#45;&gt;6 -->
<g id="edge12" class="edge"><title>3&#45;&gt;6</title>
<path fill="none" stroke="green" stroke-width="0.999735" d="M203.139,-149.808C210.564,-133.338 224.761,-95.2892 213.157,-66 207.547,-51.8419 195.821,-39.3565 185.485,-30.4033"/>
<polygon fill="green" stroke="green" stroke-width="0.999735" points="187.603,-27.6141 177.638,-24.0158 183.184,-33.043 187.603,-27.6141"/>
</g>
<!-- 3&#45;&gt;7 -->
<g id="edge7" class="edge"><title>3&#45;&gt;7</title>
<path fill="none" stroke="red" stroke-width="0.236636" d="M198.124,-149.741C196.922,-140.122 194.882,-123.801 193.167,-110.082"/>
<polygon fill="red" stroke="red" stroke-width="0.236636" points="196.597,-109.304 191.884,-99.8158 189.651,-110.173 196.597,-109.304"/>
</g>
<!-- 3&#45;&gt;8 -->
<g id="edge23" class="edge"><title>3&#45;&gt;8</title>
<path fill="none" stroke="red" stroke-width="0.197343" d="M190.911,-149.9C187.419,-146.654 183.224,-142.984 179.157,-140 153.775,-121.378 144.344,-121.471 118.157,-104 116.667,-103.006 115.145,-101.955 113.626,-100.879"/>
<polygon fill="red" stroke="red" stroke-width="0.197343" points="115.334,-97.7912 105.205,-94.686 111.187,-103.43 115.334,-97.7912"/>
</g>
<!-- 3&#45;&gt;9 -->
<g id="edge16" class="edge"><title>3&#45;&gt;9</title>
<path fill="none" stroke="green" stroke-width="0.221573" d="M192.618,-149.741C184.013,-138.872 168.632,-119.443 157.106,-104.883"/>
<polygon fill="green" stroke="green" stroke-width="0.221573" points="159.796,-102.642 150.845,-96.9744 154.308,-106.987 159.796,-102.642"/>
</g>
<!-- 4 -->
<g id="node5" class="node"><title>4</title>
<polygon fill="lightgrey" stroke="black" points="248.407,-168 227.907,-168 227.907,-150 248.407,-150 248.407,-168"/>
<text text-anchor="middle" x="238.157" y="-156.8" font-family="Times,serif" font-size="9.00">4</text>
</g>
<!-- 4&#45;&gt;7 -->
<g id="edge1" class="edge"><title>4&#45;&gt;7</title>
<path fill="none" stroke="green" stroke-width="0.122231" d="M232.65,-149.741C225.661,-139.257 213.362,-120.808 203.788,-106.448"/>
<polygon fill="green" stroke="green" stroke-width="0.122231" points="206.433,-104.105 197.974,-97.7258 200.609,-107.988 206.433,-104.105"/>
</g>
<!-- 4&#45;&gt;8 -->
<g id="edge2" class="edge"><title>4&#45;&gt;8</title>
<path fill="none" stroke="green" stroke-width="1.0304" d="M230.553,-149.871C227.036,-146.467 222.646,-142.686 218.157,-140 177.622,-115.747 159.734,-126.419 118.157,-104 116.581,-103.15 114.995,-102.204 113.431,-101.203"/>
<polygon fill="green" stroke="green" stroke-width="1.0304" points="115.102,-98.0961 104.924,-95.1522 111.045,-103.8 115.102,-98.0961"/>
</g>
<!-- 4&#45;&gt;9 -->
<g id="edge9" class="edge"><title>4&#45;&gt;9</title>
<path fill="none" stroke="red" stroke-width="1.1" d="M229.407,-149.686C225.982,-146.55 221.967,-143.014 218.157,-140 196.11,-122.563 188.96,-120.436 166.157,-104 164.704,-102.953 163.209,-101.863 161.709,-100.76"/>
<polygon fill="red" stroke="red" stroke-width="1.1" points="163.435,-97.6809 153.324,-94.5134 159.253,-103.294 163.435,-97.6809"/>
</g>
<!-- 11 -->
<g id="node12" class="node"><title>11</title>
<ellipse fill="none" stroke="black" cx="279.157" cy="-85" rx="18.0791" ry="18.2703"/>
<text text-anchor="middle" x="279.157" y="-82.8" font-family="Times,serif" font-size="9.00">11</text>
</g>
<!-- 4&#45;&gt;11 -->
<g id="edge20" class="edge"><title>4&#45;&gt;11</title>
<path fill="none" stroke="green" stroke-width="0.395549" d="M242.86,-149.741C248.329,-140.137 257.603,-123.85 265.408,-110.144"/>
<polygon fill="green" stroke="green" stroke-width="0.395549" points="268.605,-111.603 270.512,-101.181 262.522,-108.139 268.605,-111.603"/>
</g>
<!-- 5 -->
<g id="node6" class="node"><title>5</title>
<polygon fill="lightgrey" stroke="black" points="205.407,-232 184.907,-232 184.907,-214 205.407,-214 205.407,-232"/>
<text text-anchor="middle" x="195.157" y="-220.8" font-family="Times,serif" font-size="9.00">5</text>
</g>
<!-- 5&#45;&gt;6 -->
<g id="edge3" class="edge"><title>5&#45;&gt;6</title>
<path fill="none" stroke="red" stroke-width="0.128314" d="M205.52,-218.694C222.093,-212.925 254.672,-199.538 274.157,-178 308.888,-139.609 335.978,-108.317 306.157,-66 279.976,-28.8499 223.571,-19.1504 190.909,-16.7147"/>
<polygon fill="red" stroke="red" stroke-width="0.128314" points="191.004,-13.2146 180.821,-16.1381 190.605,-20.2032 191.004,-13.2146"/>
</g>
<!-- 5&#45;&gt;7 -->
<g id="edge22" class="edge"><title>5&#45;&gt;7</title>
<path fill="none" stroke="red" stroke-width="0.102052" d="M205.422,-218.25C220.031,-212.286 246.253,-199.108 257.157,-178 264.908,-162.995 264.445,-155.235 257.157,-140 247.92,-120.692 228.038,-106.083 212.318,-96.96"/>
<polygon fill="red" stroke="red" stroke-width="0.102052" points="213.657,-93.7039 203.201,-91.9959 210.31,-99.8517 213.657,-93.7039"/>
</g>
<!-- 5&#45;&gt;8 -->
<g id="edge8" class="edge"><title>5&#45;&gt;8</title>
<path fill="none" stroke="green" stroke-width="0.26451" d="M184.469,-221.191C148.026,-218.189 29.6506,-206.366 7.15664,-178 -3.33702,-164.767 -1.05349,-154.759 7.15664,-140 20.6732,-115.702 50.1484,-100.937 71.0367,-93.127"/>
<polygon fill="green" stroke="green" stroke-width="0.26451" points="72.1969,-96.4293 80.4935,-89.8402 69.8987,-89.8172 72.1969,-96.4293"/>
</g>
<!-- 10 -->
<g id="node11" class="node"><title>10</title>
<ellipse fill="none" stroke="black" cx="113.157" cy="-159" rx="18.0791" ry="18.2703"/>
<text text-anchor="middle" x="113.157" y="-156.8" font-family="Times,serif" font-size="9.00">10</text>
</g>
<!-- 5&#45;&gt;10 -->
<g id="edge21" class="edge"><title>5&#45;&gt;10</title>
<path fill="none" stroke="red" stroke-width="0.453608" d="M184.771,-214.148C172.481,-204.855 151.663,-189.115 135.631,-176.993"/>
<polygon fill="red" stroke="red" stroke-width="0.453608" points="137.389,-173.934 127.301,-170.695 133.167,-179.518 137.389,-173.934"/>
</g>
<!-- 7&#45;&gt;6 -->
<g id="edge11" class="edge"><title>7&#45;&gt;6</title>
<path fill="none" stroke="green" stroke-width="0.165585" d="M185.529,-70.8889C182.309,-61.7639 177.931,-49.3614 174.152,-38.6545"/>
<polygon fill="green" stroke="green" stroke-width="0.165585" points="177.399,-37.3358 170.77,-29.0708 170.798,-39.6656 177.399,-37.3358"/>
</g>
<!-- 8&#45;&gt;6 -->
<g id="edge13" class="edge"><title>8&#45;&gt;6</title>
<path fill="none" stroke="green" stroke-width="0.37671" d="M104.472,-74.2573C115.914,-63.4513 134.578,-45.8242 148.384,-32.7853"/>
<polygon fill="green" stroke="green" stroke-width="0.37671" points="150.993,-35.1355 155.86,-25.7247 146.187,-30.0464 150.993,-35.1355"/>
</g>
<!-- 9&#45;&gt;6 -->
<g id="edge19" class="edge"><title>9&#45;&gt;6</title>
<path fill="none" stroke="red" stroke-width="0.689426" d="M146.784,-70.8889C150.005,-61.7639 154.382,-49.3614 158.161,-38.6545"/>
<polygon fill="red" stroke="red" stroke-width="0.689426" points="161.516,-39.6656 161.543,-29.0708 154.915,-37.3358 161.516,-39.6656"/>
</g>
<!-- 10&#45;&gt;9 -->
<g id="edge14" class="edge"><title>10&#45;&gt;9</title>
<path fill="none" stroke="green" stroke-width="0.617056" d="M119.737,-141.662C123.688,-131.852 128.771,-119.233 133.098,-108.49"/>
<polygon fill="green" stroke="green" stroke-width="0.617056" points="136.464,-109.502 136.953,-98.9189 129.97,-106.887 136.464,-109.502"/>
</g>
<!-- 11&#45;&gt;6 -->
<g id="edge27" class="edge"><title>11&#45;&gt;6</title>
<path fill="none" stroke="red" stroke-width="0.335219" d="M263.917,-74.8292C244.097,-62.9023 209.383,-42.0123 187.1,-28.603"/>
<polygon fill="red" stroke="red" stroke-width="0.335219" points="188.764,-25.5193 178.391,-23.362 185.154,-31.5171 188.764,-25.5193"/>
</g>
</g>
</svg>
