<?xml version="1.0" encoding="UTF-8" standalone="no"?>
<!DOCTYPE svg PUBLIC "-//W3C//DTD SVG 1.1//EN"
 "http://www.w3.org/Graphics/SVG/1.1/DTD/svg11.dtd">
<!-- Generated by graphviz version 2.36.0 (20140111.2315)
 -->
<!-- Title: %3 Pages: 1 -->
<svg width="384pt" height="240pt"
 viewBox="0.00 0.00 384.02 240.00" xmlns="http://www.w3.org/2000/svg" xmlns:xlink="http://www.w3.org/1999/xlink">
<g id="graph0" class="graph" transform="scale(1 1) rotate(0) translate(4 236)">
<title>%3</title>
<polygon fill="white" stroke="none" points="-4,4 -4,-236 380.02,-236 380.02,4 -4,4"/>
<!-- 0 -->
<g id="node1" class="node"><title>0</title>
<polygon fill="lightgrey" stroke="black" points="96.2702,-168 75.7702,-168 75.7702,-150 96.2702,-150 96.2702,-168"/>
<text text-anchor="middle" x="86.0202" y="-156.8" font-family="Times,serif" font-size="9.00">0</text>
</g>
<!-- 6 -->
<g id="node7" class="node"><title>6</title>
<ellipse fill="lightblue" stroke="lightblue" cx="161.02" cy="-15" rx="14.2796" ry="14.7"/>
<text text-anchor="middle" x="161.02" y="-12.8" font-family="Times,serif" font-size="9.00">6</text>
</g>
<!-- 0&#45;&gt;6 -->
<g id="edge27" class="edge"><title>0&#45;&gt;6</title>
<path fill="none" stroke="red" stroke-width="0.176081" stroke-dasharray="1,5" d="M80.3699,-149.994C69.2863,-133.214 47.181,-93.6246 64.0202,-66 79.8405,-40.0469 113.927,-26.986 137.172,-20.8512"/>
<polygon fill="red" stroke="red" stroke-width="0.176081" points="138.077,-24.2336 146.985,-18.4985 136.445,-17.4265 138.077,-24.2336"/>
</g>
<!-- 9 -->
<g id="node8" class="node"><title>9</title>
<ellipse fill="none" stroke="black" cx="97.0202" cy="-85" rx="14.2796" ry="14.7"/>
<text text-anchor="middle" x="97.0202" y="-82.8" font-family="Times,serif" font-size="9.00">9</text>
</g>
<!-- 0&#45;&gt;9 -->
<g id="edge30" class="edge"><title>0&#45;&gt;9</title>
<path fill="none" stroke="green" stroke-width="1.1" d="M87.282,-149.741C88.7515,-140.122 91.245,-123.801 93.341,-110.082"/>
<polygon fill="green" stroke="green" stroke-width="1.1" points="96.859,-110.23 94.9094,-99.8158 89.9392,-109.172 96.859,-110.23"/>
</g>
<!-- 7 -->
<g id="node9" class="node"><title>7</title>
<ellipse fill="none" stroke="black" cx="183.02" cy="-85" rx="14.2796" ry="14.7"/>
<text text-anchor="middle" x="183.02" y="-82.8" font-family="Times,serif" font-size="9.00">7</text>
</g>
<!-- 0&#45;&gt;7 -->
<g id="edge6" class="edge"><title>0&#45;&gt;7</title>
<path fill="none" stroke="red" stroke-width="0.181137" d="M94.2807,-149.649C97.5279,-146.508 101.352,-142.979 105.02,-140 123.618,-124.9 146.263,-109.526 162.352,-99.0647"/>
<polygon fill="red" stroke="red" stroke-width="0.181137" points="164.469,-101.865 170.987,-93.5119 160.682,-95.9768 164.469,-101.865"/>
</g>
<!-- 8 -->
<g id="node10" class="node"><title>8</title>
<ellipse fill="none" stroke="black" cx="231.02" cy="-85" rx="14.2796" ry="14.7"/>
<text text-anchor="middle" x="231.02" y="-82.8" font-family="Times,serif" font-size="9.00">8</text>
</g>
<!-- 0&#45;&gt;8 -->
<g id="edge19" class="edge"><title>0&#45;&gt;8</title>
<path fill="none" stroke="green" stroke-width="0.159707" d="M93.1749,-149.848C96.5037,-146.44 100.683,-142.662 105.02,-140 145.638,-115.076 163.821,-126.142 206.02,-104 207.796,-103.068 209.588,-102.023 211.354,-100.918"/>
<polygon fill="green" stroke="green" stroke-width="0.159707" points="213.503,-103.688 219.76,-95.1378 209.537,-97.9197 213.503,-103.688"/>
</g>
<!-- 1 -->
<g id="node2" class="node"><title>1</title>
<polygon fill="lightgrey" stroke="black" points="135.27,-168 114.77,-168 114.77,-150 135.27,-150 135.27,-168"/>
<text text-anchor="middle" x="125.02" y="-156.8" font-family="Times,serif" font-size="9.00">1</text>
</g>
<!-- 1&#45;&gt;6 -->
<g id="edge7" class="edge"><title>1&#45;&gt;6</title>
<path fill="none" stroke="red" stroke-width="0.876362" d="M116.447,-149.795C102.279,-136.136 75.3077,-109.673 73.0202,-104 66.7045,-88.3364 64.5253,-80.597 73.0202,-66 86.7054,-42.4844 116.029,-29.1235 137.067,-22.2362"/>
<polygon fill="red" stroke="red" stroke-width="0.876362" points="138.335,-25.5101 146.906,-19.2819 136.322,-18.8058 138.335,-25.5101"/>
</g>
<!-- 1&#45;&gt;9 -->
<g id="edge18" class="edge"><title>1&#45;&gt;9</title>
<path fill="none" stroke="red" stroke-width="1.1" d="M121.808,-149.741C117.924,-139.754 111.23,-122.539 105.776,-108.516"/>
<polygon fill="red" stroke="red" stroke-width="1.1" points="108.969,-107.069 102.083,-99.0178 102.445,-109.606 108.969,-107.069"/>
</g>
<!-- 1&#45;&gt;7 -->
<g id="edge29" class="edge"><title>1&#45;&gt;7</title>
<path fill="none" stroke="green" stroke-width="0.615848" d="M131.674,-149.741C140.429,-138.872 156.08,-119.443 167.809,-104.883"/>
<polygon fill="green" stroke="green" stroke-width="0.615848" points="170.632,-106.958 174.18,-96.9744 165.181,-102.566 170.632,-106.958"/>
</g>
<!-- 1&#45;&gt;8 -->
<g id="edge28" class="edge"><title>1&#45;&gt;8</title>
<path fill="none" stroke="green" stroke-width="1.1" d="M132.788,-149.855C136.095,-146.602 140.091,-142.939 144.02,-140 169.536,-120.914 179.281,-121.33 206.02,-104 207.703,-102.909 209.43,-101.752 211.151,-100.571"/>
<polygon fill="green" stroke="green" stroke-width="1.1" points="213.348,-103.303 219.484,-94.6656 209.301,-97.5915 213.348,-103.303"/>
</g>
<!-- 2 -->
<g id="node3" class="node"><title>2</title>
<polygon fill="lightgrey" stroke="black" points="174.27,-168 153.77,-168 153.77,-150 174.27,-150 174.27,-168"/>
<text text-anchor="middle" x="164.02" y="-156.8" font-family="Times,serif" font-size="9.00">2</text>
</g>
<!-- 2&#45;&gt;6 -->
<g id="edge16" class="edge"><title>2&#45;&gt;6</title>
<path fill="none" stroke="red" stroke-width="0.103429" d="M163.043,-149.965C161.814,-139.43 159.776,-120.365 159.02,-104 158.241,-87.1291 158.683,-82.8855 159.02,-66 159.189,-57.545 159.519,-48.2905 159.863,-40.0671"/>
<polygon fill="red" stroke="red" stroke-width="0.103429" points="163.362,-40.1502 160.31,-30.0045 156.369,-39.839 163.362,-40.1502"/>
</g>
<!-- 2&#45;&gt;9 -->
<g id="edge11" class="edge"><title>2&#45;&gt;9</title>
<path fill="none" stroke="red" stroke-width="0.563562" d="M156.334,-149.741C146.01,-138.646 127.385,-118.63 113.752,-103.98"/>
<polygon fill="red" stroke="red" stroke-width="0.563562" points="116.151,-101.42 106.776,-96.4839 111.026,-106.189 116.151,-101.42"/>
</g>
<!-- 2&#45;&gt;7 -->
<g id="edge22" class="edge"><title>2&#45;&gt;7</title>
<path fill="none" stroke="red" stroke-width="0.398674" stroke-dasharray="1,5" d="M166.2,-149.741C168.779,-139.968 173.183,-123.276 176.839,-109.425"/>
<polygon fill="red" stroke="red" stroke-width="0.398674" points="180.278,-110.11 179.445,-99.5479 173.509,-108.324 180.278,-110.11"/>
</g>
<!-- 2&#45;&gt;8 -->
<g id="edge5" class="edge"><title>2&#45;&gt;8</title>
<path fill="none" stroke="red" stroke-width="0.992174" d="M171.706,-149.741C182.031,-138.646 200.656,-118.63 214.289,-103.98"/>
<polygon fill="red" stroke="red" stroke-width="0.992174" points="217.014,-106.189 221.264,-96.4839 211.89,-101.42 217.014,-106.189"/>
</g>
<!-- 3 -->
<g id="node4" class="node"><title>3</title>
<polygon fill="lightgrey" stroke="black" points="252.27,-168 231.77,-168 231.77,-150 252.27,-150 252.27,-168"/>
<text text-anchor="middle" x="242.02" y="-156.8" font-family="Times,serif" font-size="9.00">3</text>
</g>
<!-- 3&#45;&gt;6 -->
<g id="edge13" class="edge"><title>3&#45;&gt;6</title>
<path fill="none" stroke="green" stroke-width="0.999735" d="M246.233,-149.933C254.418,-133.035 270.301,-93.2371 254.02,-66 239.162,-41.1421 207.225,-27.9231 184.947,-21.4445"/>
<polygon fill="green" stroke="green" stroke-width="0.999735" points="185.759,-18.0388 175.195,-18.8542 183.962,-24.8042 185.759,-18.0388"/>
</g>
<!-- 3&#45;&gt;9 -->
<g id="edge17" class="edge"><title>3&#45;&gt;9</title>
<path fill="none" stroke="green" stroke-width="0.221573" d="M231.592,-152.822C208.154,-141.184 150.884,-112.746 119.131,-96.9789"/>
<polygon fill="green" stroke="green" stroke-width="0.221573" points="120.306,-93.6548 109.793,-92.3422 117.193,-99.9244 120.306,-93.6548"/>
</g>
<!-- 3&#45;&gt;7 -->
<g id="edge8" class="edge"><title>3&#45;&gt;7</title>
<path fill="none" stroke="red" stroke-width="0.236636" d="M235.252,-149.741C226.346,-138.872 210.425,-119.443 198.494,-104.883"/>
<polygon fill="red" stroke="red" stroke-width="0.236636" points="201.059,-102.491 192.013,-96.9744 195.644,-106.928 201.059,-102.491"/>
</g>
<!-- 3&#45;&gt;8 -->
<g id="edge26" class="edge"><title>3&#45;&gt;8</title>
<path fill="none" stroke="red" stroke-width="0.197343" d="M240.758,-149.741C239.289,-140.122 236.795,-123.801 234.699,-110.082"/>
<polygon fill="red" stroke="red" stroke-width="0.197343" points="238.101,-109.172 233.131,-99.8158 231.181,-110.23 238.101,-109.172"/>
</g>
<!-- 4 -->
<g id="node5" class="node"><title>4</title>
<polygon fill="lightgrey" stroke="black" points="291.27,-168 270.77,-168 270.77,-150 291.27,-150 291.27,-168"/>
<text text-anchor="middle" x="281.02" y="-156.8" font-family="Times,serif" font-size="9.00">4</text>
</g>
<!-- 4&#45;&gt;6 -->
<g id="edge24" class="edge"><title>4&#45;&gt;6</title>
<path fill="none" stroke="green" stroke-width="0.10002" stroke-dasharray="1,5" d="M282.697,-149.948C285.8,-132.732 290.549,-91.8148 272.02,-66 251.656,-37.6283 211.337,-25.0513 185.307,-19.6995"/>
<polygon fill="green" stroke="green" stroke-width="0.10002" points="185.92,-16.2538 175.451,-17.8765 184.647,-23.137 185.92,-16.2538"/>
</g>
<!-- 4&#45;&gt;9 -->
<g id="edge10" class="edge"><title>4&#45;&gt;9</title>
<path fill="none" stroke="red" stroke-width="1.1" d="M273.451,-149.812C269.94,-146.398 265.546,-142.624 261.02,-140 248.589,-132.792 162.77,-106.086 120.476,-93.1348"/>
<polygon fill="red" stroke="red" stroke-width="1.1" points="121.319,-89.7326 110.733,-90.1588 119.274,-96.4273 121.319,-89.7326"/>
</g>
<!-- 4&#45;&gt;7 -->
<g id="edge2" class="edge"><title>4&#45;&gt;7</title>
<path fill="none" stroke="green" stroke-width="0.122231" d="M272.298,-149.65C268.877,-146.51 264.857,-142.98 261.02,-140 238.241,-122.306 230.567,-120.66 207.02,-104 205.559,-102.966 204.057,-101.885 202.552,-100.788"/>
<polygon fill="green" stroke="green" stroke-width="0.122231" points="204.273,-97.7072 194.158,-94.5549 200.1,-103.327 204.273,-97.7072"/>
</g>
<!-- 4&#45;&gt;8 -->
<g id="edge3" class="edge"><title>4&#45;&gt;8</title>
<path fill="none" stroke="green" stroke-width="1.0304" d="M275.285,-149.741C267.892,-139.096 254.798,-120.24 244.763,-105.789"/>
<polygon fill="green" stroke="green" stroke-width="1.0304" points="247.567,-103.691 238.988,-97.4733 241.817,-107.683 247.567,-103.691"/>
</g>
<!-- 11 -->
<g id="node12" class="node"><title>11</title>
<ellipse fill="none" stroke="black" cx="358.02" cy="-85" rx="18.0791" ry="18.2703"/>
<text text-anchor="middle" x="358.02" y="-82.8" font-family="Times,serif" font-size="9.00">11</text>
</g>
<!-- 4&#45;&gt;11 -->
<g id="edge21" class="edge"><title>4&#45;&gt;11</title>
<path fill="none" stroke="green" stroke-width="0.395549" d="M289.853,-149.741C301.358,-138.983 321.83,-119.84 337.346,-105.332"/>
<polygon fill="green" stroke="green" stroke-width="0.395549" points="340.02,-107.623 344.934,-98.2368 335.239,-102.51 340.02,-107.623"/>
</g>
<!-- 5 -->
<g id="node6" class="node"><title>5</title>
<polygon fill="lightgrey" stroke="black" points="49.2702,-232 28.7702,-232 28.7702,-214 49.2702,-214 49.2702,-232"/>
<text text-anchor="middle" x="39.0202" y="-220.8" font-family="Times,serif" font-size="9.00">5</text>
</g>
<!-- 5&#45;&gt;6 -->
<g id="edge4" class="edge"><title>5&#45;&gt;6</title>
<path fill="none" stroke="red" stroke-width="0.128314" d="M29.7953,-213.994C21.2453,-205.908 9.10482,-192.56 4.02018,-178 -1.54802,-162.055 -0.924131,-156.149 4.02018,-140 15.6404,-102.046 23.8377,-91.7784 54.0202,-66 78.8987,-44.7516 114.333,-30.5665 137.499,-22.8945"/>
<polygon fill="red" stroke="red" stroke-width="0.128314" points="138.719,-26.1795 147.197,-19.8259 136.607,-19.5056 138.719,-26.1795"/>
</g>
<!-- 5&#45;&gt;9 -->
<g id="edge1" class="edge"><title>5&#45;&gt;9</title>
<path fill="none" stroke="green" stroke-width="0.447821" stroke-dasharray="1,5" d="M32.2032,-213.916C20.279,-198.735 -1.83715,-165.221 12.0202,-140 25.0559,-116.275 53.4185,-101.494 73.7983,-93.5181"/>
<polygon fill="green" stroke="green" stroke-width="0.447821" points="75.1323,-96.7572 83.3318,-90.0476 72.7378,-90.1795 75.1323,-96.7572"/>
</g>
<!-- 5&#45;&gt;7 -->
<g id="edge25" class="edge"><title>5&#45;&gt;7</title>
<path fill="none" stroke="red" stroke-width="0.102052" d="M49.2895,-222.562C76.5466,-223.419 150.83,-221.496 183.02,-178 197.518,-158.411 194.734,-129.492 190.119,-109.322"/>
<polygon fill="red" stroke="red" stroke-width="0.102052" points="193.443,-108.2 187.542,-99.4006 186.668,-109.959 193.443,-108.2"/>
</g>
<!-- 5&#45;&gt;8 -->
<g id="edge9" class="edge"><title>5&#45;&gt;8</title>
<path fill="none" stroke="green" stroke-width="0.26451" d="M49.563,-221.942C94.2207,-221.455 267.013,-217.037 300.02,-178 310.925,-165.103 307.418,-155.183 300.02,-140 290.329,-120.11 269.376,-105.389 253.086,-96.385"/>
<polygon fill="green" stroke="green" stroke-width="0.26451" points="254.643,-93.2494 244.155,-91.7481 251.417,-99.4621 254.643,-93.2494"/>
</g>
<!-- 10 -->
<g id="node11" class="node"><title>10</title>
<ellipse fill="none" stroke="black" cx="39.0202" cy="-159" rx="18.0791" ry="18.2703"/>
<text text-anchor="middle" x="39.0202" y="-156.8" font-family="Times,serif" font-size="9.00">10</text>
</g>
<!-- 5&#45;&gt;10 -->
<g id="edge23" class="edge"><title>5&#45;&gt;10</title>
<path fill="none" stroke="red" stroke-width="0.453608" d="M39.0202,-213.895C39.0202,-207.145 39.0202,-197.124 39.0202,-187.548"/>
<polygon fill="red" stroke="red" stroke-width="0.453608" points="42.5203,-187.508 39.0202,-177.508 35.5203,-187.508 42.5203,-187.508"/>
</g>
<!-- 9&#45;&gt;6 -->
<g id="edge20" class="edge"><title>9&#45;&gt;6</title>
<path fill="none" stroke="red" stroke-width="0.689426" d="M106.74,-73.6723C116.702,-63.0881 132.382,-46.4279 144.333,-33.7296"/>
<polygon fill="red" stroke="red" stroke-width="0.689426" points="146.904,-36.1057 151.208,-26.4249 141.806,-31.3082 146.904,-36.1057"/>
</g>
<!-- 7&#45;&gt;6 -->
<g id="edge12" class="edge"><title>7&#45;&gt;6</title>
<path fill="none" stroke="green" stroke-width="0.165585" d="M178.674,-70.5654C175.781,-61.6244 171.905,-49.6441 168.522,-39.1871"/>
<polygon fill="green" stroke="green" stroke-width="0.165585" points="171.766,-37.8438 165.358,-29.4067 165.106,-39.9985 171.766,-37.8438"/>
</g>
<!-- 8&#45;&gt;6 -->
<g id="edge14" class="edge"><title>8&#45;&gt;6</title>
<path fill="none" stroke="green" stroke-width="0.37671" d="M220.991,-74.2573C209.867,-63.4513 191.722,-45.8242 178.299,-32.7853"/>
<polygon fill="green" stroke="green" stroke-width="0.37671" points="180.642,-30.1821 171.031,-25.7247 175.765,-35.203 180.642,-30.1821"/>
</g>
<!-- 10&#45;&gt;9 -->
<g id="edge15" class="edge"><title>10&#45;&gt;9</title>
<path fill="none" stroke="green" stroke-width="0.617056" d="M50.2032,-144.118C59.1898,-132.962 71.9034,-117.179 81.8145,-104.876"/>
<polygon fill="green" stroke="green" stroke-width="0.617056" points="84.6004,-106.997 88.1481,-97.0136 79.1491,-102.606 84.6004,-106.997"/>
</g>
<!-- 11&#45;&gt;6 -->
<g id="edge31" class="edge"><title>11&#45;&gt;6</title>
<path fill="none" stroke="red" stroke-width="0.335219" d="M342.741,-74.5097C337.555,-71.5332 331.648,-68.4016 326.02,-66 277.54,-45.3136 217.684,-29.4281 185.042,-21.5268"/>
<polygon fill="red" stroke="red" stroke-width="0.335219" points="185.609,-18.0642 175.07,-19.1579 183.991,-24.8746 185.609,-18.0642"/>
</g>
</g>
</svg>
